<?xml version="1.0" standalone="no"?>
<!DOCTYPE svg PUBLIC "-//W3C//DTD SVG 1.1//EN" "http://www.w3.org/Graphics/SVG/1.1/DTD/svg11.dtd" >
<svg>
<metadata>
Created by FontForge 20110222 at Thu Jan 23 09:15:32 2014
 By Orthosie Webhosting
Copyright (C) 2004 Hoefler &#38; Frere-Jones Typography, Inc. www.typography.com
</metadata>
<defs>
<font id="LuzSansBookLuzSansBook" horiz-adv-x="467" >
  <font-face 
    font-family="LuzSansBookLuzSansBook"
    font-weight="500"
    font-stretch="normal"
    units-per-em="2048"
    panose-1="2 0 6 3 4 0 0 2 0 3"
    ascent="1556"
    descent="-492"
    x-height="987"
    cap-height="1544"
    bbox="-135 -602 2419 2130"
    underline-thickness="131"
    underline-position="-201"
    unicode-range="U+0020-FB02"
  />
<missing-glyph horiz-adv-x="1024" 
 />
    <glyph glyph-name=".notdef" horiz-adv-x="1024" 
 />
    <glyph glyph-name=".null" horiz-adv-x="0" 
 />
    <glyph glyph-name="nonmarkingreturn" horiz-adv-x="518" 
 />
    <glyph glyph-name="space" unicode=" " horiz-adv-x="518" 
 />
    <glyph glyph-name="exclam" unicode="!" horiz-adv-x="680" 
d="M268 401v1143h144v-1143h-144zM440 76q0 -21 -8 -39.5t-21.5 -32t-31.5 -21.5t-39 -8q-20 0 -37.5 8t-31 21.5t-21.5 32t-8 39.5q0 20 8 37.5t21.5 31t31 21.5t37.5 8q21 0 39 -8t31.5 -21.5t21.5 -31t8 -37.5z" />
    <glyph glyph-name="quotedbl" unicode="&#x22;" horiz-adv-x="899" 
d="M559 1032l-98 19l164 510l145 -21zM240 1032l-99 19l164 510l146 -21z" />
    <glyph glyph-name="numbersign" unicode="#" horiz-adv-x="1409" 
d="M1288 971h-256l-55 -398h248l-19 -116h-245l-64 -457h-123l66 457h-357l-61 -457h-123l63 457h-258l19 116h256l55 398h-248l19 119h246l63 454h123l-64 -454h355l61 454h123l-63 -454h258zM557 971l-57 -398h354l55 398h-352z" />
    <glyph glyph-name="dollar" unicode="$" horiz-adv-x="1112" 
d="M1014 424q0 -82 -27 -156t-77.5 -133t-122.5 -99t-162 -54v-230h-119v223q-81 3 -152 28t-129 67.5t-101 100t-67 126.5l107 78q24 -59 61.5 -106.5t85 -80.5t103 -51t114.5 -18q75 0 135 22t101.5 61.5t63.5 96t22 125.5q0 77 -30.5 130t-80.5 91t-113.5 66.5t-130 56.5
t-130 60.5t-113.5 79t-80.5 112t-30.5 158.5q0 74 26 139.5t73.5 117t115 85.5t150.5 45v217h119v-215q118 -11 208 -65.5t146 -141.5l-90 -105q-28 38 -62.5 69t-73.5 53.5t-82 35t-87 12.5q-66 0 -118.5 -18.5t-89 -51t-56 -75.5t-19.5 -92q0 -72 30.5 -121t81 -84.5
t114.5 -63t130.5 -56t130.5 -63t114.5 -84.5t81 -120.5t30.5 -171.5z" />
    <glyph glyph-name="percent" unicode="%" horiz-adv-x="1612" 
d="M719 1176q0 -81 -25 -151t-69 -122t-105.5 -82t-134.5 -30t-134.5 30t-105.5 82t-69 122t-25 151t25 151t69 122t105.5 82t134.5 30q74 0 135.5 -30t105.5 -82t68.5 -122t24.5 -151zM395 -29l-94 29l909 1573l97 -29zM1563 369q0 -81 -25 -151t-69.5 -122t-105.5 -82
t-134 -30q-74 0 -135.5 30t-105.5 82t-68.5 122t-24.5 151t25 151t69 122t105.5 82t134.5 30t134 -30t105.5 -82t69.5 -122t25 -151zM604 1176q0 60 -15.5 110.5t-44 88t-69 58.5t-90.5 21t-90.5 -21t-69 -58t-44 -88t-15.5 -111q0 -61 15.5 -112t44 -88t69 -58t90.5 -21
t90.5 21t69 58t44 88t15.5 112zM1448 369q0 60 -15.5 111t-44 88t-69 58t-90.5 21q-51 0 -91.5 -21t-69 -58t-43.5 -88t-15 -111t15 -111t43.5 -88.5t69 -58.5t91.5 -21q50 0 90.5 21t69 58t44 88t15.5 112z" />
    <glyph glyph-name="ampersand" unicode="&#x26;" horiz-adv-x="1368" 
d="M1161 -2l-157 192q-113 -112 -232 -167.5t-256 -55.5q-82 0 -162.5 31.5t-144.5 88.5t-103.5 136.5t-39.5 175.5q0 75 19 142.5t62.5 127t115 112t177.5 98.5q-86 92 -123.5 179.5t-37.5 172.5q0 74 25 136.5t71.5 109t111.5 72.5t146 26q75 0 137 -26.5t105.5 -70.5
t67.5 -101.5t24 -119.5q0 -136 -84 -241.5t-242 -177.5l369 -459q23 29 48 68.5t48.5 81t44 82.5t33.5 73l106 -66q-14 -35 -36 -79t-48.5 -89.5t-55.5 -89.5t-56 -79l231 -283h-164zM831 1243q0 39 -13 77t-38 67t-61.5 47t-83.5 18q-49 0 -89 -17t-68.5 -46.5t-44 -69.5
t-15.5 -86q0 -68 34 -143.5t111 -161.5q133 59 200.5 140.5t67.5 174.5zM518 784q-86 -37 -144.5 -76.5t-94 -84.5t-51 -97.5t-15.5 -115.5q0 -59 24.5 -114.5t68 -98t103.5 -68t130 -25.5q44 0 90 9.5t93.5 31.5t97 58t100.5 88z" />
    <glyph glyph-name="quotesingle" unicode="'" horiz-adv-x="580" 
d="M240 1032l-99 19l164 510l146 -21z" />
    <glyph glyph-name="parenleft" unicode="(" horiz-adv-x="545" 
d="M461 -414q-88 92 -161.5 204.5t-126 240t-81.5 266.5t-29 285t29 285t81.5 265.5t126 239t161.5 205.5l104 -90q-83 -90 -149 -195.5t-112.5 -221t-71.5 -238.5t-25 -248q0 -127 24.5 -250t70.5 -238.5t112.5 -222t150.5 -199.5z" />
    <glyph glyph-name="parenright" unicode=")" horiz-adv-x="545" 
d="M473 582q0 -146 -28.5 -285t-81 -266.5t-125.5 -240t-162 -204.5l-103 88q84 93 150.5 199.5t112 222t70 238.5t24.5 250q0 126 -24 248.5t-69.5 237t-112 220t-151.5 197.5l103 90q89 -93 162 -205.5t125.5 -239t81 -265.5t28.5 -285z" />
    <glyph glyph-name="asterisk" unicode="*" horiz-adv-x="844" 
d="M707 971l-238 143l4 -278h-106l4 278l-238 -143l-51 90l242 133l-242 137l51 88l238 -143l-4 278h106l-4 -278l238 143l51 -88l-242 -137l242 -133z" />
    <glyph glyph-name="plus" unicode="+" horiz-adv-x="1272" 
d="M692 715v-434h-137v434h-430v135h430v430h137v-430h432v-135h-432z" />
    <glyph glyph-name="comma" unicode="," horiz-adv-x="662" 
d="M217 82q0 42 28 69t74 27q30 0 53 -12.5t38.5 -35t23.5 -53.5t8 -67q0 -45 -13 -95.5t-39.5 -101t-66.5 -97.5t-94 -83l-47 48q39 29 70 67t51 79t29 83t4 78q-57 -6 -88 21.5t-31 72.5z" />
    <glyph glyph-name="hyphen" unicode="-" horiz-adv-x="889" 
d="M102 590v131h684v-131h-684z" />
    <glyph glyph-name="period" unicode="." horiz-adv-x="639" 
d="M416 72q0 -41 -28 -69t-69 -28q-40 0 -68 28t-28 69q0 20 7.5 37.5t20.5 31t30.5 21.5t37.5 8t38 -8t31 -21.5t20.5 -31t7.5 -37.5z" />
    <glyph glyph-name="slash" unicode="/" horiz-adv-x="1161" 
d="M123 -410l-119 31l1038 1956l117 -29z" />
    <glyph glyph-name="zero" unicode="0" horiz-adv-x="1296" 
d="M1225 780q0 -88 -15.5 -182t-47.5 -183.5t-80 -169t-112 -140t-145.5 -95.5t-179.5 -35t-179 35t-144.5 95.5t-110.5 140t-78 169t-46 183.5t-15 182q0 89 16.5 182t48.5 180.5t80.5 165t113 135.5t144.5 92t176 34t176 -34t144 -92t111.5 -135.5t79 -165t47.5 -180.5
t16 -182zM1069 780q0 62 -11 134.5t-33 144t-56 138t-80.5 117t-105.5 81t-132 30.5q-74 0 -134 -30t-107 -80.5t-81.5 -116.5t-57 -138t-33.5 -144t-11 -136q0 -69 11 -145t33 -149.5t56 -140t81 -117t106.5 -80t132.5 -29.5q74 0 134 29.5t106.5 79.5t81 116t56.5 139.5
t33 150t11 146.5z" />
    <glyph glyph-name="one" unicode="1" horiz-adv-x="741" 
d="M315 0v1403h-239l37 141h360v-1544h-158z" />
    <glyph glyph-name="two" unicode="2" horiz-adv-x="1239" 
d="M1100 1106q0 -65 -15.5 -124.5t-45.5 -116t-73.5 -113t-99.5 -115.5l-458 -496h692v-141h-1002l-4 4l660 721q91 100 140.5 194.5t49.5 194.5q0 68 -23.5 125.5t-67.5 98.5t-107 64t-142 23q-70 0 -129 -23.5t-101 -66t-65.5 -102t-23.5 -131.5v-17h-156v17
q4 117 43.5 205t105.5 146t154 87t189 29q104 0 191.5 -34t151.5 -95.5t100 -146.5t36 -187z" />
    <glyph glyph-name="three" unicode="3" horiz-adv-x="1161" 
d="M1030 438q0 -99 -35 -183.5t-97 -147t-148.5 -97.5t-188.5 -35q-95 0 -179.5 31t-148.5 86.5t-101.5 132.5t-39.5 168v13h160v-13q5 -60 29 -110.5t63.5 -87.5t93 -57.5t117.5 -20.5q68 0 126 24.5t101 67.5t67.5 101.5t24.5 125.5q0 68 -24.5 124t-67 96t-100.5 62
t-125 23h-25v129h23q63 3 116.5 24.5t93 59.5t61.5 90t22 115q0 58 -20.5 108t-57.5 86.5t-89 57.5t-114 21q-60 0 -107.5 -18.5t-82 -52.5t-54.5 -81.5t-24 -105.5v-13h-152v13q7 90 39 162.5t86.5 124.5t131.5 80t174 28q91 0 168.5 -31.5t134 -86t88.5 -128t32 -158.5
q0 -57 -15 -109.5t-43.5 -97.5t-69.5 -81.5t-93 -61.5v-2q59 -23 105 -62t78.5 -89t49.5 -107.5t17 -116.5z" />
    <glyph glyph-name="four" unicode="4" horiz-adv-x="1231" 
d="M930 397v-397h-152v397h-743v54l815 1138h80v-1057h211v-135h-211zM778 1262h-8l-520 -727v-3h528v730z" />
    <glyph glyph-name="five" unicode="5" horiz-adv-x="1204" 
d="M1081 526q0 -117 -43 -218t-119 -175t-180.5 -116t-226.5 -42q-142 0 -263 61t-206 173l84 100q75 -90 171 -140t206 -50q88 0 164.5 30.5t132.5 85.5t88.5 130t32.5 165q0 82 -29 152.5t-81.5 123t-127 82.5t-166.5 30q-91 0 -179.5 -29.5t-168.5 -77.5l-8 6l166 727
h702v-141h-586l-100 -397q47 23 98 34t113 11q122 0 219.5 -39.5t165.5 -110t104.5 -166.5t36.5 -209z" />
    <glyph glyph-name="six" unicode="6" horiz-adv-x="1296" 
d="M1214 524q0 -106 -41.5 -205.5t-116.5 -175.5t-179.5 -122t-229.5 -46q-116 0 -218.5 41.5t-179.5 115t-122 173.5t-45 217q0 108 35 200.5t102 186.5l465 652l152 -48l-359 -491l4 -4q47 20 96 30.5t105 10.5q112 0 209 -42t169 -114.5t113 -170t41 -208.5zM1059 520
q0 84 -32.5 159t-88 130.5t-130.5 88t-159 32.5q-85 0 -160 -32.5t-130.5 -88t-88 -130.5t-32.5 -159t32.5 -158.5t88 -129.5t130.5 -87t160 -32q84 0 159 32t130.5 87t88 129.5t32.5 158.5z" />
    <glyph glyph-name="seven" unicode="7" horiz-adv-x="1231" 
d="M301 -12l-154 37l818 1378h-883v141h1130z" />
    <glyph glyph-name="eight" unicode="8" horiz-adv-x="1184" 
d="M1067 403q0 -94 -37 -172.5t-101 -135.5t-150.5 -88.5t-184.5 -31.5q-99 0 -185.5 31.5t-151 88.5t-101.5 135.5t-37 172.5q0 140 62.5 240.5t189.5 159.5v2q-51 25 -91.5 62.5t-69 83.5t-43.5 98t-15 106q0 89 33.5 165t92.5 131.5t140 86.5t176 31t175.5 -31t139 -86.5
t92 -131.5t33.5 -165q0 -54 -15.5 -106t-44 -98t-69 -83.5t-90.5 -62.5v-2q127 -59 189.5 -159.5t62.5 -240.5zM883 1149q0 59 -23 111.5t-62.5 91.5t-92 61.5t-111.5 22.5q-60 0 -113 -22.5t-92.5 -61.5t-62.5 -91.5t-23 -111.5t22.5 -111t62 -90.5t92.5 -61t114 -22.5
q60 0 112.5 22.5t92 61t62 90.5t22.5 111zM911 426q0 65 -25.5 121.5t-68.5 98.5t-100.5 66.5t-122.5 24.5q-66 0 -124 -24.5t-101.5 -66.5t-69 -98.5t-25.5 -121.5t25.5 -122t69 -99.5t101.5 -67t124 -24.5q65 0 122.5 24.5t100.5 67t68.5 99.5t25.5 122z" />
    <glyph glyph-name="nine" unicode="9" horiz-adv-x="1296" 
d="M1214 1016q0 -105 -35 -195t-100 -180l-467 -653l-149 47l358 489l-4 4q-48 -20 -95.5 -29.5t-103.5 -9.5q-111 0 -208.5 41.5t-169.5 114t-114 170t-42 209.5q0 116 44.5 215.5t122 173t181 115t221.5 41.5q119 0 221.5 -42t178 -116.5t118.5 -175.5t43 -219zM1061 1026
q0 84 -32.5 158t-88 129t-130 87t-159.5 32q-84 0 -159.5 -32t-131.5 -87t-89 -129t-33 -158t32.5 -158.5t89 -130t131.5 -87.5t160 -32q86 0 160.5 32t130 87.5t87.5 130t32 158.5z" />
    <glyph glyph-name="colon" unicode=":" horiz-adv-x="647" 
d="M422 893q0 -20 -8 -37.5t-21.5 -30.5t-31 -20.5t-37.5 -7.5q-41 0 -69 28t-28 68q0 20 7.5 37.5t20.5 31t31 21.5t38 8t37.5 -8t31 -21.5t21.5 -31t8 -37.5zM422 72q0 -20 -8 -38t-21.5 -31t-31 -20.5t-37.5 -7.5q-41 0 -69 28t-28 69q0 20 7.5 37.5t20.5 31t31 21.5
t38 8t37.5 -8t31 -21.5t21.5 -31t8 -37.5z" />
    <glyph glyph-name="semicolon" unicode=";" horiz-adv-x="647" 
d="M430 893q0 -40 -28 -68t-68 -28t-68 28t-28 68q0 20 7.5 37.5t20.5 31t30.5 21.5t37.5 8t37.5 -8t30.5 -21.5t20.5 -31t7.5 -37.5zM217 82q0 42 28 69t74 27q30 0 53 -12.5t38.5 -35t23.5 -53.5t8 -67q0 -45 -13 -95.5t-39.5 -101t-66.5 -97.5t-94 -83l-47 48
q39 29 70 67t51 79t29 83t4 78q-57 -6 -88 21.5t-31 72.5z" />
    <glyph glyph-name="less" unicode="&#x3c;" horiz-adv-x="1202" 
d="M369 780l669 -352l-71 -115l-854 457v16l854 455l73 -113z" />
    <glyph glyph-name="equal" unicode="=" horiz-adv-x="1272" 
d="M125 901v135h997v-135h-997zM125 524v135h997v-135h-997z" />
    <glyph glyph-name="greater" unicode="&#x3e;" horiz-adv-x="1237" 
d="M190 313l-71 115l669 352l-671 348l73 113l854 -455v-16z" />
    <glyph glyph-name="question" unicode="?" horiz-adv-x="1044" 
d="M967 1098q0 -104 -34.5 -189t-96.5 -146.5t-147.5 -97t-186.5 -40.5v-228h-150v346h60q95 2 170 26.5t127 69.5t79 110t27 147q0 75 -26 137t-72 106t-109.5 68.5t-138.5 24.5q-47 0 -91 -10t-82 -27.5t-68.5 -41.5t-49.5 -53l-78 86q23 42 59 75.5t83 57.5t102.5 37
t116.5 13q111 0 203.5 -35t160 -97.5t105 -149t37.5 -189.5zM528 76q0 -44 -28.5 -72.5t-71.5 -28.5q-40 0 -68 28.5t-28 72.5q0 20 7.5 37.5t20.5 31t30.5 21.5t37.5 8q21 0 39.5 -8t32 -21.5t21 -31t7.5 -37.5z" />
    <glyph glyph-name="at" unicode="@" horiz-adv-x="1776" 
d="M1702 860q0 -101 -26.5 -187.5t-73.5 -150t-111 -99.5t-139 -36q-97 0 -156 42t-76 124h-4q-19 -29 -50 -58t-70.5 -51.5t-87 -36.5t-99.5 -14q-67 0 -128 23t-106.5 65.5t-72.5 102.5t-27 135q0 98 33.5 179t91 139.5t133.5 91t160 32.5q49 0 91.5 -12.5t77 -34
t59.5 -50t40 -60.5h4l33 131h123l-94 -437q-11 -45 -7 -84t21.5 -67.5t47 -45t69.5 -16.5q60 0 106 29.5t77 80.5t47 120t16 149q0 127 -51 238t-142 194t-216.5 131t-274.5 48q-167 0 -304 -57.5t-235 -158t-151.5 -236t-53.5 -292.5q0 -144 54.5 -265t151.5 -209
t231 -137.5t294 -49.5q122 0 232.5 29.5t191.5 80.5v-106q-39 -23 -88.5 -41.5t-105 -31.5t-115.5 -19.5t-121 -6.5q-104 0 -206 22t-193.5 64.5t-169 106.5t-134 148t-88.5 188t-32 227q0 125 30.5 236t85 204t131 167t169 125.5t198 78.5t217.5 27q174 0 320 -53.5
t251 -148t163.5 -224.5t58.5 -283zM1118 836q0 -67 -19.5 -127.5t-56.5 -106t-89.5 -72t-118.5 -26.5q-52 0 -96 16.5t-75.5 46.5t-49 71.5t-17.5 92.5q0 69 23.5 128t64 102t95.5 67.5t118 24.5q48 0 89 -16.5t70 -46t45.5 -69t16.5 -85.5z" />
    <glyph glyph-name="A" unicode="A" horiz-adv-x="1370" 
d="M1192 0l-186 461h-652l-184 -461h-164l643 1585h76l639 -1585h-172zM682 1276h-2l-272 -680h546z" />
    <glyph glyph-name="B" unicode="B" horiz-adv-x="1163" 
d="M1077 436q0 -95 -32 -175t-94.5 -138t-154 -90.5t-210.5 -32.5h-426v1544h360q110 0 196 -27t145.5 -77.5t90.5 -123t31 -163.5q0 -109 -55 -196.5t-164 -135.5v-4q78 -18 136.5 -53.5t97.5 -85t59 -111.5t20 -131zM829 1149q0 128 -86 194t-251 66h-175v-547h199
q77 0 135.5 21t98 59t59.5 90.5t20 116.5zM922 442q0 64 -22.5 116.5t-68 90.5t-115 59t-163.5 21h-236v-594h240q95 0 164 23t113.5 64.5t66 97.5t21.5 122z" />
    <glyph glyph-name="C" unicode="C" horiz-adv-x="1473" 
d="M1364 143q-108 -78 -227 -123t-256 -45q-118 0 -224 28.5t-196 80.5t-162 125t-122.5 161.5t-77.5 190.5t-27 211t27.5 211t78.5 190.5t123.5 161.5t162.5 125t194.5 80.5t220.5 28.5q142 0 264 -44.5t221 -129.5v-191h-4q-42 48 -97 88t-118 68.5t-130.5 44.5t-135.5 16
q-138 0 -256.5 -49.5t-205 -136.5t-135.5 -206t-49 -257q0 -89 23 -171.5t65 -155t101.5 -131.5t131.5 -101.5t155.5 -66t173.5 -23.5q62 0 129 15t131 42t120 65.5t97 86.5h4v-189v0z" />
    <glyph glyph-name="D" unicode="D" horiz-adv-x="1378" 
d="M1309 772q0 -106 -25.5 -205t-74 -184.5t-117.5 -156t-156 -121t-190.5 -78t-219.5 -27.5h-366v1544h366q114 0 216 -27t189 -76.5t157 -119t119 -155.5t75.5 -185.5t26.5 -208.5zM1145 772q0 128 -40.5 242.5t-121.5 200.5t-202.5 137t-282.5 51h-181v-1262h181
q161 0 282 51t202 137t122 201t41 242z" />
    <glyph glyph-name="E" unicode="E" horiz-adv-x="1055" 
d="M160 0v1544h764v-141h-607v-518h590v-137h-590v-607h607v-141h-764z" />
    <glyph glyph-name="F" unicode="F" horiz-adv-x="948" 
d="M317 1403v-506h496v-141h-496v-756h-157v1544h674v-141h-517z" />
    <glyph glyph-name="G" unicode="G" horiz-adv-x="1677" 
d="M1606 768q0 -80 -7 -151.5t-25 -137t-49.5 -126t-80.5 -117.5q-109 -128 -260.5 -194.5t-329.5 -66.5q-111 0 -212.5 29t-189 81.5t-158 125.5t-120.5 160.5t-77 188t-27 206.5q0 111 27.5 214t78 192.5t122 162.5t159.5 125t191 80.5t216 28.5q111 0 211 -25t187 -72.5
t160 -116.5t130 -157l-135 -80q-97 146 -237 226.5t-322 80.5q-87 0 -167.5 -24t-150 -68t-126 -104t-97 -133t-62.5 -155t-22 -169q0 -89 22 -172t62.5 -155.5t98 -132.5t128 -103t152.5 -66.5t172 -23.5q111 0 212.5 36t179 103t125.5 161.5t53 211.5h-510v137h678v0z" />
    <glyph glyph-name="H" unicode="H" horiz-adv-x="1499" 
d="M1184 0v764h-867v-764h-157v1544h157v-643h867v643h159v-1544h-159z" />
    <glyph glyph-name="I" unicode="I" horiz-adv-x="475" 
d="M160 0v1544h157v-1544h-157z" />
    <glyph glyph-name="J" unicode="J" horiz-adv-x="737" 
d="M592 354q0 -100 -20 -172t-59.5 -118t-97.5 -67.5t-134 -21.5q-79 0 -145 34.5t-111 109.5l63 112q37 -60 81 -86t101 -26q45 0 76 12.5t50.5 42t28.5 77t9 116.5v1177h158v-1190v0z" />
    <glyph glyph-name="K" unicode="K" horiz-adv-x="1229" 
d="M1032 0l-680 723l-35 -33v-690h-157v1544h157v-708h2l680 708h197l-719 -741l760 -803h-205z" />
    <glyph glyph-name="L" unicode="L" horiz-adv-x="834" 
d="M160 0v1544h157v-1403h494v-141h-651z" />
    <glyph glyph-name="M" unicode="M" horiz-adv-x="1872" 
d="M1686 0l-230 1196h-4l-502 -1237h-37l-495 1237h-4l-234 -1196h-157l317 1585h82l514 -1288l520 1288h84l309 -1585h-163z" />
    <glyph glyph-name="N" unicode="N" horiz-adv-x="1669" 
d="M1434 -39l-1115 1272h-2v-1233h-157v1561h76l1116 -1268h2v1251h157v-1583h-77z" />
    <glyph glyph-name="O" unicode="O" horiz-adv-x="1755" 
d="M1683 772q0 -109 -28 -211t-79.5 -190.5t-124 -161.5t-162 -125t-193 -80.5t-217.5 -28.5q-116 0 -221 28.5t-194.5 80.5t-162.5 125t-124 161.5t-79 190.5t-28 211t28 211t79.5 190.5t124.5 161.5t162.5 125t194 80.5t218.5 28.5t217.5 -28.5t193 -80.5t162.5 -125
t125 -161.5t80 -190t28 -211.5zM1524 772q0 134 -51 252.5t-139 207.5t-205.5 141t-251.5 52q-138 0 -256.5 -50t-205 -138t-135.5 -207.5t-49 -257.5q0 -89 23 -172t65 -155.5t101 -132.5t131 -103t155 -66.5t173 -23.5q137 0 255 49.5t204.5 136.5t136 206.5t49.5 260.5z
" />
    <glyph glyph-name="P" unicode="P" horiz-adv-x="1044" 
d="M985 1116q0 -94 -30 -173t-88.5 -135.5t-145.5 -88t-201 -31.5h-203v-688h-157v1544h358q114 0 201.5 -31.5t146.5 -88t89 -135t30 -173.5zM827 1116q0 67 -19.5 120.5t-60 91t-104 57.5t-151.5 20h-175v-580h175q88 0 151.5 20.5t104 58.5t60 91.5t19.5 120.5z" />
    <glyph glyph-name="Q" unicode="Q" horiz-adv-x="1755" 
d="M1683 772q0 -159 -57.5 -300.5t-161.5 -248.5l217 -231h-180l-68 72q-13 14 -25 26.5t-22 22.5l-16 16l-6 6q-100 -75 -223 -117.5t-262 -42.5q-116 0 -221 28.5t-194.5 80.5t-162.5 125t-124 161.5t-79 190.5t-28 211t28 211t79.5 190.5t124.5 161.5t162.5 125t194 80.5
t218.5 28.5t217.5 -28.5t193 -80.5t162.5 -125t125 -161.5t80 -190t28 -211.5zM1524 772q0 134 -51 252.5t-139 207.5t-205.5 141t-251.5 52q-138 0 -256.5 -50t-205 -138t-135.5 -207.5t-49 -257.5q0 -89 23 -172t65 -155.5t101 -132.5t131 -103t155 -66.5t173 -23.5
q109 0 206.5 33t178.5 92l-367 393h180l281 -303q77 85 121.5 196t44.5 242z" />
    <glyph glyph-name="R" unicode="R" horiz-adv-x="1073" 
d="M844 0l-486 705h-41v-705h-157v1544h286q131 0 226.5 -29t157.5 -83t92 -132.5t30 -177.5q0 -87 -27.5 -159t-81 -124.5t-132.5 -85t-183 -40.5l498 -713h-182zM791 1116q0 72 -21.5 126.5t-68.5 91.5t-120.5 56t-177.5 19h-86v-580h127q85 0 149.5 20t108.5 57t66.5 90
t22.5 120z" />
    <glyph glyph-name="S" unicode="S" horiz-adv-x="1108" 
d="M1014 424q0 -89 -33.5 -170.5t-95.5 -143.5t-150 -98.5t-198 -36.5q-86 0 -162.5 22.5t-139 63.5t-109.5 99t-75 129l103 90q26 -61 65.5 -109.5t89 -82.5t108 -52t122.5 -18q73 0 131 24t98.5 65.5t62 95.5t21.5 114q0 51 -13.5 93.5t-43.5 80t-77.5 71t-115.5 64.5
l-117 55q-73 33 -133.5 70.5t-104.5 85t-68.5 106.5t-24.5 134q0 83 31 154t86 123.5t130 82t162 29.5q69 0 130.5 -15t113.5 -42.5t95 -66t75 -85.5l-94 -103q-28 37 -62 68.5t-73.5 54t-84 35t-94.5 12.5q-56 0 -103 -16.5t-81 -46.5t-53 -73t-19 -97q0 -51 15 -90
t47.5 -72t83 -63t121.5 -62l112 -51q85 -38 146 -82t100 -96t57.5 -113.5t18.5 -136.5z" />
    <glyph glyph-name="T" unicode="T" horiz-adv-x="969" 
d="M561 1403v-1403h-160v1403h-385v141h930v-141h-385z" />
    <glyph glyph-name="U" unicode="U" horiz-adv-x="1399" 
d="M1253 555q0 -140 -35.5 -248.5t-105.5 -182.5t-173.5 -112.5t-238.5 -38.5q-133 0 -236.5 39.5t-174.5 114.5t-107.5 183t-36.5 245v989h160v-956q0 -243 100.5 -357t305.5 -114q101 0 173.5 28t119.5 86t69.5 147t22.5 210v956h157v-989v0z" />
    <glyph glyph-name="V" unicode="V" horiz-adv-x="1319" 
d="M680 -41h-49l-629 1585h174l483 -1255h5l485 1255h168z" />
    <glyph glyph-name="W" unicode="W" horiz-adv-x="2075" 
d="M1577 -41h-86l-449 1288h-4l-465 -1288h-84l-479 1585h162l369 -1245h4l463 1266h67l455 -1266h2l371 1245h161z" />
    <glyph glyph-name="X" unicode="X" horiz-adv-x="1165" 
d="M944 0l-360 655h-4l-365 -655h-174l457 788l-437 756h185l338 -622h4l346 622h180l-444 -756l452 -788h-178z" />
    <glyph glyph-name="Y" unicode="Y" horiz-adv-x="1208" 
d="M684 649v-649h-160v649l-524 895h182l424 -743h4l418 743h180z" />
    <glyph glyph-name="Z" unicode="Z" horiz-adv-x="1221" 
d="M297 141h862v-141h-1134l899 1403h-803v141h1075z" />
    <glyph glyph-name="bracketleft" unicode="[" horiz-adv-x="598" 
d="M127 -401v1960h393v-134h-246v-1693h246v-133h-393z" />
    <glyph glyph-name="backslash" unicode="\" horiz-adv-x="1153" 
d="M1040 -410l-1036 1958l115 29l1040 -1956z" />
    <glyph glyph-name="bracketright" unicode="]" horiz-adv-x="598" 
d="M78 -401v133h246v1693h-246v134h393v-1960h-393z" />
    <glyph glyph-name="underscore" unicode="_" horiz-adv-x="1024" 
d="M102 -385v135h820v-135h-820z" />
    <glyph glyph-name="grave" unicode="`" horiz-adv-x="653" 
d="M406 1153l-259 332h170l220 -332h-131z" />
    <glyph glyph-name="a" unicode="a" horiz-adv-x="1196" 
d="M924 0v172h-4q-23 -46 -62.5 -82.5t-88 -61.5t-102.5 -38t-108 -13q-108 0 -197 39.5t-153 109.5t-99.5 165.5t-35.5 206.5q0 107 35 200.5t98.5 162.5t153 109t198.5 40q55 0 107.5 -12.5t100 -36.5t86.5 -58.5t67 -79.5h4v164h149v-987h-149zM930 506q0 78 -25.5 146.5
t-72.5 120.5t-113.5 82t-147.5 30q-83 0 -148.5 -30.5t-111.5 -83t-70 -123.5t-24 -152q0 -78 25.5 -149t72.5 -125.5t114 -87t149 -32.5q85 0 150.5 33t110.5 89t68 129t23 153z" />
    <glyph glyph-name="b" unicode="b" horiz-adv-x="1208" 
d="M1137 502q0 -111 -35.5 -207t-99 -166.5t-152.5 -111t-197 -40.5q-54 0 -108.5 13t-102.5 37.5t-86.5 61t-62.5 83.5h-4v-172h-150v1692h150v-869h4q28 45 68 79.5t87.5 58.5t101 36.5t107.5 12.5q109 0 197.5 -39t151.5 -107.5t97 -161.5t34 -200zM995 498
q0 81 -24.5 152t-70 123t-111.5 82t-150 30q-81 0 -147.5 -30t-113 -82t-72 -120.5t-25.5 -146.5q0 -80 23 -153t68 -129t111 -89t152 -33q82 0 148.5 33t113.5 88t72.5 126.5t25.5 148.5z" />
    <glyph glyph-name="c" unicode="c" horiz-adv-x="993" 
d="M913 86q-71 -57 -152 -83t-177 -26q-108 0 -202.5 38t-165.5 106t-112 164t-41 211q0 111 40 205.5t110.5 163t166.5 107t208 38.5q91 0 169 -23.5t146 -79.5v-153q-26 27 -60 51t-74 42t-85.5 28t-93.5 10q-81 0 -151 -29.5t-122 -81t-82 -122.5t-30 -154t29.5 -155
t82 -125t123.5 -83.5t154 -30.5q103 0 181 37t138 99v-154v0z" />
    <glyph glyph-name="d" unicode="d" horiz-adv-x="1204" 
d="M918 0v172h-5q-27 -45 -65.5 -81t-86 -61.5t-100.5 -39t-108 -13.5q-110 0 -200 40t-153.5 110t-98.5 165t-35 204q0 107 33.5 201t96.5 163.5t153 109.5t202 40q54 0 106 -12.5t99 -36t87 -58t70 -78.5h5v867h151v-1692h-151zM926 506q0 76 -26 144t-73 119.5t-114 81.5
t-148 30t-146.5 -28.5t-111 -79.5t-70 -121t-24.5 -154q0 -77 25.5 -148t72 -126t113 -87.5t147.5 -32.5q86 0 152 33t111 88.5t68.5 128t23.5 152.5z" />
    <glyph glyph-name="e" unicode="e" horiz-adv-x="1108" 
d="M209 471q2 -86 31 -155.5t78.5 -118t115.5 -75t141 -26.5q111 0 192.5 54.5t135.5 146.5l125 -33q-31 -69 -78.5 -122.5t-108 -90t-131 -55.5t-147.5 -19q-114 0 -206 40t-157.5 109.5t-101 164t-35.5 203.5q0 107 36 201t101 164t156 110.5t201 40.5q117 0 208.5 -39
t154.5 -110t95.5 -170t31.5 -220h-838zM899 575q-11 68 -36 126t-66 101t-100.5 67t-139.5 24q-72 0 -132 -24.5t-105 -67.5t-72.5 -101t-34.5 -125h686v0z" />
    <glyph glyph-name="f" unicode="f" horiz-adv-x="563" 
d="M311 854v-854h-149v854h-113v133h113v389q0 89 22 153.5t61 106t93.5 61t118.5 19.5q21 0 51.5 -4.5t50.5 -13.5v-135q-40 18 -88 18q-38 0 -68 -11.5t-50.5 -38.5t-31 -71.5t-10.5 -111.5v-361h248v-133h-248z" />
    <glyph glyph-name="g" unicode="g" horiz-adv-x="1196" 
d="M1073 59q0 -150 -38 -259t-105.5 -179.5t-160.5 -104.5t-202 -34q-98 0 -185.5 26.5t-154.5 79t-109 130.5t-50 180h151q5 -67 34.5 -120.5t77 -90.5t108.5 -56.5t128 -19.5q104 0 172.5 33.5t109.5 95t58 148.5t17 194v90h-4q-23 -46 -62.5 -82.5t-88 -61.5t-102.5 -38
t-108 -13q-108 0 -197 39.5t-153 109.5t-99.5 165.5t-35.5 206.5q0 107 35 200.5t98.5 162.5t153 109t198.5 40q55 0 107.5 -12.5t100 -36.5t86.5 -58.5t67 -79.5h4v164h149v-928v0zM930 506q0 78 -25.5 146.5t-72.5 120.5t-113.5 82t-147.5 30q-82 0 -147.5 -30
t-111.5 -82.5t-70.5 -123.5t-24.5 -153q0 -76 25.5 -147t72.5 -126t114 -88t149 -33q85 0 150.5 33t110.5 89t68 129t23 153z" />
    <glyph glyph-name="h" unicode="h" horiz-adv-x="1059" 
d="M782 0v608q0 65 -11.5 116.5t-38 87.5t-70 55.5t-107.5 19.5t-113.5 -27.5t-83.5 -75.5t-51.5 -113.5t-17.5 -140.5v-530h-150v1692h150v-844h4q48 78 123.5 120t181.5 42q78 0 140 -24.5t105 -72t66 -117t23 -159.5v-637h-150z" />
    <glyph glyph-name="i" unicode="i" 
d="M332 1319q0 -19 -8 -36t-21 -30t-30.5 -20.5t-36.5 -7.5q-20 0 -38 7.5t-31 20.5t-20.5 30t-7.5 36q0 40 28 67t69 27q19 0 36.5 -7t30.5 -20t21 -30t8 -37zM160 0v987h149v-987h-149z" />
    <glyph glyph-name="j" unicode="j" 
d="M332 1319q0 -19 -8 -36t-21 -30t-30.5 -20.5t-36.5 -7.5q-20 0 -38 7.5t-31 20.5t-20.5 30t-7.5 36q0 40 28 67t69 27q19 0 36.5 -7t30.5 -20t21 -30t8 -37zM309 -174q0 -88 -21.5 -152.5t-60.5 -107t-93.5 -63.5t-119.5 -21q-23 0 -52.5 5t-49.5 13v135q22 -8 43.5 -13
t44.5 -5q38 0 68 11.5t50.5 39t31 72t10.5 110.5v1137h149v-1161v0z" />
    <glyph glyph-name="k" unicode="k" horiz-adv-x="928" 
d="M739 0l-417 481l-43 -39v-442h-150v1692h150v-1110l421 405h189l-457 -432l492 -555h-185z" />
    <glyph glyph-name="l" unicode="l" 
d="M160 0v1692h149v-1692h-149z" />
    <glyph glyph-name="m" unicode="m" horiz-adv-x="1581" 
d="M1303 0v618q0 143 -50 206t-157 63q-116 0 -171 -81.5t-55 -234.5v-571h-149v586q0 78 -11 135t-36 94.5t-65 55.5t-99 18q-108 0 -164.5 -87.5t-56.5 -266.5v-535h-150v987h150v-125h4q38 72 103.5 110t156.5 38t167.5 -43.5t121.5 -137.5q42 88 117.5 134.5t179.5 46.5
q160 0 237.5 -94t77.5 -267v-649h-151z" />
    <glyph glyph-name="n" unicode="n" horiz-adv-x="1051" 
d="M774 0v604q0 63 -10 115t-34.5 89.5t-67.5 58t-109 20.5q-64 0 -113 -27t-82.5 -75t-51 -113t-17.5 -140v-532h-150v987h150v-141h4q46 78 122.5 121t182.5 43q156 0 241 -95t85 -278v-637h-150z" />
    <glyph glyph-name="o" unicode="o" horiz-adv-x="1163" 
d="M1102 494q0 -109 -38 -203.5t-107 -164t-165.5 -109.5t-213.5 -40t-212 40t-162.5 109.5t-104 164t-36.5 203.5q0 110 38 204t106.5 163.5t165 109t213.5 39.5q118 0 213.5 -40t162.5 -110t103.5 -164t36.5 -202zM958 494q0 77 -25 147.5t-73 124.5t-117 86.5t-157 32.5
q-87 0 -157.5 -32t-120 -85.5t-76.5 -124.5t-27 -149t25 -149t73 -125t117.5 -86t157.5 -32q90 0 160.5 31.5t119 85.5t74.5 125t26 150z" />
    <glyph glyph-name="p" unicode="p" horiz-adv-x="1208" 
d="M1137 502q0 -111 -35.5 -207t-99 -166.5t-152.5 -111t-197 -40.5q-54 0 -107.5 12.5t-101 36t-86.5 57.5t-65 77h-4v-719h-150v1546h150v-153h4q30 42 70 75t87.5 55.5t100 34t106.5 11.5q109 0 197.5 -39t151.5 -107.5t97 -161.5t34 -200zM997 498q0 78 -25.5 148
t-72.5 122t-113 82.5t-147 30.5t-147.5 -29.5t-113 -80.5t-72 -119t-25.5 -146q0 -80 23 -152.5t68 -127.5t111 -87.5t152 -32.5q82 0 149 32.5t114 86.5t73 125t26 148z" />
    <glyph glyph-name="q" unicode="q" horiz-adv-x="1204" 
d="M918 -559v737h-5q-24 -48 -63 -85.5t-87.5 -63t-102.5 -39t-107 -13.5q-109 0 -199 39.5t-154 109.5t-99 164.5t-35 205.5q0 107 34.5 201t97.5 163.5t152.5 109.5t200.5 40q54 0 107 -12.5t100.5 -36.5t87.5 -59.5t67 -80.5h5v166h151v-1546h-151zM926 506q0 76 -26 144
t-73 119.5t-114 81.5t-148 30q-79 0 -143.5 -30t-110.5 -81.5t-71 -121.5t-25 -150q0 -79 24.5 -150.5t70 -125.5t111.5 -86t150 -32q86 0 152 33t111 88.5t68.5 128t23.5 152.5z" />
    <glyph glyph-name="r" unicode="r" horiz-adv-x="653" 
d="M592 844q-22 12 -50 18t-57 6q-94 0 -145 -90t-51 -280v-498h-150v987h150v-135h4q35 80 93.5 118t141.5 38q26 0 50 -6t47 -15l-33 -143v0z" />
    <glyph glyph-name="s" unicode="s" horiz-adv-x="815" 
d="M745 293q0 -69 -26 -127t-71.5 -100t-107 -65.5t-132.5 -23.5q-61 0 -115.5 16t-100 46t-82 72t-61.5 94l90 76q19 -38 46.5 -71.5t62 -59t75.5 -40t87 -14.5q44 0 79.5 15t60.5 40.5t38.5 58.5t13.5 69q0 43 -20.5 73.5t-54 53.5t-76.5 41t-87.5 36.5t-87.5 40t-76.5 51
t-54 70t-20.5 96.5q0 60 22.5 109.5t63 85t96 55t121.5 19.5q98 0 163.5 -37t113.5 -99l-82 -86q-36 48 -83.5 76.5t-109.5 28.5q-37 0 -67 -12t-51 -32.5t-32.5 -47.5t-11.5 -58q0 -36 20.5 -61t54 -45t76.5 -37t87.5 -35.5t87.5 -41.5t76.5 -54.5t54 -74t20.5 -101.5z" />
    <glyph glyph-name="t" unicode="t" horiz-adv-x="553" 
d="M344 854v-854h-149v854h-111v133h111v340h149v-340h178v-133h-178z" />
    <glyph glyph-name="u" unicode="u" horiz-adv-x="1036" 
d="M909 397q0 -210 -98 -315t-291 -105q-100 0 -174 29.5t-122 84.5t-71.5 132.5t-23.5 173.5v590h150v-569q0 -67 10 -125.5t37.5 -101t75 -67t122.5 -24.5t121 24t71.5 66.5t34.5 101t9 126.5v569h149v-590v0z" />
    <glyph glyph-name="v" unicode="v" horiz-adv-x="967" 
d="M508 -43h-49l-457 1030h162l321 -764h4l320 764h156z" />
    <glyph glyph-name="w" unicode="w" horiz-adv-x="1608" 
d="M1176 -43h-60l-313 776l-311 -776h-64l-426 1030h156l307 -756h4l311 781h51l312 -781h6l303 756h156z" />
    <glyph glyph-name="x" unicode="x" horiz-adv-x="924" 
d="M748 0l-289 403h-4l-281 -403h-170l373 508l-350 479h174l262 -371h4l258 371h170l-350 -473l375 -514h-172z" />
    <glyph glyph-name="y" unicode="y" horiz-adv-x="1030" 
d="M354 -559h-153l252 573l-471 973h165l381 -813h4l345 813h159z" />
    <glyph glyph-name="z" unicode="z" horiz-adv-x="965" 
d="M279 131h649v-131h-916l662 854h-580v133h846z" />
    <glyph glyph-name="braceleft" unicode="{" horiz-adv-x="635" 
d="M553 -410q-84 0 -146 19t-102.5 59.5t-60 104t-19.5 153.5v393q0 39 -9.5 72t-28 57t-45 38t-60.5 14v157q34 0 60.5 14t45 38.5t28 58t9.5 72.5v389q0 90 19.5 153.5t60 104t102.5 59.5t146 19v-133q-53 0 -87.5 -11t-55 -37t-29 -70t-8.5 -110v-356q0 -59 -8 -102.5
t-25.5 -75t-45.5 -52.5t-69 -36v-7q41 -14 69 -35t45.5 -52.5t25.5 -75.5t8 -103v-358q0 -66 8.5 -109.5t29 -70t55 -37t87.5 -10.5v-134v0z" />
    <glyph glyph-name="bar" unicode="|" horiz-adv-x="655" 
d="M258 -410v2071h139v-2071h-139z" />
    <glyph glyph-name="braceright" unicode="}" horiz-adv-x="635" 
d="M553 500q-34 0 -60.5 -14t-45 -38t-28 -57t-9.5 -72v-393q0 -90 -19.5 -153.5t-60 -104t-102.5 -59.5t-146 -19v134q53 0 87.5 10.5t55 37t29 70t8.5 109.5v358q0 59 8 103t25.5 75.5t45.5 52.5t69 35v7q-41 15 -69 36t-45.5 52.5t-25.5 75t-8 102.5v356q0 66 -8.5 110
t-29 70t-55 37t-87.5 11v133q84 0 146 -19t102.5 -59.5t60 -104t19.5 -153.5v-389q0 -39 9.5 -72.5t28 -58t45 -38.5t60.5 -14v-157v0z" />
    <glyph glyph-name="asciitilde" unicode="~" horiz-adv-x="944" 
d="M795 874q0 -56 -14.5 -94t-40.5 -61.5t-62 -34t-78 -10.5q-31 0 -66.5 13t-71 28t-69.5 28t-63 13q-80 0 -80 -84h-105q0 56 14.5 94t40 61.5t61 34t77.5 10.5q36 0 70.5 -13t68 -29t66.5 -29t65 -13q41 0 60.5 22t19.5 64h107v0z" />
    <glyph glyph-name="nonbreakingspace" unicode="&#xa0;" horiz-adv-x="518" 
 />
    <glyph glyph-name="exclamdown" unicode="&#xa1;" horiz-adv-x="680" 
d="M438 891q0 -21 -8 -38.5t-21.5 -31t-31 -21t-37.5 -7.5q-42 0 -71 28t-29 70t29 71t71 29q20 0 37.5 -8t31 -21.5t21.5 -31.5t8 -39zM268 -578v1143h144v-1143h-144z" />
    <glyph glyph-name="cent" unicode="&#xa2;" horiz-adv-x="1110" 
d="M981 371q-66 -54 -141 -80t-160 -29v-233h-121v239q-91 16 -170 61t-136.5 112t-90.5 153t-33 184t32.5 183.5t90 152.5t136.5 112t173 60v234h121v-226q82 -3 154 -27t135 -75v-158q-53 56 -135 90.5t-181 34.5q-81 0 -149.5 -27.5t-118.5 -78t-78 -120t-28 -153.5
q0 -79 28.5 -149t79 -122t120.5 -82t153 -30q104 0 181 37t138 98v-161v0z" />
    <glyph glyph-name="sterling" unicode="&#xa3;" horiz-adv-x="1169" 
d="M1137 158q-59 -93 -144.5 -138t-185.5 -45q-71 0 -120 11.5t-93 25.5t-92 25.5t-117 11.5q-43 0 -96.5 -13t-124.5 -44l-53 139q80 37 143.5 80t107 91.5t65.5 103t19 114.5h-264v111h238q-12 35 -30.5 66.5t-41 62.5t-46.5 63t-46 66q-37 57 -61.5 122t-24.5 152
q0 81 33 154.5t91 129.5t137.5 89t172.5 33q95 0 172 -32t132.5 -88t86 -131t31.5 -161v-12h-149v12q-1 59 -21.5 110t-57 88t-88 58t-114.5 21q-58 0 -108.5 -22.5t-88.5 -61t-60 -88.5t-22 -105q0 -35 7.5 -67.5t20 -63t30 -60.5t37.5 -61q24 -37 50 -71.5t48.5 -68.5
t40 -67t24.5 -67h283v-111h-258q5 -49 -6 -96t-37.5 -90t-66 -82t-91.5 -72q83 0 134.5 -10t90.5 -22.5t77 -22.5t94 -10q77 0 145 38.5t113 104.5l84 -100v0z" />
    <glyph glyph-name="currency" unicode="&#xa4;" horiz-adv-x="1294" 
d="M354 889q-2 -28 -3 -56t-1 -59q0 -62 6 -121h672v-114h-651q23 -102 68.5 -180t108.5 -131t141.5 -80t168.5 -27q51 0 104.5 11t102.5 30.5t91.5 46t72.5 57.5h2v-172q-31 -24 -74 -45t-92.5 -37t-102.5 -25.5t-104 -9.5q-124 0 -231.5 36t-192.5 107t-143.5 176
t-85.5 243h-180v114h166q-2 28 -3 58t-1 61t1 60t3 57h-166v115h180q27 139 85.5 244.5t143 177t191.5 107.5t231 36q52 0 105.5 -9.5t103 -25t92.5 -37t74 -45.5v-174h-2q-31 32 -73.5 59t-91.5 46t-102.5 29.5t-105.5 10.5q-90 0 -169 -27t-142 -80t-108.5 -131
t-69.5 -181h655v-115h-674v0z" />
    <glyph glyph-name="yen" unicode="&#xa5;" horiz-adv-x="1358" 
d="M1284 1544q-131 -223 -234 -399q-44 -75 -86 -147t-75 -128t-53.5 -90.5l-20.5 -34.5h363v-120h-418v-150h418v-119h-418v-356h-158v356h-416v119h416v150h-416v120h359l-469 799h182l424 -743h4l418 743h180v0z" />
    <glyph glyph-name="section" unicode="&#xa7;" horiz-adv-x="1249" 
d="M1026 592q0 -129 -68 -221.5t-200 -130.5q71 -31 117 -66t73 -75t38 -85t11 -96q0 -68 -25.5 -128.5t-74.5 -105.5t-120 -71.5t-163 -26.5q-58 0 -114 13t-106 37.5t-92 59t-73 77.5l95 98q24 -33 56.5 -60t70 -46.5t78.5 -30t81 -10.5q112 0 173 53t61 149
q0 54 -25.5 92t-67.5 68t-95.5 54.5t-109.5 51t-109.5 58t-95.5 75.5t-67.5 103t-25.5 141q0 128 70 220t198 131q-138 59 -197 136.5t-59 178.5q0 69 28 130t79 106t122 71.5t156 26.5q56 0 108 -12.5t98 -35.5t84 -55.5t66 -72.5l-92 -97q-45 62 -113 100t-149 38
q-109 0 -171 -52t-62 -151q0 -53 26.5 -90.5t69.5 -66.5t98 -52.5t112 -49.5t112 -57.5t98 -75.5t69.5 -104t26.5 -143zM883 580q0 50 -18.5 95.5t-52 80t-80 55t-101.5 20.5q-51 0 -95 -20t-75.5 -54t-49.5 -80t-18 -97t18 -97t50.5 -81t78.5 -55.5t103 -20.5q54 0 98 20.5
t75.5 55t49 80.5t17.5 98z" />
    <glyph glyph-name="dieresis" unicode="&#xa8;" horiz-adv-x="922" 
d="M760 1319q0 -19 -8 -36t-21 -30t-30.5 -20.5t-36.5 -7.5t-36.5 7.5t-30.5 20.5t-20.5 30t-7.5 36q0 20 7.5 37t20.5 30t30.5 20t36.5 7t36.5 -7t30.5 -20t21 -30t8 -37zM352 1319q0 -19 -8 -36t-21 -30t-30.5 -20.5t-36.5 -7.5q-20 0 -37 7.5t-30 20.5t-20 30t-7 36
q0 40 27 67t67 27q19 0 36.5 -7t30.5 -20t21 -30t8 -37z" />
    <glyph glyph-name="copyright" unicode="&#xa9;" horiz-adv-x="1665" 
d="M1647 772q0 -109 -28 -211t-80 -190.5t-125 -161.5t-163 -125t-193.5 -80.5t-217.5 -28.5q-116 0 -220.5 28.5t-194.5 80.5t-162.5 125t-123.5 161.5t-78.5 190.5t-27.5 211t28 211t79.5 190.5t124.5 161.5t162.5 125t193 80.5t217.5 28.5t218 -28.5t193.5 -80.5
t163 -125t125.5 -161.5t80.5 -190t28.5 -211.5zM1561 774q0 98 -25.5 189.5t-72.5 170.5t-112.5 144.5t-145.5 112.5t-172.5 72.5t-192.5 25.5q-103 0 -196.5 -25t-174 -71.5t-145.5 -111.5t-111 -145t-71 -172.5t-25 -193.5q0 -98 25.5 -189.5t72 -170.5t111.5 -144.5
t145.5 -112.5t173 -72.5t193.5 -25.5q103 0 196.5 25t173.5 70.5t145.5 110.5t111.5 145t71 173t25 195zM1155 406q-63 -48 -133.5 -74.5t-151.5 -26.5q-104 0 -191.5 37t-151 101t-99 149t-35.5 182t36 182.5t99.5 149t150.5 100.5t189 37q84 0 157 -25.5t130 -76.5v-123
h-2q-23 27 -54.5 50t-68.5 40.5t-77.5 27t-80.5 9.5q-83 0 -151.5 -28t-117.5 -78t-76 -118t-27 -149q0 -78 28 -145t77.5 -117t117.5 -78.5t147 -28.5q38 0 78.5 9.5t78.5 26t71 39t55 48.5h2v-120v0z" />
    <glyph glyph-name="ordfeminine" unicode="&#xaa;" horiz-adv-x="842" 
d="M598 924v98h-4q-29 -57 -84.5 -85t-126.5 -28q-67 0 -124.5 25.5t-98.5 70.5t-64.5 106.5t-23.5 133.5q0 69 23 129.5t64 105.5t98.5 71t127.5 26q69 0 122 -26t87 -83h4v95h125v-639h-125zM602 1249q0 44 -14.5 83t-41.5 68.5t-65 46.5t-84 17q-48 0 -85.5 -17t-64 -47
t-40.5 -70.5t-14 -86.5q0 -43 14.5 -83t41.5 -70.5t65 -49t85 -18.5q48 0 86 18.5t64 49.5t39.5 72.5t13.5 86.5z" />
    <glyph glyph-name="guillemotleft" unicode="&#xab;" horiz-adv-x="893" 
d="M676 125l-309 379l309 377l88 -72l-250 -305l252 -305zM377 125l-309 379l309 377l90 -72l-250 -305l250 -305z" />
    <glyph glyph-name="logicalnot" unicode="&#xac;" horiz-adv-x="635" 
d="M553 688q-34 0 -60.5 -14t-45 -38t-28 -57.5t-9.5 -72.5v-391q0 -90 -19.5 -154t-60 -104.5t-102.5 -59t-146 -18.5v133q53 0 87.5 10.5t55 37t29 70t8.5 109.5v359q0 59 8 102.5t25.5 75t45.5 52.5t69 36v6q-41 15 -69 36t-45.5 52.5t-25.5 75t-8 102.5v357
q0 66 -8.5 109.5t-29 70t-55 37t-87.5 10.5v133q84 0 146 -18.5t102.5 -59t60 -104.5t19.5 -154v-391q0 -38 9.5 -71t28 -57t45 -38t60.5 -14v-158v0z" />
    <glyph glyph-name="registered" unicode="&#xae;" horiz-adv-x="1665" 
d="M1647 772q0 -109 -28 -211t-80 -190.5t-125 -161.5t-163 -125t-193.5 -80.5t-217.5 -28.5q-116 0 -220.5 28.5t-194.5 80.5t-162.5 125t-123.5 161.5t-78.5 190.5t-27.5 211t28 211t79.5 190.5t124.5 161.5t162.5 125t193 80.5t217.5 28.5t218 -28.5t193.5 -80.5
t163 -125t125.5 -161.5t80.5 -190t28.5 -211.5zM1561 774q0 98 -25.5 189.5t-72.5 170.5t-112.5 144.5t-145.5 112.5t-172.5 72.5t-192.5 25.5q-103 0 -196.5 -25t-174 -71.5t-145.5 -111.5t-111 -145t-71 -172.5t-25 -193.5q0 -98 25.5 -189.5t72 -170.5t111.5 -144.5
t145.5 -112.5t173 -72.5t193.5 -25.5q103 0 196.5 25t173.5 70.5t145.5 110.5t111.5 145t71 173t25 195zM1018 319l-287 416h-8v-416h-105v910h166q150 0 224.5 -65t74.5 -183q0 -103 -61.5 -167.5t-181.5 -74.5l297 -420h-119zM977 977q0 86 -51.5 124t-167.5 38h-35v-316
h63q94 0 142.5 37.5t48.5 116.5z" />
    <glyph glyph-name="macron" unicode="&#xaf;" horiz-adv-x="993" 
d="M154 1233v115h684v-115h-684z" />
    <glyph glyph-name="degree" unicode="&#xb0;" horiz-adv-x="819" 
d="M717 1262q0 -64 -24.5 -120t-66 -98t-97.5 -66t-119 -24q-64 0 -120 24t-98 66t-66 98t-24 120q0 63 24 119t66 97.5t98 66t120 24.5q63 0 119 -24.5t97.5 -66t66 -97.5t24.5 -119zM610 1262q0 41 -15.5 77.5t-42.5 63.5t-64 43t-80 16q-42 0 -78.5 -16t-63.5 -43
t-42.5 -63.5t-14.5 -77.5q0 -42 15.5 -79t42.5 -64t64 -42.5t79 -15.5t78.5 15.5t63.5 42.5t42.5 64t15.5 79z" />
    <glyph glyph-name="plusminus" unicode="&#xb1;" horiz-adv-x="1024" 
d="M102 705v135h820v-135h-820z" />
    <glyph glyph-name="twosuperior" unicode="&#xb2;" horiz-adv-x="768" 
d="M692 1276q0 -77 -35 -141.5t-98 -133.5q-2 -2 -20.5 -22t-45.5 -48.5t-58.5 -61t-58.5 -61t-46.5 -47.5t-22.5 -20h387v-123h-643l-2 3l381 415q60 66 91.5 121.5t31.5 114.5q0 36 -12 66.5t-35 52.5t-56 34.5t-75 12.5q-37 0 -68 -12t-53 -34.5t-34.5 -54.5t-12.5 -71
v-11h-135v11q2 72 26 127.5t65.5 93t99 57t124.5 19.5t123 -22t96.5 -60t63 -90.5t22.5 -114.5z" />
    <glyph glyph-name="threesuperior" unicode="&#xb3;" horiz-adv-x="731" 
d="M662 887q0 -61 -23 -114t-64 -91t-97 -60t-122 -22q-64 0 -119 21t-96 57.5t-64.5 85.5t-23.5 106v11h140v-11q2 -32 14 -59.5t33 -47.5t50 -31t64 -11q36 0 67.5 13.5t54 36.5t35.5 54.5t13 67.5q0 35 -13 65t-36 52t-55 34.5t-70 12.5h-26v92h28q35 1 63 13.5
t48.5 33.5t31.5 49.5t11 61.5q0 29 -11 54.5t-31 45t-47.5 30.5t-60.5 11q-65 0 -102.5 -38t-40.5 -97v-10h-129v10q2 57 22.5 103.5t57 79t88.5 50t117 17.5q59 0 109 -19t86 -52t56.5 -78.5t20.5 -98.5q0 -65 -33.5 -118.5t-93.5 -84.5v-2q35 -14 62.5 -38t46.5 -54
t29 -63.5t10 -67.5z" />
    <glyph glyph-name="acute" unicode="&#xb4;" horiz-adv-x="653" 
d="M260 1153h-133l219 332h170z" />
    <glyph glyph-name="mu" unicode="&#xb5;" horiz-adv-x="1102" 
d="M741 1354q0 108 -55.5 168.5t-159.5 60.5q-100 0 -157.5 -58t-57.5 -173v-365h430v367zM1069 987v-133h-178v-854h-150v854h-430v-854h-149v854h-113v133h113v375q0 81 25.5 146t72.5 111.5t115 71.5t153 25t152 -25t114 -71t72 -111.5t25 -146.5v-375h178z" />
    <glyph glyph-name="paragraph" unicode="&#xb6;" horiz-adv-x="1298" 
d="M903 0v1427h-186v-1427h-121v692q-97 9 -171.5 44t-124.5 90t-75.5 129t-25.5 161q0 95 30 173.5t89 135t146 88t202 31.5h358v-1544h-121z" />
    <glyph glyph-name="periodcentered" unicode="&#xb7;" horiz-adv-x="639" 
d="M416 772q0 -40 -28 -68t-69 -28q-40 0 -68 28t-28 68t28 68t68 28q41 0 69 -28t28 -68z" />
    <glyph glyph-name="cedilla" unicode="&#xb8;" horiz-adv-x="594" 
d="M199 -414l-84 52l200 301l115 -78z" />
    <glyph glyph-name="onesuperior" unicode="&#xb9;" horiz-adv-x="475" 
d="M184 618v799h-141l20 127h263v-926h-142z" />
    <glyph glyph-name="ordmasculine" unicode="&#xba;" horiz-adv-x="801" 
d="M737 1243q0 -71 -24.5 -132t-69.5 -106t-107.5 -70.5t-138.5 -25.5q-75 0 -136.5 25.5t-105.5 70.5t-68 106t-24 132q0 72 24.5 132.5t69.5 105t107.5 69.5t138.5 25q77 0 138.5 -25.5t105 -70t67 -105t23.5 -131.5zM614 1243q0 45 -14.5 85t-41.5 70t-66 48t-89 18
t-90 -18t-68.5 -48t-43.5 -70t-15 -85q0 -47 14.5 -87.5t42 -70.5t66.5 -47.5t88 -17.5q52 0 92.5 17.5t68 47.5t42 70.5t14.5 87.5z" />
    <glyph glyph-name="guillemotright" unicode="&#xbb;" horiz-adv-x="893" 
d="M516 125l-90 74l252 305l-250 305l88 72l309 -377zM217 125l-90 74l252 305l-250 305l88 72l309 -377z" />
    <glyph glyph-name="onequarter" unicode="&#xbc;" horiz-adv-x="1665" 
d="M184 618v799h-141l20 127h263v-926h-142zM315 -29h-118l993 1602h121zM1493 229v-229h-131v229h-438v56l465 663h104v-608h123v-111h-123zM1368 578v170h-4l-287 -410v-2h291v242z" />
    <glyph glyph-name="onehalf" unicode="&#xbd;" horiz-adv-x="1843" 
d="M184 618v799h-141l20 127h263v-926h-142zM315 -29h-118l993 1602h121zM1767 657q0 -77 -35 -141.5t-98 -132.5q-2 -2 -20.5 -22t-45.5 -48.5t-58 -61t-58.5 -61t-47 -47.5t-22.5 -20h387v-123h-643l-2 2l381 416q60 66 91.5 121t31.5 114q0 73 -46.5 119.5t-131.5 46.5
q-37 0 -67.5 -12t-53 -34.5t-35 -54.5t-12.5 -71v-10h-135v10q2 72 26 127.5t65.5 93t99 57t124.5 19.5t123 -22t96.5 -60t63 -90.5t22.5 -114.5z" />
    <glyph glyph-name="threequarters" unicode="&#xbe;" horiz-adv-x="1855" 
d="M662 887q0 -61 -23 -114t-64 -91t-97 -60t-122 -22q-64 0 -119 21t-96 57.5t-64.5 85.5t-23.5 106v11h140v-11q2 -32 14 -59.5t33 -47.5t50 -31t64 -11q36 0 67.5 13.5t54 36.5t35.5 54.5t13 67.5q0 35 -13 65t-36 52t-55 34.5t-70 12.5h-26v92h28q35 1 63 13.5
t48.5 33.5t31.5 49.5t11 61.5q0 29 -11 54.5t-31 45t-47.5 30.5t-60.5 11q-65 0 -102.5 -38t-40.5 -97v-10h-129v10q2 57 22.5 103.5t57 79t88.5 50t117 17.5q59 0 109 -19t86 -52t56.5 -78.5t20.5 -98.5q0 -65 -33.5 -118.5t-93.5 -84.5v-2q35 -14 62.5 -38t46.5 -54
t29 -63.5t10 -67.5zM506 -29h-121l995 1602h121zM1683 229v-229h-131v229h-440v56l467 663h104v-608h123v-111h-123zM1559 578v170h-5l-286 -410v-2h291v242z" />
    <glyph glyph-name="questiondown" unicode="&#xbf;" horiz-adv-x="1004" 
d="M700 891q0 -42 -28 -71t-70 -29t-70 29t-28 71t28 71t70 29t70 -29t28 -71zM932 -420q-22 -42 -58.5 -75.5t-83.5 -57.5t-102.5 -36.5t-116.5 -12.5q-111 0 -203.5 35t-159.5 97.5t-104.5 149t-37.5 189.5t34.5 187.5t96 146t147 97.5t186.5 40v229h148v-348h-57
q-95 -1 -170 -25t-127 -69.5t-79.5 -110.5t-27.5 -147q0 -75 26 -136.5t71.5 -105.5t108.5 -68t138 -24q48 0 92.5 10t82.5 27t68 41t48 53l80 -86v0z" />
    <glyph glyph-name="Agrave" unicode="&#xc0;" horiz-adv-x="1370" 
d="M1192 0l-186 461h-652l-184 -461h-164l643 1585h76l639 -1585h-172zM682 1276h-2l-272 -680h546zM637 1673l-258 332h170l219 -332h-131z" />
    <glyph glyph-name="Aacute" unicode="&#xc1;" horiz-adv-x="1370" 
d="M1192 0l-186 461h-652l-184 -461h-164l643 1585h76l639 -1585h-172zM682 1276h-2l-272 -680h546zM745 1673h-133l219 332h170z" />
    <glyph glyph-name="Acircumflex" unicode="&#xc2;" horiz-adv-x="1370" 
d="M1192 0l-186 461h-652l-184 -461h-164l643 1585h76l639 -1585h-172zM682 1276h-2l-272 -680h546zM883 1657l-195 248l-196 -248h-144l270 338h142l270 -338h-147z" />
    <glyph glyph-name="Atilde" unicode="&#xc3;" horiz-adv-x="1370" 
d="M1192 0l-186 461h-652l-184 -461h-164l643 1585h76l639 -1585h-172zM682 1276h-2l-272 -680h546zM1024 1933q0 -57 -13 -97.5t-38.5 -65.5t-62 -36.5t-83.5 -11.5q-32 0 -68 13t-72 29t-71 29t-65 13q-80 0 -80 -86h-115q0 58 14 98t40 65t63 36.5t82 11.5q37 0 72 -13.5
t69 -29.5t67 -29.5t66 -13.5q42 0 61 23t19 65h115v0z" />
    <glyph glyph-name="Adieresis" unicode="&#xc4;" horiz-adv-x="1370" 
d="M1192 0l-186 461h-652l-184 -461h-164l643 1585h76l639 -1585h-172zM682 1276h-2l-272 -680h546zM985 1823q0 -19 -8 -36t-21 -30t-30.5 -20.5t-36.5 -7.5t-36 7.5t-30 20.5t-20.5 30t-7.5 36q0 20 7.5 37t20.5 30t30 20t36 7t36.5 -7t30.5 -20t21 -30t8 -37zM578 1823
q0 -19 -8 -36t-21.5 -30t-31 -20.5t-36.5 -7.5q-20 0 -37 7.5t-30 20.5t-20 30t-7 36q0 40 27 67t67 27q19 0 36.5 -7t31 -20t21.5 -30t8 -37z" />
    <glyph glyph-name="Aring" unicode="&#xc5;" horiz-adv-x="1370" 
d="M1192 0l-186 461h-652l-184 -461h-164l633 1559q-66 11 -105.5 61t-39.5 121q0 41 14 76.5t39.5 61t61 40t79.5 14.5q45 0 80.5 -15t60.5 -40.5t38.5 -60.5t13.5 -76q0 -71 -40 -120.5t-108 -61.5l631 -1559h-172zM791 1741q0 45 -27.5 75.5t-75.5 30.5q-46 0 -74 -30.5
t-28 -75.5q0 -47 26 -77t74 -30q50 0 77.5 30t27.5 77zM682 1276h-2l-272 -680h546z" />
    <glyph glyph-name="AE" unicode="&#xc6;" horiz-adv-x="2071" 
d="M1176 0v461h-648l-354 -461h-184l1177 1544h775v-141h-609v-518h590v-137h-590v-607h609v-141h-766zM1176 1309h-2l-539 -713h541v713z" />
    <glyph glyph-name="Ccedilla" unicode="&#xc7;" horiz-adv-x="1473" 
d="M1364 143q-108 -78 -227 -123t-256 -45q-118 0 -224 28.5t-196 80.5t-162 125t-122.5 161.5t-77.5 190.5t-27 211t27.5 211t78.5 190.5t123.5 161.5t162.5 125t194.5 80.5t220.5 28.5q142 0 264 -44.5t221 -129.5v-191h-4q-42 48 -97 88t-118 68.5t-130.5 44.5t-135.5 16
q-138 0 -256.5 -49.5t-205 -136.5t-135.5 -206t-49 -257q0 -89 23 -171.5t65 -155t101.5 -131.5t131.5 -101.5t155.5 -66t173.5 -23.5q62 0 129 15t131 42t120 65.5t97 86.5h4v-189v0zM743 -444l-84 51l201 301l115 -78z" />
    <glyph glyph-name="Egrave" unicode="&#xc8;" horiz-adv-x="1055" 
d="M160 0v1544h764v-141h-607v-518h590v-137h-590v-607h607v-141h-764zM547 1651l-258 331h170l219 -331h-131z" />
    <glyph glyph-name="Eacute" unicode="&#xc9;" horiz-adv-x="1055" 
d="M160 0v1544h764v-141h-607v-518h590v-137h-590v-607h607v-141h-764zM547 1651h-133l219 331h170z" />
    <glyph glyph-name="Ecircumflex" unicode="&#xca;" horiz-adv-x="1055" 
d="M160 0v1544h764v-141h-607v-518h590v-137h-590v-607h607v-141h-764zM733 1651l-194 247l-197 -247h-143l270 338h141l271 -338h-148z" />
    <glyph glyph-name="Edieresis" unicode="&#xcb;" horiz-adv-x="1055" 
d="M160 0v1544h764v-141h-607v-518h590v-137h-590v-607h607v-141h-764zM838 1817q0 -19 -8 -36.5t-21 -30.5t-30.5 -20.5t-37.5 -7.5q-19 0 -36 7.5t-30 20.5t-20.5 30.5t-7.5 36.5q0 20 7.5 37t20.5 30t30 20t36 7q20 0 37.5 -7t30.5 -20t21 -30t8 -37zM430 1817
q0 -19 -8 -36.5t-21 -30.5t-30.5 -20.5t-36.5 -7.5q-20 0 -37 7.5t-30 20.5t-20 30.5t-7 36.5q0 40 27 67t67 27q19 0 36.5 -7t30.5 -20t21 -30t8 -37z" />
    <glyph glyph-name="Igrave" unicode="&#xcc;" horiz-adv-x="475" 
d="M160 0v1544h157v-1544h-157zM180 1651l-258 331h170l219 -331h-131z" />
    <glyph glyph-name="Iacute" unicode="&#xcd;" horiz-adv-x="475" 
d="M160 0v1544h157v-1544h-157zM297 1651h-133l219 331h170z" />
    <glyph glyph-name="Icircumflex" unicode="&#xce;" horiz-adv-x="475" 
d="M160 0v1544h157v-1544h-157zM434 1651l-194 247l-197 -247h-143l270 338h141l271 -338h-148z" />
    <glyph glyph-name="Idieresis" unicode="&#xcf;" horiz-adv-x="475" 
d="M160 0v1544h157v-1544h-157zM539 1817q0 -19 -8 -36.5t-21 -30.5t-30.5 -20.5t-37.5 -7.5q-19 0 -36 7.5t-30 20.5t-20.5 30.5t-7.5 36.5q0 20 7.5 37t20.5 30t30 20t36 7q20 0 37.5 -7t30.5 -20t21 -30t8 -37zM131 1817q0 -19 -8 -36.5t-21 -30.5t-30.5 -20.5
t-36.5 -7.5q-20 0 -37 7.5t-30 20.5t-20 30.5t-7 36.5q0 40 27 67t67 27q19 0 36.5 -7t30.5 -20t21 -30t8 -37z" />
    <glyph glyph-name="Eth" unicode="&#xd0;" horiz-adv-x="1378" 
d="M1309 772q0 -106 -25.5 -205t-74 -184.5t-117.5 -156t-156 -121t-190.5 -78t-219.5 -27.5h-366v705h-168v137h168v702h366q114 0 216 -27t189 -76.5t157 -119t119 -155.5t75.5 -185.5t26.5 -208.5zM1145 772q0 128 -40.5 242.5t-121.5 200.5t-202.5 137t-282.5 51h-181
v-561h330v-137h-330v-564h181q161 0 282 51t202 137t122 201t41 242z" />
    <glyph glyph-name="Ntilde" unicode="&#xd1;" horiz-adv-x="1669" 
d="M1434 -39l-1115 1272h-2v-1233h-157v1561h76l1116 -1268h2v1251h157v-1583h-77zM1153 1927q0 -57 -13 -97.5t-38.5 -65.5t-62 -36.5t-83.5 -11.5q-32 0 -68 13t-72 29t-71 29t-65 13q-40 0 -60 -22t-20 -64h-115q0 58 14 98t40 65t63 36.5t82 11.5q37 0 72 -13.5
t69 -29.5t67 -29.5t66 -13.5q42 0 61 23t19 65h115v0z" />
    <glyph glyph-name="Ograve" unicode="&#xd2;" horiz-adv-x="1755" 
d="M1683 772q0 -109 -28 -211t-79.5 -190.5t-124 -161.5t-162 -125t-193 -80.5t-217.5 -28.5q-116 0 -221 28.5t-194.5 80.5t-162.5 125t-124 161.5t-79 190.5t-28 211t28 211t79.5 190.5t124.5 161.5t162.5 125t194 80.5t218.5 28.5t217.5 -28.5t193 -80.5t162.5 -125
t125 -161.5t80 -190t28 -211.5zM1524 772q0 134 -51 252.5t-139 207.5t-205.5 141t-251.5 52q-138 0 -256.5 -50t-205 -138t-135.5 -207.5t-49 -257.5q0 -89 23 -172t65 -155.5t101 -132.5t131 -103t155 -66.5t173 -23.5q137 0 255 49.5t204.5 136.5t136 206.5t49.5 260.5z
M805 1673l-258 332h170l219 -332h-131z" />
    <glyph glyph-name="Oacute" unicode="&#xd3;" horiz-adv-x="1755" 
d="M1683 772q0 -109 -28 -211t-79.5 -190.5t-124 -161.5t-162 -125t-193 -80.5t-217.5 -28.5q-116 0 -221 28.5t-194.5 80.5t-162.5 125t-124 161.5t-79 190.5t-28 211t28 211t79.5 190.5t124.5 161.5t162.5 125t194 80.5t218.5 28.5t217.5 -28.5t193 -80.5t162.5 -125
t125 -161.5t80 -190t28 -211.5zM1524 772q0 134 -51 252.5t-139 207.5t-205.5 141t-251.5 52q-138 0 -256.5 -50t-205 -138t-135.5 -207.5t-49 -257.5q0 -89 23 -172t65 -155.5t101 -132.5t131 -103t155 -66.5t173 -23.5q137 0 255 49.5t204.5 136.5t136 206.5t49.5 260.5z
M922 1673h-134l220 332h170z" />
    <glyph glyph-name="Ocircumflex" unicode="&#xd4;" horiz-adv-x="1755" 
d="M1681 772q0 -109 -28 -211t-79.5 -190.5t-124 -161.5t-162 -125t-193 -80.5t-217.5 -28.5q-116 0 -221 28.5t-194.5 80.5t-162.5 125t-124 161.5t-79 190.5t-28 211t28 211t79.5 190.5t124.5 161.5t162.5 125t193.5 80.5t218 28.5t218 -28.5t193.5 -80.5t162.5 -125
t125 -161.5t80 -190t28 -211.5zM1522 772q0 89 -23 172t-65.5 155.5t-101.5 132.5t-131 103t-155 66.5t-172 23.5q-138 0 -256 -50t-204.5 -138t-135.5 -207.5t-49 -257.5q0 -89 23 -172t65 -155.5t101 -132.5t131 -103t155 -66.5t173 -23.5q137 0 255 49.5t204.5 136.5
t136 206.5t49.5 260.5zM1069 1657l-195 248l-196 -248h-143l270 338h141l271 -338h-148z" />
    <glyph glyph-name="Otilde" unicode="&#xd5;" horiz-adv-x="1755" 
d="M1683 772q0 -109 -28 -211t-79.5 -190.5t-124 -161.5t-162 -125t-193 -80.5t-217.5 -28.5q-116 0 -221 28.5t-194.5 80.5t-162.5 125t-124 161.5t-79 190.5t-28 211t28 211t79.5 190.5t124.5 161.5t162.5 125t194 80.5t218.5 28.5t217.5 -28.5t193 -80.5t162.5 -125
t125 -161.5t80 -190t28 -211.5zM1524 772q0 134 -51 252.5t-139 207.5t-205.5 141t-251.5 52q-138 0 -256.5 -50t-205 -138t-135.5 -207.5t-49 -257.5q0 -89 23 -172t65 -155.5t101 -132.5t131 -103t155 -66.5t173 -23.5q137 0 255 49.5t204.5 136.5t136 206.5t49.5 260.5z
M1186 1933q0 -57 -13 -97.5t-38.5 -65.5t-62 -36.5t-83.5 -11.5q-32 0 -68 13t-72 29t-71 29t-65 13q-80 0 -80 -86h-115q0 58 14 98t40 65t63 36.5t82 11.5q37 0 72 -13.5t69 -29.5t67 -29.5t66 -13.5q42 0 61 23t19 65h115v0z" />
    <glyph glyph-name="Odieresis" unicode="&#xd6;" horiz-adv-x="1755" 
d="M1683 772q0 -109 -28 -211t-79.5 -190.5t-124 -161.5t-162 -125t-193 -80.5t-217.5 -28.5q-116 0 -221 28.5t-194.5 80.5t-162.5 125t-124 161.5t-79 190.5t-28 211t28 211t79.5 190.5t124.5 161.5t162.5 125t194 80.5t218.5 28.5t217.5 -28.5t193 -80.5t162.5 -125
t125 -161.5t80 -190t28 -211.5zM1524 772q0 134 -51 252.5t-139 207.5t-205.5 141t-251.5 52q-138 0 -256.5 -50t-205 -138t-135.5 -207.5t-49 -257.5q0 -89 23 -172t65 -155.5t101 -132.5t131 -103t155 -66.5t173 -23.5q137 0 255 49.5t204.5 136.5t136 206.5t49.5 260.5z
M1171 1823q0 -19 -8 -36t-21 -30t-30.5 -20.5t-36.5 -7.5t-36 7.5t-30 20.5t-20.5 30t-7.5 36q0 20 7.5 37t20.5 30t30 20t36 7t36.5 -7t30.5 -20t21 -30t8 -37zM764 1823q0 -19 -8 -36t-21 -30t-30.5 -20.5t-36.5 -7.5q-20 0 -37.5 7.5t-30 20.5t-20 30t-7.5 36q0 40 27 67
t68 27q19 0 36.5 -7t30.5 -20t21 -30t8 -37z" />
    <glyph glyph-name="multiply" unicode="&#xd7;" horiz-adv-x="1272" 
d="M719 782l307 -307l-98 -96l-305 305l-306 -303l-96 94l305 305l-305 305l98 99l304 -305l305 305l96 -97z" />
    <glyph glyph-name="Oslash" unicode="&#xd8;" horiz-adv-x="1755" 
d="M1683 772q0 -109 -28 -211t-79.5 -190.5t-124 -161.5t-162 -125t-193 -80.5t-217.5 -28.5q-155 0 -288 50.5t-237 138.5q-30 -31 -62.5 -64t-59.5 -61q-32 -33 -62 -64l-78 78l180 187q-96 106 -149 241.5t-53 290.5q0 109 28 211t79.5 190.5t124.5 161.5t162.5 125
t194 80.5t218.5 28.5q148 0 277 -47.5t235 -132.5l182 188l84 -80l-180 -186q97 -107 152.5 -245t55.5 -294zM1284 1278q-83 68 -187.5 107.5t-219.5 39.5q-138 0 -256.5 -50t-205 -138t-135.5 -207.5t-49 -257.5q0 -119 40.5 -224t111.5 -192l901 922v0zM1524 772
q0 122 -43 229.5t-117 192.5q-252 -257 -451 -459q-56 -57 -111.5 -113.5t-106 -108t-93.5 -95t-74 -75.5t-49 -50.5l-18 -18.5q83 -72 190 -113.5t228 -41.5q137 0 255 49.5t204.5 136.5t136 206.5t49.5 260.5z" />
    <glyph glyph-name="Ugrave" unicode="&#xd9;" horiz-adv-x="1399" 
d="M1253 555q0 -140 -35.5 -248.5t-105.5 -182.5t-173.5 -112.5t-238.5 -38.5q-133 0 -236.5 39.5t-174.5 114.5t-107.5 183t-36.5 245v989h160v-956q0 -243 100.5 -357t305.5 -114q101 0 173.5 28t119.5 86t69.5 147t22.5 210v956h157v-989v0zM682 1651l-258 331h170
l219 -331h-131z" />
    <glyph glyph-name="Uacute" unicode="&#xda;" horiz-adv-x="1399" 
d="M1253 555q0 -140 -35.5 -248.5t-105.5 -182.5t-173.5 -112.5t-238.5 -38.5q-133 0 -236.5 39.5t-174.5 114.5t-107.5 183t-36.5 245v989h160v-956q0 -243 100.5 -357t305.5 -114q101 0 173.5 28t119.5 86t69.5 147t22.5 210v956h157v-989v0zM713 1651h-133l219 331h170z
" />
    <glyph glyph-name="Ucircumflex" unicode="&#xdb;" horiz-adv-x="1399" 
d="M1253 555q0 -140 -35.5 -248.5t-105.5 -182.5t-173.5 -112.5t-238.5 -38.5q-133 0 -236.5 39.5t-174.5 114.5t-107.5 183t-36.5 245v989h160v-956q0 -243 100.5 -357t305.5 -114q101 0 173.5 28t119.5 86t69.5 147t22.5 210v956h157v-989v0zM887 1651l-195 247l-196 -247
h-144l271 338h141l270 -338h-147z" />
    <glyph glyph-name="Udieresis" unicode="&#xdc;" horiz-adv-x="1399" 
d="M1253 555q0 -140 -35.5 -248.5t-105.5 -182.5t-173.5 -112.5t-238.5 -38.5q-133 0 -236.5 39.5t-174.5 114.5t-107.5 183t-36.5 245v989h160v-956q0 -243 100.5 -357t305.5 -114q101 0 173.5 28t119.5 86t69.5 147t22.5 210v956h157v-989v0zM1006 1817q0 -19 -8 -36.5
t-21 -30.5t-30.5 -20.5t-37.5 -7.5q-19 0 -36 7.5t-30 20.5t-20.5 30.5t-7.5 36.5q0 20 7.5 37t20.5 30t30 20t36 7q20 0 37.5 -7t30.5 -20t21 -30t8 -37zM598 1817q0 -19 -8 -36.5t-21 -30.5t-30.5 -20.5t-36.5 -7.5q-20 0 -37 7.5t-30 20.5t-20 30.5t-7 36.5q0 40 27 67
t67 27q19 0 36.5 -7t30.5 -20t21 -30t8 -37z" />
    <glyph glyph-name="Yacute" unicode="&#xdd;" horiz-adv-x="1208" 
d="M684 649v-649h-160v649l-524 895h182l424 -743h4l418 743h180zM637 1651h-133l219 331h170z" />
    <glyph glyph-name="Thorn" unicode="&#xde;" horiz-adv-x="1044" 
d="M985 772q0 -94 -30 -173t-88.5 -135.5t-145.5 -88t-201 -31.5h-203v-344h-157v1544h157v-344h201q114 0 201.5 -31.5t146.5 -88t89 -135t30 -173.5zM827 772q0 67 -19.5 121t-60 92t-104 58t-151.5 18h-175v-580h175q88 0 151.5 20.5t104 58.5t60 91.5t19.5 120.5z" />
    <glyph glyph-name="germandbls" unicode="&#xdf;" horiz-adv-x="1049" 
d="M983 293q0 -70 -24.5 -128t-69 -100t-106 -65t-136.5 -23q-62 0 -119 17.5t-102 46.5l51 113q38 -26 82.5 -42t87.5 -16q47 0 83 14.5t60.5 39.5t37 58.5t12.5 70.5q0 57 -30.5 96t-76.5 69.5t-99 58.5t-99 63.5t-76.5 84.5t-30.5 121q0 30 6 56.5t20 53t36.5 54.5
t56.5 61q66 62 105.5 109t61 86.5t28 75.5t6.5 78q0 111 -60.5 174t-167.5 63q-114 0 -173.5 -78t-59.5 -231v-1274h-148v1309q0 98 26 173.5t75.5 127.5t121 79t162.5 27q84 0 152 -26.5t116.5 -75t74.5 -116.5t26 -152q0 -53 -8.5 -98.5t-32 -91t-66.5 -96t-112 -114.5
q-31 -28 -51.5 -50.5t-31.5 -42t-15.5 -38t-4.5 -39.5q0 -46 30.5 -78.5t76.5 -60.5t99 -56t99 -66t76.5 -91t30.5 -131z" />
    <glyph glyph-name="agrave" unicode="&#xe0;" horiz-adv-x="1196" 
d="M924 0v172h-4q-23 -46 -62.5 -82.5t-88 -61.5t-102.5 -38t-108 -13q-108 0 -197 39.5t-153 109.5t-99.5 165.5t-35.5 206.5q0 107 35 200.5t98.5 162.5t153 109t198.5 40q55 0 107.5 -12.5t100 -36.5t86.5 -58.5t67 -79.5h4v164h149v-987h-149zM930 506q0 78 -25.5 146.5
t-72.5 120.5t-113.5 82t-147.5 30q-83 0 -148.5 -30.5t-111.5 -83t-70 -123.5t-24 -152q0 -78 25.5 -149t72.5 -125.5t114 -87t149 -32.5q85 0 150.5 33t110.5 89t68 129t23 153zM555 1153l-258 332h170l219 -332h-131z" />
    <glyph glyph-name="aacute" unicode="&#xe1;" horiz-adv-x="1196" 
d="M924 0v172h-4q-23 -46 -62.5 -82.5t-88 -61.5t-102.5 -38t-108 -13q-108 0 -197 39.5t-153 109.5t-99.5 165.5t-35.5 206.5q0 107 35 200.5t98.5 162.5t153 109t198.5 40q55 0 107.5 -12.5t100 -36.5t86.5 -58.5t67 -79.5h4v164h149v-987h-149zM930 506q0 78 -25.5 146.5
t-72.5 120.5t-113.5 82t-147.5 30q-83 0 -148.5 -30.5t-111.5 -83t-70 -123.5t-24 -152q0 -78 25.5 -149t72.5 -125.5t114 -87t149 -32.5q85 0 150.5 33t110.5 89t68 129t23 153zM629 1153h-133l219 332h170z" />
    <glyph glyph-name="acircumflex" unicode="&#xe2;" horiz-adv-x="1196" 
d="M924 0v172h-4q-23 -46 -62.5 -82.5t-88 -61.5t-102.5 -38t-108 -13q-108 0 -197 39.5t-153 109.5t-99.5 165.5t-35.5 206.5q0 107 35 200.5t98.5 162.5t153 109t198.5 40q55 0 107.5 -12.5t100 -36.5t86.5 -58.5t67 -79.5h4v164h149v-987h-149zM930 506q0 78 -25.5 146.5
t-72.5 120.5t-113.5 82t-147.5 30q-83 0 -148.5 -30.5t-111.5 -83t-70 -123.5t-24 -152q0 -78 25.5 -149t72.5 -125.5t114 -87t149 -32.5q85 0 150.5 33t110.5 89t68 129t23 153zM795 1153l-195 248l-197 -248h-143l270 338h142l270 -338h-147z" />
    <glyph glyph-name="atilde" unicode="&#xe3;" horiz-adv-x="1196" 
d="M924 0v172h-4q-23 -46 -62.5 -82.5t-88 -61.5t-102.5 -38t-108 -13q-108 0 -197 39.5t-153 109.5t-99.5 165.5t-35.5 206.5q0 107 35 200.5t98.5 162.5t153 109t198.5 40q55 0 107.5 -12.5t100 -36.5t86.5 -58.5t67 -79.5h4v164h149v-987h-149zM930 506q0 78 -25.5 146.5
t-72.5 120.5t-113.5 82t-147.5 30q-83 0 -148.5 -30.5t-111.5 -83t-70 -123.5t-24 -152q0 -78 25.5 -149t72.5 -125.5t114 -87t149 -32.5q85 0 150.5 33t110.5 89t68 129t23 153zM926 1430q0 -58 -13 -98t-38.5 -65t-62 -36.5t-83.5 -11.5q-32 0 -68 13t-72.5 29t-71 29
t-64.5 13q-41 0 -60.5 -22t-19.5 -64h-115q0 57 14 97t40 65t63 36.5t82 11.5q37 0 72 -13.5t69 -29.5t67 -29.5t66 -13.5q42 0 61 23.5t19 65.5h115v0z" />
    <glyph glyph-name="adieresis" unicode="&#xe4;" horiz-adv-x="1196" 
d="M924 0v172h-4q-23 -46 -62.5 -82.5t-88 -61.5t-102.5 -38t-108 -13q-108 0 -197 39.5t-153 109.5t-99.5 165.5t-35.5 206.5q0 107 35 200.5t98.5 162.5t153 109t198.5 40q55 0 107.5 -12.5t100 -36.5t86.5 -58.5t67 -79.5h4v164h149v-987h-149zM930 506q0 78 -25.5 146.5
t-72.5 120.5t-113.5 82t-147.5 30q-83 0 -148.5 -30.5t-111.5 -83t-70 -123.5t-24 -152q0 -78 25.5 -149t72.5 -125.5t114 -87t149 -32.5q85 0 150.5 33t110.5 89t68 129t23 153zM903 1319q0 -19 -8 -36t-21 -30t-30.5 -20.5t-36.5 -7.5t-36 7.5t-30 20.5t-20.5 30t-7.5 36
q0 20 7.5 37t20.5 30t30 20t36 7t36.5 -7t30.5 -20t21 -30t8 -37zM496 1319q0 -19 -8 -36t-21 -30t-30.5 -20.5t-37.5 -7.5t-37 7.5t-30 20.5t-20 30t-7 36q0 40 27 67t67 27q20 0 37.5 -7t30.5 -20t21 -30t8 -37z" />
    <glyph glyph-name="aring" unicode="&#xe5;" horiz-adv-x="1196" 
d="M924 0v172h-4q-23 -46 -62.5 -82.5t-88 -61.5t-102.5 -38t-108 -13q-108 0 -197 39.5t-153 109.5t-99.5 165.5t-35.5 206.5q0 107 35 200.5t98.5 162.5t153 109t198.5 40q55 0 107.5 -12.5t100 -36.5t86.5 -58.5t67 -79.5h4v164h149v-987h-149zM930 506q0 78 -25.5 146.5
t-72.5 120.5t-113.5 82t-147.5 30q-83 0 -148.5 -30.5t-111.5 -83t-70 -123.5t-24 -152q0 -78 25.5 -149t72.5 -125.5t114 -87t149 -32.5q85 0 150.5 33t110.5 89t68 129t23 153zM784 1313q0 -41 -14 -76t-39.5 -61t-61 -41t-79.5 -15q-45 0 -80.5 15t-60.5 41t-38.5 61
t-13.5 76q0 42 14 77.5t39.5 61.5t61.5 40.5t80 14.5q45 0 80.5 -15t60 -41t38 -61.5t13.5 -76.5zM692 1313q0 46 -26 76t-74 30t-76.5 -30t-28.5 -76q0 -45 26.5 -75t76.5 -30q49 0 75.5 30t26.5 75z" />
    <glyph glyph-name="ae" unicode="&#xe6;" horiz-adv-x="1835" 
d="M936 471q2 -86 31 -155.5t78.5 -118t116 -75t141.5 -26.5q111 0 192 54t135 147l125 -33q-31 -69 -78.5 -122.5t-108 -90t-131 -55.5t-147.5 -19q-143 0 -250.5 62t-167.5 168h-6q-23 -57 -64.5 -100t-95 -72t-114 -43.5t-121.5 -14.5q-47 0 -95 9t-92.5 26.5t-83.5 44.5
t-68 62.5t-45.5 80t-16.5 97.5q0 82 36 144.5t95 104.5t133.5 63.5t150.5 21.5q87 0 165.5 -29t129.5 -80l4 4q0 4 -0.5 23t-2 40.5t-3.5 39.5t-4 20q-5 125 -79 180.5t-208 55.5q-84 0 -158.5 -21.5t-150.5 -58.5v133q39 18 76 31.5t75 22.5t79.5 13.5t89.5 4.5
q65 0 123.5 -12.5t107.5 -38t87 -65.5t63 -95q0 1 1 1t1 -1q63 97 166 154t237 57q117 0 208.5 -39t154.5 -110t95.5 -170t31.5 -220h-838zM1626 575q-11 68 -36 126t-66 101t-100.5 67t-139.5 24q-72 0 -132 -24.5t-105 -67.5t-72.5 -101t-34.5 -125h686v0zM772 307
q0 53 -22.5 93t-60 66.5t-86 40t-101.5 13.5q-55 0 -107 -13t-92 -39.5t-64 -67t-24 -95.5q0 -56 25.5 -95.5t66 -65t90.5 -37t99 -11.5q44 0 93 14.5t89.5 42t67 66.5t26.5 88z" />
    <glyph glyph-name="ccedilla" unicode="&#xe7;" horiz-adv-x="993" 
d="M913 86q-71 -57 -152 -83t-177 -26q-108 0 -202.5 38t-165.5 106t-112 164t-41 211q0 111 40 205.5t110.5 163t166.5 107t208 38.5q91 0 169 -23.5t146 -79.5v-153q-26 27 -60 51t-74 42t-85.5 28t-93.5 10q-81 0 -151 -29.5t-122 -81t-82 -122.5t-30 -154t29.5 -155
t82 -125t123.5 -83.5t154 -30.5q103 0 181 37t138 99v-154v0zM469 -432l-84 51l201 301l114 -78z" />
    <glyph glyph-name="egrave" unicode="&#xe8;" horiz-adv-x="1108" 
d="M209 471q2 -86 31 -155.5t78.5 -118t115.5 -75t141 -26.5q111 0 192.5 54.5t135.5 146.5l125 -33q-31 -69 -78.5 -122.5t-108 -90t-131 -55.5t-147.5 -19q-114 0 -206 40t-157.5 109.5t-101 164t-35.5 203.5q0 107 36 201t101 164t156 110.5t201 40.5q117 0 208.5 -39
t154.5 -110t95.5 -170t31.5 -220h-838zM899 575q-11 68 -36 126t-66 101t-100.5 67t-139.5 24q-72 0 -132 -24.5t-105 -67.5t-72.5 -101t-34.5 -125h686v0zM514 1153l-258 332h170l219 -332h-131z" />
    <glyph glyph-name="eacute" unicode="&#xe9;" horiz-adv-x="1108" 
d="M209 471q2 -86 31 -155.5t78.5 -118t115.5 -75t141 -26.5q111 0 192.5 54.5t135.5 146.5l125 -33q-31 -69 -78.5 -122.5t-108 -90t-131 -55.5t-147.5 -19q-114 0 -206 40t-157.5 109.5t-101 164t-35.5 203.5q0 107 36 201t101 164t156 110.5t201 40.5q117 0 208.5 -39
t154.5 -110t95.5 -170t31.5 -220h-838zM899 575q-11 68 -36 126t-66 101t-100.5 67t-139.5 24q-72 0 -132 -24.5t-105 -67.5t-72.5 -101t-34.5 -125h686v0zM602 1153h-133l219 332h170z" />
    <glyph glyph-name="ecircumflex" unicode="&#xea;" horiz-adv-x="1108" 
d="M209 471q2 -86 31 -155.5t78.5 -118t115.5 -75t141 -26.5q111 0 192.5 54.5t135.5 146.5l125 -33q-31 -69 -78.5 -122.5t-108 -90t-131 -55.5t-147.5 -19q-114 0 -206 40t-157.5 109.5t-101 164t-35.5 203.5q0 107 36 201t101 164t156 110.5t201 40.5q117 0 208.5 -39
t154.5 -110t95.5 -170t31.5 -220h-838zM899 575q-11 68 -36 126t-66 101t-100.5 67t-139.5 24q-72 0 -132 -24.5t-105 -67.5t-72.5 -101t-34.5 -125h686v0zM768 1153l-195 248l-196 -248h-144l271 338h141l270 -338h-147z" />
    <glyph glyph-name="edieresis" unicode="&#xeb;" horiz-adv-x="1108" 
d="M209 471q2 -86 31 -155.5t78.5 -118t115.5 -75t141 -26.5q111 0 192.5 54.5t135.5 146.5l125 -33q-31 -69 -78.5 -122.5t-108 -90t-131 -55.5t-147.5 -19q-114 0 -206 40t-157.5 109.5t-101 164t-35.5 203.5q0 107 36 201t101 164t156 110.5t201 40.5q117 0 208.5 -39
t154.5 -110t95.5 -170t31.5 -220h-838zM899 575q-11 68 -36 126t-66 101t-100.5 67t-139.5 24q-72 0 -132 -24.5t-105 -67.5t-72.5 -101t-34.5 -125h686v0zM874 1317q0 -19 -8 -36t-21 -30t-30.5 -20.5t-36.5 -7.5t-36 7.5t-30 20.5t-20.5 30t-7.5 36q0 20 7.5 37t20.5 30
t30 20t36 7t36.5 -7t30.5 -20t21 -30t8 -37zM467 1317q0 -19 -8 -36t-21 -30t-30.5 -20.5t-36.5 -7.5q-20 0 -37.5 7.5t-30 20.5t-20 30t-7.5 36q0 40 27 67t68 27q19 0 36.5 -7t30.5 -20t21 -30t8 -37z" />
    <glyph glyph-name="igrave" unicode="&#xec;" 
d="M160 0v987h149v-987h-149zM174 1153l-258 332h170l219 -332h-131z" />
    <glyph glyph-name="iacute" unicode="&#xed;" 
d="M160 0v987h149v-987h-149zM276 1153h-133l219 332h170z" />
    <glyph glyph-name="icircumflex" unicode="&#xee;" 
d="M160 0v987h149v-987h-149zM428 1153l-195 248l-196 -248h-143l270 338h141l270 -338h-147z" />
    <glyph glyph-name="idieresis" unicode="&#xef;" 
d="M160 0v987h149v-987h-149zM539 1319q0 -19 -8 -36t-21 -30t-30.5 -20.5t-37.5 -7.5q-19 0 -36 7.5t-30 20.5t-20.5 30t-7.5 36q0 20 7.5 37t20.5 30t30 20t36 7q20 0 37.5 -7t30.5 -20t21 -30t8 -37zM131 1319q0 -19 -8 -36t-21 -30t-30.5 -20.5t-36.5 -7.5
q-20 0 -37 7.5t-30 20.5t-20 30t-7 36q0 40 27 67t67 27q19 0 36.5 -7t30.5 -20t21 -30t8 -37z" />
    <glyph glyph-name="eth" unicode="&#xf0;" horiz-adv-x="1163" 
d="M1102 516q0 -115 -37 -213.5t-105.5 -171t-165 -113.5t-216.5 -41q-117 0 -212 39t-162.5 108t-104 162t-36.5 201t38 201.5t106.5 162.5t163 108.5t207.5 39.5q51 0 101 -11t94.5 -31.5t82.5 -48.5t66 -62l2 2q-51 157 -124.5 284.5t-176.5 239.5l-10.5 -5.5t-27.5 -15
t-39.5 -21.5t-45.5 -25q-55 -30 -123 -68l-39 80l215 121q-43 38 -91.5 77t-101.5 76l76 101q68 -42 129 -88.5t115 -100.5l240 135l41 -79l-108 -60q-20 -11 -39.5 -22t-34.5 -19.5t-24.5 -14l-9.5 -5.5q84 -94 150.5 -199t112 -220.5t70 -241.5t24.5 -261zM958 487
q0 77 -25 147.5t-73 124.5t-117 86t-157 32q-87 0 -157.5 -31.5t-120 -85t-76.5 -124.5t-27 -149q0 -76 25 -146.5t73 -123.5t117.5 -85t157.5 -32q90 0 160.5 31t119 83.5t74.5 123t26 149.5z" />
    <glyph glyph-name="ntilde" unicode="&#xf1;" horiz-adv-x="1051" 
d="M774 0v604q0 63 -10 115t-34.5 89.5t-67.5 58t-109 20.5q-64 0 -113 -27t-82.5 -75t-51 -113t-17.5 -140v-532h-150v987h150v-141h4q46 78 122.5 121t182.5 43q156 0 241 -95t85 -278v-637h-150zM868 1430q0 -58 -13 -98t-38 -65t-61.5 -36.5t-83.5 -11.5q-32 0 -68 13
t-72.5 29t-71.5 29t-65 13q-40 0 -60 -22t-20 -64h-114q0 57 14 97t40 65t62.5 36.5t81.5 11.5q37 0 72.5 -13.5t69.5 -29.5t67 -29.5t66 -13.5q42 0 61 23.5t19 65.5h114v0z" />
    <glyph glyph-name="ograve" unicode="&#xf2;" horiz-adv-x="1163" 
d="M1102 494q0 -109 -38 -203.5t-107 -164t-165.5 -109.5t-213.5 -40t-212 40t-162.5 109.5t-104 164t-36.5 203.5q0 110 38 204t106.5 163.5t165 109t213.5 39.5q118 0 213.5 -40t162.5 -110t103.5 -164t36.5 -202zM958 494q0 77 -25 147.5t-73 124.5t-117 86.5t-157 32.5
q-87 0 -157.5 -32t-120 -85.5t-76.5 -124.5t-27 -149t25 -149t73 -125t117.5 -86t157.5 -32q90 0 160.5 31.5t119 85.5t74.5 125t26 150zM504 1153l-258 332h170l219 -332h-131z" />
    <glyph glyph-name="oacute" unicode="&#xf3;" horiz-adv-x="1163" 
d="M1102 494q0 -109 -38 -203.5t-107 -164t-165.5 -109.5t-213.5 -40t-212 40t-162.5 109.5t-104 164t-36.5 203.5q0 110 38 204t106.5 163.5t165 109t213.5 39.5q118 0 213.5 -40t162.5 -110t103.5 -164t36.5 -202zM958 494q0 77 -25 147.5t-73 124.5t-117 86.5t-157 32.5
q-87 0 -157.5 -32t-120 -85.5t-76.5 -124.5t-27 -149t25 -149t73 -125t117.5 -86t157.5 -32q90 0 160.5 31.5t119 85.5t74.5 125t26 150zM635 1153h-133l219 332h170z" />
    <glyph glyph-name="ocircumflex" unicode="&#xf4;" horiz-adv-x="1163" 
d="M1102 494q0 -109 -38 -203.5t-107 -164t-165.5 -109.5t-213.5 -40t-212 40t-162.5 109.5t-104 164t-36.5 203.5q0 110 38 204t106.5 163.5t165 109t213.5 39.5q118 0 213.5 -40t162.5 -110t103.5 -164t36.5 -202zM958 494q0 77 -25 147.5t-73 124.5t-117 86.5t-157 32.5
q-87 0 -157.5 -32t-120 -85.5t-76.5 -124.5t-27 -149t25 -149t73 -125t117.5 -86t157.5 -32q90 0 160.5 31.5t119 85.5t74.5 125t26 150zM776 1153l-194 248l-197 -248h-143l270 338h141l271 -338h-148z" />
    <glyph glyph-name="otilde" unicode="&#xf5;" horiz-adv-x="1163" 
d="M1102 494q0 -109 -38 -203.5t-107 -164t-165.5 -109.5t-213.5 -40t-212 40t-162.5 109.5t-104 164t-36.5 203.5q0 110 38 204t106.5 163.5t165 109t213.5 39.5q118 0 213.5 -40t162.5 -110t103.5 -164t36.5 -202zM958 494q0 77 -25 147.5t-73 124.5t-117 86.5t-157 32.5
q-87 0 -157.5 -32t-120 -85.5t-76.5 -124.5t-27 -149t25 -149t73 -125t117.5 -86t157.5 -32q90 0 160.5 31.5t119 85.5t74.5 125t26 150zM918 1430q0 -58 -13 -98t-38.5 -65t-62 -36.5t-83.5 -11.5q-32 0 -68 13t-72.5 29t-71.5 29t-65 13q-40 0 -59.5 -22t-19.5 -64h-115
q0 57 14 97t40 65t63 36.5t82 11.5q37 0 72 -13.5t69 -29.5t67 -29.5t66 -13.5q42 0 61 23.5t19 65.5h115v0z" />
    <glyph glyph-name="odieresis" unicode="&#xf6;" horiz-adv-x="1163" 
d="M1102 494q0 -109 -38 -203.5t-107 -164t-165.5 -109.5t-213.5 -40t-212 40t-162.5 109.5t-104 164t-36.5 203.5q0 110 38 204t106.5 163.5t165 109t213.5 39.5q118 0 213.5 -40t162.5 -110t103.5 -164t36.5 -202zM958 494q0 77 -25 147.5t-73 124.5t-117 86.5t-157 32.5
q-87 0 -157.5 -32t-120 -85.5t-76.5 -124.5t-27 -149t25 -149t73 -125t117.5 -86t157.5 -32q90 0 160.5 31.5t119 85.5t74.5 125t26 150zM885 1319q0 -19 -8 -36t-21 -30t-30.5 -20.5t-37.5 -7.5q-19 0 -36 7.5t-30 20.5t-20.5 30t-7.5 36q0 20 7.5 37t20.5 30t30 20t36 7
q20 0 37.5 -7t30.5 -20t21 -30t8 -37zM477 1319q0 -19 -8 -36t-21 -30t-30.5 -20.5t-36.5 -7.5q-20 0 -37 7.5t-30 20.5t-20 30t-7 36q0 40 27 67t67 27q19 0 36.5 -7t30.5 -20t21 -30t8 -37z" />
    <glyph glyph-name="divide" unicode="&#xf7;" horiz-adv-x="1272" 
d="M711 1171q0 -37 -25.5 -62.5t-62.5 -25.5q-38 0 -64.5 25.5t-26.5 62.5q0 38 26.5 64.5t64.5 26.5q37 0 62.5 -26.5t25.5 -64.5zM125 713v135h999v-135h-999zM711 389q0 -37 -25.5 -63.5t-62.5 -26.5q-38 0 -64.5 26.5t-26.5 63.5t26.5 62.5t64.5 25.5q37 0 62.5 -25.5
t25.5 -62.5z" />
    <glyph glyph-name="oslash" unicode="&#xf8;" horiz-adv-x="1163" 
d="M1102 494q0 -109 -38 -203.5t-107 -164t-165.5 -109.5t-213.5 -40q-100 0 -182.5 29t-147.5 82l-121 -123l-68 66l119 123q-56 68 -85.5 154t-29.5 186q0 110 38 204t106.5 163.5t165 109t213.5 39.5q97 0 178.5 -27t144.5 -78l105 107l69 -68l-102 -104
q59 -69 90 -157.5t31 -188.5zM815 805q-45 37 -101.5 58.5t-127.5 21.5q-87 0 -157.5 -32t-120 -85.5t-76.5 -124.5t-27 -149q0 -65 17.5 -126t51.5 -112l541 549v0zM958 494q0 66 -19 128t-56 113l-541 -547q45 -40 104 -63t132 -23q90 0 160.5 31.5t119 85.5t74.5 125
t26 150z" />
    <glyph glyph-name="ugrave" unicode="&#xf9;" horiz-adv-x="1036" 
d="M909 397q0 -210 -98 -315t-291 -105q-100 0 -174 29.5t-122 84.5t-71.5 132.5t-23.5 173.5v590h150v-569q0 -67 10 -125.5t37.5 -101t75 -67t122.5 -24.5t121 24t71.5 66.5t34.5 101t9 126.5v569h149v-590v0zM479 1153l-258 332h170l219 -332h-131z" />
    <glyph glyph-name="uacute" unicode="&#xfa;" horiz-adv-x="1036" 
d="M909 397q0 -210 -98 -315t-291 -105q-100 0 -174 29.5t-122 84.5t-71.5 132.5t-23.5 173.5v590h150v-569q0 -67 10 -125.5t37.5 -101t75 -67t122.5 -24.5t121 24t71.5 66.5t34.5 101t9 126.5v569h149v-590v0zM541 1153h-133l219 332h170z" />
    <glyph glyph-name="ucircumflex" unicode="&#xfb;" horiz-adv-x="1036" 
d="M909 397q0 -210 -98 -315t-291 -105q-100 0 -174 29.5t-122 84.5t-71.5 132.5t-23.5 173.5v590h150v-569q0 -67 10 -125.5t37.5 -101t75 -67t122.5 -24.5t121 24t71.5 66.5t34.5 101t9 126.5v569h149v-590v0zM717 1153l-195 248l-196 -248h-144l271 338h141l270 -338
h-147z" />
    <glyph glyph-name="udieresis" unicode="&#xfc;" horiz-adv-x="1036" 
d="M909 397q0 -210 -98 -315t-291 -105q-100 0 -174 29.5t-122 84.5t-71.5 132.5t-23.5 173.5v590h150v-569q0 -67 10 -125.5t37.5 -101t75 -67t122.5 -24.5t121 24t71.5 66.5t34.5 101t9 126.5v569h149v-590v0zM819 1319q0 -19 -8 -36t-21 -30t-30.5 -20.5t-36.5 -7.5
t-36 7.5t-30 20.5t-20.5 30t-7.5 36q0 20 7.5 37t20.5 30t30 20t36 7t36.5 -7t30.5 -20t21 -30t8 -37zM412 1319q0 -19 -8 -36t-21 -30t-30.5 -20.5t-37.5 -7.5t-37 7.5t-30 20.5t-20 30t-7 36q0 40 27 67t67 27q20 0 37.5 -7t30.5 -20t21 -30t8 -37z" />
    <glyph glyph-name="yacute" unicode="&#xfd;" horiz-adv-x="1030" 
d="M354 -559h-153l252 573l-471 973h165l381 -813h4l345 813h159zM557 1153h-133l219 332h170z" />
    <glyph glyph-name="thorn" unicode="&#xfe;" horiz-adv-x="1188" 
d="M1126 481q0 -109 -34 -201.5t-96 -159.5t-149 -105t-192 -38q-111 0 -205.5 45t-150.5 130h-4v-699h-148v2239h148v-879h4q26 42 65 75.5t86 56t99 34.5t104 12q108 0 195.5 -40t149 -109.5t95 -162.5t33.5 -198zM983 475q0 75 -24 144.5t-69 123t-109.5 85.5t-145.5 32
q-84 0 -148.5 -32.5t-109 -86.5t-67.5 -125t-23 -149q0 -76 25 -141.5t71 -113.5t111 -75.5t145 -27.5q78 0 141.5 30t108.5 80.5t69.5 116.5t24.5 139z" />
    <glyph glyph-name="ydieresis" unicode="&#xff;" horiz-adv-x="1030" 
d="M354 -559h-153l252 573l-471 973h165l381 -813h4l345 813h159zM817 1319q0 -19 -8 -36t-21 -30t-30.5 -20.5t-36.5 -7.5t-36 7.5t-30 20.5t-20.5 30t-7.5 36q0 20 7.5 37t20.5 30t30 20t36 7t36.5 -7t30.5 -20t21 -30t8 -37zM410 1319q0 -19 -8 -36t-21 -30t-30.5 -20.5
t-37.5 -7.5t-37 7.5t-30 20.5t-20 30t-7 36q0 40 27 67t67 27q20 0 37.5 -7t30.5 -20t21 -30t8 -37z" />
    <glyph glyph-name="Amacron" unicode="&#x100;" horiz-adv-x="1370" 
d="M1192 0l-186 461h-652l-184 -461h-164l643 1585h76l639 -1585h-172zM682 1276h-2l-272 -680h546zM340 1737v114h684v-114h-684z" />
    <glyph glyph-name="amacron" unicode="&#x101;" horiz-adv-x="1196" 
d="M924 0v172h-4q-23 -46 -62.5 -82.5t-88 -61.5t-102.5 -38t-108 -13q-108 0 -197 39.5t-153 109.5t-99.5 165.5t-35.5 206.5q0 107 35 200.5t98.5 162.5t153 109t198.5 40q55 0 107.5 -12.5t100 -36.5t86.5 -58.5t67 -79.5h4v164h149v-987h-149zM930 506q0 78 -25.5 146.5
t-72.5 120.5t-113.5 82t-147.5 30q-83 0 -148.5 -30.5t-111.5 -83t-70 -123.5t-24 -152q0 -78 25.5 -149t72.5 -125.5t114 -87t149 -32.5q85 0 150.5 33t110.5 89t68 129t23 153zM276 1233v115h685v-115h-685z" />
    <glyph glyph-name="Abreve" unicode="&#x102;" horiz-adv-x="1370" 
d="M1192 0l-186 461h-652l-184 -461h-164l643 1585h76l639 -1585h-172zM682 1276h-2l-272 -680h546zM1006 1933q-5 -59 -31.5 -106.5t-69 -81.5t-99.5 -52t-122 -18q-64 0 -120.5 18t-99 52t-68.5 81.5t-31 106.5h122q7 -31 24 -58.5t42.5 -47.5t58.5 -31.5t72 -11.5
t72.5 11.5t59 31.5t43 47.5t24.5 58.5h123v0z" />
    <glyph glyph-name="abreve" unicode="&#x103;" horiz-adv-x="1196" 
d="M924 0v172h-4q-23 -46 -62.5 -82.5t-88 -61.5t-102.5 -38t-108 -13q-108 0 -197 39.5t-153 109.5t-99.5 165.5t-35.5 206.5q0 107 35 200.5t98.5 162.5t153 109t198.5 40q55 0 107.5 -12.5t100 -36.5t86.5 -58.5t67 -79.5h4v164h149v-987h-149zM930 506q0 78 -25.5 146.5
t-72.5 120.5t-113.5 82t-147.5 30q-83 0 -148.5 -30.5t-111.5 -83t-70 -123.5t-24 -152q0 -78 25.5 -149t72.5 -125.5t114 -87t149 -32.5q85 0 150.5 33t110.5 89t68 129t23 153zM924 1430q-5 -59 -31.5 -107t-69 -81.5t-99.5 -52t-122 -18.5q-64 0 -120.5 18.5t-99 52
t-68.5 81.5t-31 107h123q7 -31 23.5 -58.5t42 -48t58.5 -32t72 -11.5t72.5 11.5t59 32t43 48t24.5 58.5h123v0z" />
    <glyph glyph-name="Aogonek" unicode="&#x104;" horiz-adv-x="1370" 
d="M682 1276h-2l-272 -680h546zM1309 0q-65 -27 -108.5 -55.5t-69.5 -56.5t-37 -54.5t-11 -50.5q0 -56 38.5 -83.5t97.5 -27.5q29 0 51 6.5t47 20.5v-107q-26 -9 -55.5 -15.5t-63.5 -6.5q-48 0 -88.5 13.5t-70.5 39t-47 62.5t-17 84q0 68 51 134.5t158 114.5q0 -2 -7 16
t-19.5 49t-28.5 71t-33 82q-40 99 -90 225h-652l-184 -461h-164l643 1585h76l639 -1585h-55z" />
    <glyph glyph-name="aogonek" unicode="&#x105;" horiz-adv-x="1196" 
d="M930 506q0 78 -25.5 146.5t-72.5 120.5t-113.5 82t-147.5 30q-83 0 -148.5 -30.5t-111.5 -83t-70 -123.5t-24 -152q0 -78 25.5 -149t72.5 -125.5t114 -87t149 -32.5q85 0 150.5 33t110.5 89t68 129t23 153zM1069 0q-42 -24 -75.5 -50.5t-57 -53.5t-36.5 -54t-13 -51
q0 -57 38 -88t97 -31q29 0 51 6.5t45 20.5v-107q-25 -9 -53.5 -15.5t-63.5 -6.5q-48 0 -89 13.5t-71 39t-46.5 62t-16.5 82.5q0 32 14 65t38.5 63.5t58 57t72.5 47.5h-37v172h-4q-23 -46 -62.5 -82.5t-88 -61.5t-102.5 -38t-108 -13q-108 0 -197 39.5t-153 109.5
t-99.5 165.5t-35.5 206.5q0 107 35 200.5t98.5 162.5t153 109t198.5 40q55 0 107.5 -12.5t100 -36.5t86.5 -58.5t67 -79.5h4v164h149v-987h-4v0z" />
    <glyph glyph-name="Cacute" unicode="&#x106;" horiz-adv-x="1473" 
d="M1364 143q-108 -78 -227 -123t-256 -45q-118 0 -224 28.5t-196 80.5t-162 125t-122.5 161.5t-77.5 190.5t-27 211t27.5 211t78.5 190.5t123.5 161.5t162.5 125t194.5 80.5t220.5 28.5q142 0 264 -44.5t221 -129.5v-191h-4q-42 48 -97 88t-118 68.5t-130.5 44.5t-135.5 16
q-138 0 -256.5 -49.5t-205 -136.5t-135.5 -206t-49 -257q0 -89 23 -171.5t65 -155t101.5 -131.5t131.5 -101.5t155.5 -66t173.5 -23.5q62 0 129 15t131 42t120 65.5t97 86.5h4v-189v0zM852 1673h-133l219 332h170z" />
    <glyph glyph-name="cacute" unicode="&#x107;" horiz-adv-x="993" 
d="M913 86q-71 -57 -152 -83t-177 -26q-108 0 -202.5 38t-165.5 106t-112 164t-41 211q0 111 40 205.5t110.5 163t166.5 107t208 38.5q91 0 169 -23.5t146 -79.5v-153q-26 27 -60 51t-74 42t-85.5 28t-93.5 10q-81 0 -151 -29.5t-122 -81t-82 -122.5t-30 -154t29.5 -155
t82 -125t123.5 -83.5t154 -30.5q103 0 181 37t138 99v-154v0zM594 1153h-133l219 332h170z" />
    <glyph glyph-name="Ccaron" unicode="&#x10c;" horiz-adv-x="1473" 
d="M1364 143q-108 -78 -227 -123t-256 -45q-118 0 -224 28.5t-196 80.5t-162 125t-122.5 161.5t-77.5 190.5t-27 211t27.5 211t78.5 190.5t123.5 161.5t162.5 125t194.5 80.5t220.5 28.5q142 0 264 -44.5t221 -129.5v-191h-4q-42 48 -97 88t-118 68.5t-130.5 44.5t-135.5 16
q-138 0 -256.5 -49.5t-205 -136.5t-135.5 -206t-49 -257q0 -89 23 -171.5t65 -155t101.5 -131.5t131.5 -101.5t155.5 -66t173.5 -23.5q62 0 129 15t131 42t120 65.5t97 86.5h4v-189v0zM893 1657h-158l-262 338h148l194 -256l193 256h147z" />
    <glyph glyph-name="ccaron" unicode="&#x10d;" horiz-adv-x="993" 
d="M913 86q-71 -57 -152 -83t-177 -26q-108 0 -202.5 38t-165.5 106t-112 164t-41 211q0 111 40 205.5t110.5 163t166.5 107t208 38.5q91 0 169 -23.5t146 -79.5v-153q-26 27 -60 51t-74 42t-85.5 28t-93.5 10q-81 0 -151 -29.5t-122 -81t-82 -122.5t-30 -154t29.5 -155
t82 -125t123.5 -83.5t154 -30.5q103 0 181 37t138 99v-154v0zM637 1153h-158l-262 338h148l194 -256l193 256h147z" />
    <glyph glyph-name="Dcaron" unicode="&#x10e;" horiz-adv-x="1378" 
d="M1309 772q0 -106 -25.5 -205t-74 -184.5t-117.5 -156t-156 -121t-190.5 -78t-219.5 -27.5h-366v1544h366q114 0 216 -27t189 -76.5t157 -119t119 -155.5t75.5 -185.5t26.5 -208.5zM1145 772q0 128 -40.5 242.5t-121.5 200.5t-202.5 137t-282.5 51h-181v-1262h181
q161 0 282 51t202 137t122 201t41 242zM713 1651h-158l-262 338h147l195 -256l192 256h148z" />
    <glyph glyph-name="dcaron" unicode="&#x10f;" horiz-adv-x="1350" 
d="M918 0v172h-5q-27 -45 -65.5 -81t-86 -61.5t-100.5 -39t-108 -13.5q-110 0 -200 40t-153.5 110t-98.5 165t-35 204q0 107 33.5 201t96.5 163.5t153 109.5t202 40q54 0 106 -12.5t99 -36t87 -58t70 -78.5h5v867h151v-1692h-151zM926 506q0 76 -26 144t-73 119.5t-114 81.5
t-148 30t-146.5 -28.5t-111 -79.5t-70 -121t-24.5 -154q0 -77 25.5 -148t72 -126t113 -87.5t147.5 -32.5q86 0 152 33t111 88.5t68.5 128t23.5 152.5zM1184 1503q0 40 25.5 65t68.5 25q24 0 44.5 -10t36.5 -27t25 -39.5t9 -48.5q0 -37 -13 -78.5t-38 -83t-61.5 -80
t-82.5 -69.5l-49 49q56 41 92.5 97.5t50.5 113.5q-52 -6 -80 20t-28 66z" />
    <glyph glyph-name="dcroat" unicode="&#x111;" horiz-adv-x="1204" 
d="M926 506q0 76 -26 144t-73 119.5t-114 81.5t-148 30t-146.5 -28.5t-111 -79.5t-70 -121t-24.5 -154q0 -77 25.5 -148t72 -126t113 -87.5t147.5 -32.5q86 0 152 33t111 88.5t68.5 128t23.5 152.5zM1204 1411v-119h-135v-1292h-151v172h-5q-27 -45 -65.5 -81t-86 -61.5
t-100.5 -39t-108 -13.5q-110 0 -200 40t-153.5 110t-98.5 165t-35 204q0 107 33.5 201t96.5 163.5t153 109.5t202 40q54 0 106 -12.5t99 -36t87 -58t70 -78.5h5v467h-400v119h400v281h151v-281h135z" />
    <glyph glyph-name="Emacron" unicode="&#x112;" horiz-adv-x="1055" 
d="M160 0v1544h764v-141h-607v-518h590v-137h-590v-607h607v-141h-764zM201 1731v114h684v-114h-684z" />
    <glyph glyph-name="emacron" unicode="&#x113;" horiz-adv-x="1108" 
d="M209 471q2 -86 31 -155.5t78.5 -118t115.5 -75t141 -26.5q111 0 192.5 54.5t135.5 146.5l125 -33q-31 -69 -78.5 -122.5t-108 -90t-131 -55.5t-147.5 -19q-114 0 -206 40t-157.5 109.5t-101 164t-35.5 203.5q0 107 36 201t101 164t156 110.5t201 40.5q117 0 208.5 -39
t154.5 -110t95.5 -170t31.5 -220h-838zM899 575q-11 68 -36 126t-66 101t-100.5 67t-139.5 24q-72 0 -132 -24.5t-105 -67.5t-72.5 -101t-34.5 -125h686v0zM219 1231v115h684v-115h-684z" />
    <glyph glyph-name="Edotaccent" unicode="&#x116;" horiz-adv-x="1055" 
d="M160 0v1544h764v-141h-607v-518h590v-137h-590v-607h607v-141h-764zM655 1817q0 -19 -8 -36.5t-21 -30.5t-30.5 -20.5t-36.5 -7.5q-20 0 -37 7.5t-30 20.5t-20 30.5t-7 36.5q0 40 27 67t67 27q19 0 36.5 -7t30.5 -20t21 -30t8 -37z" />
    <glyph glyph-name="edotaccent" unicode="&#x117;" horiz-adv-x="1108" 
d="M209 471q2 -86 31 -155.5t78.5 -118t115.5 -75t141 -26.5q111 0 192.5 54.5t135.5 146.5l125 -33q-31 -69 -78.5 -122.5t-108 -90t-131 -55.5t-147.5 -19q-114 0 -206 40t-157.5 109.5t-101 164t-35.5 203.5q0 107 36 201t101 164t156 110.5t201 40.5q117 0 208.5 -39
t154.5 -110t95.5 -170t31.5 -220h-838zM899 575q-11 68 -36 126t-66 101t-100.5 67t-139.5 24q-72 0 -132 -24.5t-105 -67.5t-72.5 -101t-34.5 -125h686v0zM659 1317q0 -19 -8 -36t-21 -30t-30.5 -20.5t-36.5 -7.5q-20 0 -37 7.5t-30 20.5t-20 30t-7 36q0 40 27 67t67 27
q19 0 36.5 -7t30.5 -20t21 -30t8 -37z" />
    <glyph glyph-name="Eogonek" unicode="&#x118;" horiz-adv-x="1055" 
d="M924 0q-115 -51 -165 -106t-50 -103q0 -57 38 -88t97 -31q29 0 51 6.5t47 20.5v-107q-26 -9 -55.5 -15.5t-63.5 -6.5q-48 0 -88.5 13t-70.5 37.5t-47 59t-17 78.5q0 68 50 133.5t153 108.5h-643v1544h764v-141h-607v-518h590v-137h-590v-607h607v-141v0z" />
    <glyph glyph-name="eogonek" unicode="&#x119;" horiz-adv-x="1108" 
d="M899 575q-11 68 -36 126t-66 101t-100.5 67t-139.5 24q-72 0 -132 -24.5t-105 -67.5t-72.5 -101t-34.5 -125h686v0zM946 -393q-25 -11 -54 -18t-63 -7q-48 0 -89.5 14t-71.5 39.5t-47 62t-17 81.5q0 23 6 46t20 49t36.5 57t56.5 69q-38 -11 -78 -17t-82 -6
q-114 0 -206 40t-157.5 109.5t-101 164t-35.5 203.5q0 107 36 201t101 164t156 110.5t201 40.5q117 0 208.5 -39t154.5 -110t95.5 -170t31.5 -220h-838q2 -86 31 -155.5t78.5 -118t115.5 -75t141 -26.5q111 0 192.5 54.5t135.5 146.5l125 -33q-18 -43 -44.5 -80t-63.5 -75
q-36 -38 -73 -76t-66 -76.5t-47.5 -76.5t-18.5 -77q0 -55 38 -86.5t95 -31.5q31 0 53 7t45 21v-106z" />
    <glyph glyph-name="Ecaron" unicode="&#x11a;" horiz-adv-x="1055" 
d="M160 0v1544h764v-141h-607v-518h590v-137h-590v-607h607v-141h-764zM631 1651h-158l-262 338h147l195 -256l192 256h148z" />
    <glyph glyph-name="ecaron" unicode="&#x11b;" horiz-adv-x="1108" 
d="M209 471q2 -86 31 -155.5t78.5 -118t115.5 -75t141 -26.5q111 0 192.5 54.5t135.5 146.5l125 -33q-31 -69 -78.5 -122.5t-108 -90t-131 -55.5t-147.5 -19q-114 0 -206 40t-157.5 109.5t-101 164t-35.5 203.5q0 107 36 201t101 164t156 110.5t201 40.5q117 0 208.5 -39
t154.5 -110t95.5 -170t31.5 -220h-838zM899 575q-11 68 -36 126t-66 101t-100.5 67t-139.5 24q-72 0 -132 -24.5t-105 -67.5t-72.5 -101t-34.5 -125h686v0zM647 1153h-158l-262 338h148l194 -256l193 256h147z" />
    <glyph glyph-name="Gbreve" unicode="&#x11e;" horiz-adv-x="1677" 
d="M1606 768q0 -80 -7 -151.5t-25 -137t-49.5 -126t-80.5 -117.5q-109 -128 -260.5 -194.5t-329.5 -66.5q-111 0 -212.5 29t-189 81.5t-158 125.5t-120.5 160.5t-77 188t-27 206.5q0 111 27.5 214t78 192.5t122 162.5t159.5 125t191 80.5t216 28.5q111 0 211 -25t187 -72.5
t160 -116.5t130 -157l-135 -80q-97 146 -237 226.5t-322 80.5q-87 0 -167.5 -24t-150 -68t-126 -104t-97 -133t-62.5 -155t-22 -169q0 -89 22 -172t62.5 -155.5t98 -132.5t128 -103t152.5 -66.5t172 -23.5q111 0 212.5 36t179 103t125.5 161.5t53 211.5h-510v137h678v0z
M1178 1933q-5 -59 -31.5 -106.5t-69 -81.5t-99.5 -52t-122 -18q-64 0 -120.5 18t-99 52t-68.5 81.5t-31 106.5h122q7 -31 24 -58.5t42.5 -47.5t58.5 -31.5t72 -11.5t72.5 11.5t59 31.5t43 47.5t24.5 58.5h123v0z" />
    <glyph glyph-name="gbreve" unicode="&#x11f;" horiz-adv-x="1196" 
d="M1073 59q0 -150 -38 -259t-105.5 -179.5t-160.5 -104.5t-202 -34q-98 0 -185.5 26.5t-154.5 79t-109 130.5t-50 180h151q5 -67 34.5 -120.5t77 -90.5t108.5 -56.5t128 -19.5q104 0 172.5 33.5t109.5 95t58 148.5t17 194v90h-4q-23 -46 -62.5 -82.5t-88 -61.5t-102.5 -38
t-108 -13q-108 0 -197 39.5t-153 109.5t-99.5 165.5t-35.5 206.5q0 107 35 200.5t98.5 162.5t153 109t198.5 40q55 0 107.5 -12.5t100 -36.5t86.5 -58.5t67 -79.5h4v164h149v-928v0zM930 506q0 78 -25.5 146.5t-72.5 120.5t-113.5 82t-147.5 30q-82 0 -147.5 -30
t-111.5 -82.5t-70.5 -123.5t-24.5 -153q0 -76 25.5 -147t72.5 -126t114 -88t149 -33q85 0 150.5 33t110.5 89t68 129t23 153zM920 1430q-5 -59 -31.5 -107t-69 -81.5t-99.5 -52t-122 -18.5q-64 0 -120.5 18.5t-99 52t-68.5 81.5t-31 107h122q7 -31 24 -58.5t42.5 -48
t58.5 -32t72 -11.5t72.5 11.5t59 32t43 48t24.5 58.5h123v0z" />
    <glyph glyph-name="Gcommaaccent" unicode="&#x122;" horiz-adv-x="1677" 
d="M1606 768q0 -80 -7 -151.5t-25 -137t-49.5 -126t-80.5 -117.5q-109 -128 -260.5 -194.5t-329.5 -66.5q-111 0 -212.5 29t-189 81.5t-158 125.5t-120.5 160.5t-77 188t-27 206.5q0 111 27.5 214t78 192.5t122 162.5t159.5 125t191 80.5t216 28.5q111 0 211 -25t187 -72.5
t160 -116.5t130 -157l-135 -80q-97 146 -237 226.5t-322 80.5q-87 0 -167.5 -24t-150 -68t-126 -104t-97 -133t-62.5 -155t-22 -169q0 -89 22 -172t62.5 -155.5t98 -132.5t128 -103t152.5 -66.5t172 -23.5q111 0 212.5 36t179 103t125.5 161.5t53 211.5h-510v137h678v0z
M778 -182q0 40 25.5 65t68.5 25q24 0 45 -10t36.5 -27.5t24.5 -40t9 -47.5q0 -37 -13 -78.5t-38 -83t-61 -80t-82 -69.5l-50 49q56 40 93 97t51 114q-53 -6 -81 19.5t-28 66.5z" />
    <glyph glyph-name="gcommaaccent" unicode="&#x123;" horiz-adv-x="1196" 
d="M1073 59q0 -150 -38 -259t-105.5 -179.5t-160.5 -104.5t-202 -34q-98 0 -185.5 26.5t-154.5 79t-109 130.5t-50 180h151q5 -67 34.5 -120.5t77 -90.5t108.5 -56.5t128 -19.5q104 0 172.5 33.5t109.5 95t58 148.5t17 194v90h-4q-23 -46 -62.5 -82.5t-88 -61.5t-102.5 -38
t-108 -13q-108 0 -197 39.5t-153 109.5t-99.5 165.5t-35.5 206.5q0 107 35 200.5t98.5 162.5t153 109t198.5 40q55 0 107.5 -12.5t100 -36.5t86.5 -58.5t67 -79.5h4v164h149v-928v0zM930 506q0 78 -25.5 146.5t-72.5 120.5t-113.5 82t-147.5 30q-82 0 -147.5 -30
t-111.5 -82.5t-70.5 -123.5t-24.5 -153q0 -76 25.5 -147t72.5 -126t114 -88t149 -33q85 0 150.5 33t110.5 89t68 129t23 153zM688 1270q0 -40 -26.5 -65t-69.5 -25q-24 0 -45 10t-36.5 27t-24.5 40t-9 48q0 37 13 78.5t38 83t61.5 80t82.5 69.5l49 -49q-54 -41 -91.5 -97.5
t-49.5 -113.5q51 6 79.5 -20t28.5 -66z" />
    <glyph glyph-name="Imacron" unicode="&#x12a;" horiz-adv-x="475" 
d="M160 0v1544h157v-1544h-157zM-94 1731v116h661v-116h-661z" />
    <glyph glyph-name="imacron" unicode="&#x12b;" 
d="M160 0v987h149v-987h-149zM0 1233v115h467v-115h-467z" />
    <glyph glyph-name="Iogonek" unicode="&#x12e;" horiz-adv-x="475" 
d="M160 0v1544h157v-1544h-18q-72 -54 -112 -107.5t-40 -101.5q0 -57 38.5 -88t97.5 -31q29 0 51 6.5t47 20.5v-107q-26 -9 -55.5 -15.5t-63.5 -6.5q-48 0 -88.5 13.5t-70.5 39t-47 62t-17 82.5q0 65 40 124t118 109h-37z" />
    <glyph glyph-name="iogonek" unicode="&#x12f;" 
d="M160 0v987h149v-987h-12q-75 -54 -114.5 -107.5t-39.5 -101.5q0 -29 10 -51t28 -37t42.5 -23t52.5 -8q31 0 52.5 6.5t46.5 20.5v-107q-26 -9 -55 -15.5t-64 -6.5q-48 0 -88.5 13.5t-70.5 38.5t-47 61t-17 81q0 67 40.5 126.5t119.5 109.5h-33zM332 1319q0 -19 -8 -36
t-21 -30t-30.5 -20.5t-36.5 -7.5q-20 0 -38 7.5t-31 20.5t-20.5 30t-7.5 36q0 40 28 67t69 27q19 0 36.5 -7t30.5 -20t21 -30t8 -37z" />
    <glyph glyph-name="Idotaccent" unicode="&#x130;" horiz-adv-x="475" 
d="M160 0v1544h157v-1544h-157zM334 1817q0 -19 -8 -36.5t-21 -30.5t-30.5 -20.5t-36.5 -7.5q-20 0 -37.5 7.5t-30 20.5t-20 30.5t-7.5 36.5q0 40 27 67t68 27q19 0 36.5 -7t30.5 -20t21 -30t8 -37z" />
    <glyph glyph-name="dotlessi" unicode="&#x131;" 
d="M160 0v987h149v-987h-149z" />
    <glyph glyph-name="Kcommaaccent" unicode="&#x136;" horiz-adv-x="1229" 
d="M1032 0l-680 723l-35 -33v-690h-157v1544h157v-708h2l680 708h197l-719 -741l760 -803h-205zM545 -176q0 40 25.5 65t68.5 25q24 0 44.5 -10t36.5 -27t25 -40t9 -48q0 -37 -13 -78.5t-38 -83t-61.5 -80t-82.5 -69.5l-49 49q56 40 92.5 97t50.5 114q-52 -6 -80 20t-28 66z
" />
    <glyph glyph-name="kcommaaccent" unicode="&#x137;" horiz-adv-x="928" 
d="M739 0l-417 481l-43 -39v-442h-150v1692h150v-1110l421 405h189l-457 -432l492 -555h-185zM397 -176q0 40 25.5 65t69.5 25q24 0 44.5 -10t36 -27t24.5 -40t9 -48q0 -37 -13 -78.5t-38 -83t-61 -80t-82 -69.5l-50 49q56 40 93 97t51 114q-53 -6 -81 20t-28 66z" />
    <glyph glyph-name="Lacute" unicode="&#x139;" horiz-adv-x="834" 
d="M160 0v1544h157v-1403h494v-141h-651zM307 1651h-133l219 331h170z" />
    <glyph glyph-name="lacute" unicode="&#x13a;" 
d="M160 0v1692h149v-1692h-149zM295 1798h-133l219 332h170z" />
    <glyph glyph-name="Lcommaaccent" unicode="&#x13b;" horiz-adv-x="834" 
d="M160 0v1544h157v-1403h494v-141h-651zM387 -176q0 40 25.5 65t68.5 25q24 0 45 -10t36.5 -27t24.5 -40t9 -48q0 -37 -13 -78.5t-38 -83t-61.5 -80t-82.5 -69.5l-49 49q56 40 93 97t51 114q-53 -6 -81 20t-28 66z" />
    <glyph glyph-name="lcommaaccent" unicode="&#x13c;" 
d="M160 0v1692h149v-1692h-149zM131 -176q0 40 25.5 65t68.5 25q24 0 45 -10t36.5 -27t24.5 -40t9 -48q0 -37 -13 -78.5t-38 -83t-61.5 -80t-82.5 -69.5l-49 49q56 40 93 97t51 114q-53 -6 -81 20t-28 66z" />
    <glyph glyph-name="Lcaron" unicode="&#x13d;" horiz-adv-x="940" 
d="M160 0v1544h157v-1403h494v-141h-651zM676 1479q0 40 25.5 65t68.5 25q24 0 45 -10t36.5 -27.5t24.5 -40t9 -47.5q0 -37 -13 -78.5t-38 -83t-61.5 -80.5t-82.5 -69l-49 49q56 40 92.5 97t50.5 114q-26 -3 -46 2t-34 17t-21 29.5t-7 37.5z" />
    <glyph glyph-name="lcaron" unicode="&#x13e;" horiz-adv-x="623" 
d="M160 0v1692h149v-1692h-149zM424 1503q0 40 25.5 65t68.5 25q24 0 45 -10t36.5 -27t24.5 -39.5t9 -48.5q0 -37 -13 -78.5t-38 -83t-61.5 -80t-82.5 -69.5l-49 49q56 41 92.5 97.5t50.5 113.5q-52 -6 -80 20t-28 66z" />
    <glyph glyph-name="Lslash" unicode="&#x141;" horiz-adv-x="866" 
d="M336 141h491v-141h-651v737l-170 -94v154l170 94v653h160v-563l194 106v-153l-194 -109v-684z" />
    <glyph glyph-name="lslash" unicode="&#x142;" horiz-adv-x="563" 
d="M352 0h-149v743l-8 -4t-21 -11t-29.5 -16t-33.5 -18q-40 -22 -93 -51v154l185 102v793h149v-709l191 104v-153l-191 -105v-829z" />
    <glyph glyph-name="Nacute" unicode="&#x143;" horiz-adv-x="1669" 
d="M1434 -39l-1115 1272h-2v-1233h-157v1561h76l1116 -1268h2v1251h157v-1583h-77zM895 1618h-133l219 332h170z" />
    <glyph glyph-name="nacute" unicode="&#x144;" horiz-adv-x="1051" 
d="M774 0v604q0 63 -10 115t-34.5 89.5t-67.5 58t-109 20.5q-64 0 -113 -27t-82.5 -75t-51 -113t-17.5 -140v-532h-150v987h150v-141h4q46 78 122.5 121t182.5 43q156 0 241 -95t85 -278v-637h-150zM563 1153h-133l219 332h170z" />
    <glyph glyph-name="Ncommaaccent" unicode="&#x145;" horiz-adv-x="1669" 
d="M1434 -39l-1115 1272h-2v-1233h-157v1561h76l1116 -1268h2v1251h157v-1583h-77zM729 -172q0 40 25.5 65t68.5 25q24 0 45 -10t36.5 -27t24.5 -40t9 -48q0 -37 -13 -78.5t-38 -83t-61.5 -80t-82.5 -69.5l-49 49q56 40 93 97t51 114q-53 -6 -81 20t-28 66z" />
    <glyph glyph-name="ncommaaccent" unicode="&#x146;" horiz-adv-x="1051" 
d="M774 0v604q0 63 -10 115t-34.5 89.5t-67.5 58t-109 20.5q-64 0 -113 -27t-82.5 -75t-51 -113t-17.5 -140v-532h-150v987h150v-141h4q46 78 122.5 121t182.5 43q156 0 241 -95t85 -278v-637h-150zM438 -176q0 40 25.5 65t68.5 25q24 0 45 -10t36.5 -27t24.5 -40t9 -48
q0 -37 -13 -78.5t-38 -83t-61 -80t-82 -69.5l-50 49q56 40 93 97t51 114q-53 -6 -81 20t-28 66z" />
    <glyph glyph-name="Ncaron" unicode="&#x147;" horiz-adv-x="1669" 
d="M1434 -39l-1115 1272h-2v-1233h-157v1561h76l1116 -1268h2v1251h157v-1583h-77zM918 1618h-158l-262 338h147l195 -256l192 256h148z" />
    <glyph glyph-name="ncaron" unicode="&#x148;" horiz-adv-x="1051" 
d="M774 0v604q0 63 -10 115t-34.5 89.5t-67.5 58t-109 20.5q-64 0 -113 -27t-82.5 -75t-51 -113t-17.5 -140v-532h-150v987h150v-141h4q46 78 122.5 121t182.5 43q156 0 241 -95t85 -278v-637h-150zM600 1153h-158l-262 338h148l194 -256l193 256h147z" />
    <glyph glyph-name="Omacron" unicode="&#x14c;" horiz-adv-x="1755" 
d="M1683 772q0 -109 -28 -211t-79.5 -190.5t-124 -161.5t-162 -125t-193 -80.5t-217.5 -28.5q-116 0 -221 28.5t-194.5 80.5t-162.5 125t-124 161.5t-79 190.5t-28 211t28 211t79.5 190.5t124.5 161.5t162.5 125t194 80.5t218.5 28.5t217.5 -28.5t193 -80.5t162.5 -125
t125 -161.5t80 -190t28 -211.5zM1524 772q0 134 -51 252.5t-139 207.5t-205.5 141t-251.5 52q-138 0 -256.5 -50t-205 -138t-135.5 -207.5t-49 -257.5q0 -89 23 -172t65 -155.5t101 -132.5t131 -103t155 -66.5t173 -23.5q137 0 255 49.5t204.5 136.5t136 206.5t49.5 260.5z
M535 1737v114h684v-114h-684z" />
    <glyph glyph-name="omacron" unicode="&#x14d;" horiz-adv-x="1163" 
d="M1102 494q0 -109 -38 -203.5t-107 -164t-165.5 -109.5t-213.5 -40t-212 40t-162.5 109.5t-104 164t-36.5 203.5q0 110 38 204t106.5 163.5t165 109t213.5 39.5q118 0 213.5 -40t162.5 -110t103.5 -164t36.5 -202zM958 494q0 77 -25 147.5t-73 124.5t-117 86.5t-157 32.5
q-87 0 -157.5 -32t-120 -85.5t-76.5 -124.5t-27 -149t25 -149t73 -125t117.5 -86t157.5 -32q90 0 160.5 31.5t119 85.5t74.5 125t26 150zM238 1233v115h684v-115h-684z" />
    <glyph glyph-name="Ohungarumlaut" unicode="&#x150;" horiz-adv-x="1755" 
d="M1683 772q0 -109 -28 -211t-79.5 -190.5t-124 -161.5t-162 -125t-193 -80.5t-217.5 -28.5q-116 0 -221 28.5t-194.5 80.5t-162.5 125t-124 161.5t-79 190.5t-28 211t28 211t79.5 190.5t124.5 161.5t162.5 125t194 80.5t218.5 28.5t217.5 -28.5t193 -80.5t162.5 -125
t125 -161.5t80 -190t28 -211.5zM1524 772q0 134 -51 252.5t-139 207.5t-205.5 141t-251.5 52q-138 0 -256.5 -50t-205 -138t-135.5 -207.5t-49 -257.5q0 -89 23 -172t65 -155.5t101 -132.5t131 -103t155 -66.5t173 -23.5q137 0 255 49.5t204.5 136.5t136 206.5t49.5 260.5z
M1081 1657h-114l227 332h166zM791 1657h-113l219 332h166z" />
    <glyph glyph-name="ohungarumlaut" unicode="&#x151;" horiz-adv-x="1163" 
d="M1102 494q0 -109 -38 -203.5t-107 -164t-165.5 -109.5t-213.5 -40t-212 40t-162.5 109.5t-104 164t-36.5 203.5q0 110 38 204t106.5 163.5t165 109t213.5 39.5q118 0 213.5 -40t162.5 -110t103.5 -164t36.5 -202zM958 494q0 77 -25 147.5t-73 124.5t-117 86.5t-157 32.5
q-87 0 -157.5 -32t-120 -85.5t-76.5 -124.5t-27 -149t25 -149t73 -125t117.5 -86t157.5 -32q90 0 160.5 31.5t119 85.5t74.5 125t26 150zM768 1153h-115l228 332h166zM477 1153h-112l219 332h166z" />
    <glyph glyph-name="OE" unicode="&#x152;" horiz-adv-x="1956" 
d="M852 0q-116 0 -219.5 27.5t-190 78t-155.5 121t-117.5 156t-74 184.5t-25.5 205q0 109 26.5 208.5t75.5 185.5t118.5 155.5t156.5 119t189 76.5t216 27h975v-141h-606v-518h587v-137h-587v-607h606v-141h-975zM1061 1403h-180q-107 0 -197 -23t-162 -65t-126 -100
t-90.5 -128t-54.5 -150t-18 -165q0 -127 41 -242t122.5 -201t203 -137t281.5 -51h180v1262z" />
    <glyph glyph-name="oe" unicode="&#x153;" horiz-adv-x="2001" 
d="M1112 471q1 -86 29.5 -155t77 -117.5t114 -74.5t140.5 -26q109 0 189 53t134 146l125 -33q-31 -69 -78 -122.5t-107 -90t-130 -55.5t-146 -19q-75 0 -141 19t-121 54t-98.5 84t-73.5 108q-30 -60 -75.5 -109t-103.5 -83.5t-127 -53.5t-147 -19q-115 0 -209 40t-161 109.5
t-103.5 164t-36.5 203.5q0 110 37.5 204t106 163.5t164 109t211.5 39.5q78 0 146.5 -19t125.5 -54t101.5 -84t74.5 -108q29 59 72.5 107.5t97.5 83.5t118.5 54.5t135.5 19.5q116 0 206.5 -39t153 -110.5t94.5 -170.5t31 -219h-827zM1792 575q-11 67 -35.5 124.5t-65.5 99.5
t-99.5 66t-137.5 24q-71 0 -130.5 -24.5t-103.5 -67t-71.5 -99.5t-34.5 -123h678v0zM958 494q0 77 -25 147.5t-73 124.5t-117 86.5t-157 32.5q-87 0 -157.5 -32t-120 -85.5t-76.5 -124.5t-27 -149t25 -149t73 -125t117.5 -86t157.5 -32q90 0 160.5 31.5t119 85.5t74.5 125
t26 150z" />
    <glyph glyph-name="Racute" unicode="&#x154;" horiz-adv-x="1073" 
d="M844 0l-486 705h-41v-705h-157v1544h286q131 0 226.5 -29t157.5 -83t92 -132.5t30 -177.5q0 -87 -27.5 -159t-81 -124.5t-132.5 -85t-183 -40.5l498 -713h-182zM791 1116q0 72 -21.5 126.5t-68.5 91.5t-120.5 56t-177.5 19h-86v-580h127q85 0 149.5 20t108.5 57t66.5 90
t22.5 120zM547 1651h-133l219 331h170z" />
    <glyph glyph-name="racute" unicode="&#x155;" horiz-adv-x="653" 
d="M592 844q-22 12 -50 18t-57 6q-94 0 -145 -90t-51 -280v-498h-150v987h150v-135h4q35 80 93.5 118t141.5 38q26 0 50 -6t47 -15l-33 -143v0zM399 1153h-133l219 332h170z" />
    <glyph glyph-name="Rcommaaccent" unicode="&#x156;" horiz-adv-x="1073" 
d="M844 0l-486 705h-41v-705h-157v1544h286q131 0 226.5 -29t157.5 -83t92 -132.5t30 -177.5q0 -87 -27.5 -159t-81 -124.5t-132.5 -85t-183 -40.5l498 -713h-182zM791 1116q0 72 -21.5 126.5t-68.5 91.5t-120.5 56t-177.5 19h-86v-580h127q85 0 149.5 20t108.5 57t66.5 90
t22.5 120zM440 -176q0 40 25.5 65t69.5 25q24 0 44.5 -10t36 -27t24.5 -40t9 -48q0 -37 -13 -78.5t-38 -83t-61 -80t-82 -69.5l-49 49q55 40 92 97t51 114q-53 -6 -81 20t-28 66z" />
    <glyph glyph-name="rcommaaccent" unicode="&#x157;" horiz-adv-x="653" 
d="M592 844q-22 12 -50 18t-57 6q-94 0 -145 -90t-51 -280v-498h-150v987h150v-135h4q35 80 93.5 118t141.5 38q26 0 50 -6t47 -15l-33 -143v0zM139 -176q0 40 25.5 65t68.5 25q24 0 45 -10t36.5 -27t24.5 -40t9 -48q0 -37 -13 -78.5t-38 -83t-61 -80t-82 -69.5l-50 49
q56 40 93 97t51 114q-53 -6 -81 20t-28 66z" />
    <glyph glyph-name="Rcaron" unicode="&#x158;" horiz-adv-x="1073" 
d="M844 0l-486 705h-41v-705h-157v1544h286q131 0 226.5 -29t157.5 -83t92 -132.5t30 -177.5q0 -87 -27.5 -159t-81 -124.5t-132.5 -85t-183 -40.5l498 -713h-182zM791 1116q0 72 -21.5 126.5t-68.5 91.5t-120.5 56t-177.5 19h-86v-580h127q85 0 149.5 20t108.5 57t66.5 90
t22.5 120zM582 1651h-158l-262 338h147l195 -256l192 256h148z" />
    <glyph glyph-name="rcaron" unicode="&#x159;" horiz-adv-x="653" 
d="M592 844q-22 12 -50 18t-57 6q-94 0 -145 -90t-51 -280v-498h-150v987h150v-135h4q35 80 93.5 118t141.5 38q26 0 50 -6t47 -15l-33 -143v0zM438 1153h-157l-263 338h148l194 -256l193 256h147z" />
    <glyph glyph-name="Sacute" unicode="&#x15a;" horiz-adv-x="1108" 
d="M1014 424q0 -89 -33.5 -170.5t-95.5 -143.5t-150 -98.5t-198 -36.5q-86 0 -162.5 22.5t-139 63.5t-109.5 99t-75 129l103 90q26 -61 65.5 -109.5t89 -82.5t108 -52t122.5 -18q73 0 131 24t98.5 65.5t62 95.5t21.5 114q0 51 -13.5 93.5t-43.5 80t-77.5 71t-115.5 64.5
l-117 55q-73 33 -133.5 70.5t-104.5 85t-68.5 106.5t-24.5 134q0 83 31 154t86 123.5t130 82t162 29.5q69 0 130.5 -15t113.5 -42.5t95 -66t75 -85.5l-94 -103q-28 37 -62 68.5t-73.5 54t-84 35t-94.5 12.5q-56 0 -103 -16.5t-81 -46.5t-53 -73t-19 -97q0 -51 15 -90
t47.5 -72t83 -63t121.5 -62l112 -51q85 -38 146 -82t100 -96t57.5 -113.5t18.5 -136.5zM594 1673h-133l219 332h170z" />
    <glyph glyph-name="sacute" unicode="&#x15b;" horiz-adv-x="815" 
d="M745 293q0 -69 -26 -127t-71.5 -100t-107 -65.5t-132.5 -23.5q-61 0 -115.5 16t-100 46t-82 72t-61.5 94l90 76q19 -38 46.5 -71.5t62 -59t75.5 -40t87 -14.5q44 0 79.5 15t60.5 40.5t38.5 58.5t13.5 69q0 43 -20.5 73.5t-54 53.5t-76.5 41t-87.5 36.5t-87.5 40t-76.5 51
t-54 70t-20.5 96.5q0 60 22.5 109.5t63 85t96 55t121.5 19.5q98 0 163.5 -37t113.5 -99l-82 -86q-36 48 -83.5 76.5t-109.5 28.5q-37 0 -67 -12t-51 -32.5t-32.5 -47.5t-11.5 -58q0 -36 20.5 -61t54 -45t76.5 -37t87.5 -35.5t87.5 -41.5t76.5 -54.5t54 -74t20.5 -101.5z
M459 1153h-133l219 332h170z" />
    <glyph glyph-name="Scedilla" unicode="&#x15e;" horiz-adv-x="1108" 
d="M1014 424q0 -89 -33.5 -170.5t-95.5 -143.5t-150 -98.5t-198 -36.5q-86 0 -162.5 22.5t-139 63.5t-109.5 99t-75 129l103 90q26 -61 65.5 -109.5t89 -82.5t108 -52t122.5 -18q73 0 131 24t98.5 65.5t62 95.5t21.5 114q0 51 -13.5 93.5t-43.5 80t-77.5 71t-115.5 64.5
l-117 55q-73 33 -133.5 70.5t-104.5 85t-68.5 106.5t-24.5 134q0 83 31 154t86 123.5t130 82t162 29.5q69 0 130.5 -15t113.5 -42.5t95 -66t75 -85.5l-94 -103q-28 37 -62 68.5t-73.5 54t-84 35t-94.5 12.5q-56 0 -103 -16.5t-81 -46.5t-53 -73t-19 -97q0 -51 15 -90
t47.5 -72t83 -63t121.5 -62l112 -51q85 -38 146 -82t100 -96t57.5 -113.5t18.5 -136.5zM432 -438l-84 51l201 301l115 -78z" />
    <glyph glyph-name="scedilla" unicode="&#x15f;" horiz-adv-x="815" 
d="M745 293q0 -69 -26 -127t-71.5 -100t-107 -65.5t-132.5 -23.5q-61 0 -115.5 16t-100 46t-82 72t-61.5 94l90 76q19 -38 46.5 -71.5t62 -59t75.5 -40t87 -14.5q44 0 79.5 15t60.5 40.5t38.5 58.5t13.5 69q0 43 -20.5 73.5t-54 53.5t-76.5 41t-87.5 36.5t-87.5 40t-76.5 51
t-54 70t-20.5 96.5q0 60 22.5 109.5t63 85t96 55t121.5 19.5q98 0 163.5 -37t113.5 -99l-82 -86q-36 48 -83.5 76.5t-109.5 28.5q-37 0 -67 -12t-51 -32.5t-32.5 -47.5t-11.5 -58q0 -36 20.5 -61t54 -45t76.5 -37t87.5 -35.5t87.5 -41.5t76.5 -54.5t54 -74t20.5 -101.5z
M283 -438l-84 51l200 301l115 -78z" />
    <glyph glyph-name="Scaron" unicode="&#x160;" horiz-adv-x="1108" 
d="M1014 424q0 -89 -33.5 -170.5t-95.5 -143.5t-150 -98.5t-198 -36.5q-86 0 -162.5 22.5t-139 63.5t-109.5 99t-75 129l103 90q26 -61 65.5 -109.5t89 -82.5t108 -52t122.5 -18q73 0 131 24t98.5 65.5t62 95.5t21.5 114q0 51 -13.5 93.5t-43.5 80t-77.5 71t-115.5 64.5
l-117 55q-73 33 -133.5 70.5t-104.5 85t-68.5 106.5t-24.5 134q0 83 31 154t86 123.5t130 82t162 29.5q69 0 130.5 -15t113.5 -42.5t95 -66t75 -85.5l-94 -103q-28 37 -62 68.5t-73.5 54t-84 35t-94.5 12.5q-56 0 -103 -16.5t-81 -46.5t-53 -73t-19 -97q0 -51 15 -90
t47.5 -72t83 -63t121.5 -62l112 -51q85 -38 146 -82t100 -96t57.5 -113.5t18.5 -136.5zM657 1673h-157l-262 338h147l195 -256l192 256h148z" />
    <glyph glyph-name="scaron" unicode="&#x161;" horiz-adv-x="815" 
d="M745 293q0 -69 -26 -127t-71.5 -100t-107 -65.5t-132.5 -23.5q-61 0 -115.5 16t-100 46t-82 72t-61.5 94l90 76q19 -38 46.5 -71.5t62 -59t75.5 -40t87 -14.5q44 0 79.5 15t60.5 40.5t38.5 58.5t13.5 69q0 43 -20.5 73.5t-54 53.5t-76.5 41t-87.5 36.5t-87.5 40t-76.5 51
t-54 70t-20.5 96.5q0 60 22.5 109.5t63 85t96 55t121.5 19.5q98 0 163.5 -37t113.5 -99l-82 -86q-36 48 -83.5 76.5t-109.5 28.5q-37 0 -67 -12t-51 -32.5t-32.5 -47.5t-11.5 -58q0 -36 20.5 -61t54 -45t76.5 -37t87.5 -35.5t87.5 -41.5t76.5 -54.5t54 -74t20.5 -101.5z
M514 1153h-158l-262 338h148l194 -256l193 256h147z" />
    <glyph glyph-name="Tcommaaccent" unicode="&#x162;" horiz-adv-x="969" 
d="M561 1403v-1403h-160v1403h-385v141h930v-141h-385zM379 -176q0 40 25.5 65t68.5 25q24 0 45 -10t36.5 -27t24.5 -40t9 -48q0 -37 -13 -78.5t-38 -83t-61.5 -80t-82.5 -69.5l-49 49q56 40 92.5 97t50.5 114q-52 -6 -80 20t-28 66z" />
    <glyph glyph-name="tcommaaccent" unicode="&#x163;" horiz-adv-x="553" 
d="M344 854v-854h-149v854h-111v133h111v340h149v-340h178v-133h-178zM174 -176q0 40 25.5 65t68.5 25q24 0 45 -10t36.5 -27t24.5 -40t9 -48q0 -37 -13 -78.5t-38 -83t-61.5 -80t-82.5 -69.5l-49 49q56 40 93 97t51 114q-53 -6 -81 20t-28 66z" />
    <glyph glyph-name="Tcaron" unicode="&#x164;" horiz-adv-x="969" 
d="M561 1403v-1403h-160v1403h-385v141h930v-141h-385zM567 1651h-157l-263 338h148l194 -256l193 256h147z" />
    <glyph glyph-name="tcaron" unicode="&#x165;" horiz-adv-x="692" 
d="M344 854v-854h-149v854h-111v133h111v340h149v-340h178v-133h-178zM510 1524q0 40 25.5 65t68.5 25q24 0 45 -10t36.5 -27.5t24.5 -40t9 -47.5q0 -37 -13 -78.5t-38 -83t-61.5 -80t-82.5 -69.5l-49 49q56 40 92.5 97t50.5 114q-52 -6 -80 19.5t-28 66.5z" />
    <glyph glyph-name="Umacron" unicode="&#x16a;" horiz-adv-x="1399" 
d="M1253 555q0 -140 -35.5 -248.5t-105.5 -182.5t-173.5 -112.5t-238.5 -38.5q-133 0 -236.5 39.5t-174.5 114.5t-107.5 183t-36.5 245v989h160v-956q0 -243 100.5 -357t305.5 -114q101 0 173.5 28t119.5 86t69.5 147t22.5 210v956h157v-989v0zM356 1731v114h684v-114h-684z
" />
    <glyph glyph-name="umacron" unicode="&#x16b;" horiz-adv-x="1036" 
d="M909 397q0 -210 -98 -315t-291 -105q-100 0 -174 29.5t-122 84.5t-71.5 132.5t-23.5 173.5v590h150v-569q0 -67 10 -125.5t37.5 -101t75 -67t122.5 -24.5t121 24t71.5 66.5t34.5 101t9 126.5v569h149v-590v0zM174 1233v115h684v-115h-684z" />
    <glyph glyph-name="Uring" unicode="&#x16e;" horiz-adv-x="1399" 
d="M1253 555q0 -140 -35.5 -248.5t-105.5 -182.5t-173.5 -112.5t-238.5 -38.5q-133 0 -236.5 39.5t-174.5 114.5t-107.5 183t-36.5 245v989h160v-956q0 -243 100.5 -357t305.5 -114q101 0 173.5 28t119.5 86t69.5 147t22.5 210v956h157v-989v0zM893 1774q0 -41 -14 -76
t-39.5 -61t-61.5 -41t-80 -15t-79.5 15t-60.5 41t-38.5 61t-13.5 76q0 42 14 77.5t39.5 61.5t61.5 40.5t79 14.5q45 0 80.5 -15t60.5 -41t38.5 -61.5t13.5 -76.5zM801 1774q0 46 -26.5 76t-74.5 30t-76 -30t-28 -76q0 -45 26.5 -75t75.5 -30q50 0 76.5 30t26.5 75z" />
    <glyph glyph-name="uring" unicode="&#x16f;" horiz-adv-x="1036" 
d="M909 397q0 -210 -98 -315t-291 -105q-100 0 -174 29.5t-122 84.5t-71.5 132.5t-23.5 173.5v590h150v-569q0 -67 10 -125.5t37.5 -101t75 -67t122.5 -24.5t121 24t71.5 66.5t34.5 101t9 126.5v569h149v-590v0zM713 1313q0 -41 -14 -76t-39.5 -61t-61.5 -41t-80 -15
q-45 0 -80.5 15t-60 41t-38 61t-13.5 76q0 42 14 77.5t39.5 61.5t61 40.5t79.5 14.5q45 0 80.5 -15t60.5 -41t38.5 -61.5t13.5 -76.5zM621 1313q0 46 -26.5 76t-74.5 30t-76 -30t-28 -76q0 -45 26.5 -75t75.5 -30q50 0 76.5 30t26.5 75z" />
    <glyph glyph-name="Uhungarumlaut" unicode="&#x170;" horiz-adv-x="1399" 
d="M1253 555q0 -140 -35.5 -248.5t-105.5 -182.5t-173.5 -112.5t-238.5 -38.5q-133 0 -236.5 39.5t-174.5 114.5t-107.5 183t-36.5 245v989h160v-956q0 -243 100.5 -357t305.5 -114q101 0 173.5 28t119.5 86t69.5 147t22.5 210v956h157v-989v0zM883 1618h-115l227 332h166z
M592 1618h-113l219 332h166z" />
    <glyph glyph-name="uhungarumlaut" unicode="&#x171;" horiz-adv-x="1036" 
d="M909 397q0 -210 -98 -315t-291 -105q-100 0 -174 29.5t-122 84.5t-71.5 132.5t-23.5 173.5v590h150v-569q0 -67 10 -125.5t37.5 -101t75 -67t122.5 -24.5t121 24t71.5 66.5t34.5 101t9 126.5v569h149v-590v0zM705 1153h-115l227 332h166zM414 1153h-113l219 332h166z" />
    <glyph glyph-name="Uogonek" unicode="&#x172;" horiz-adv-x="1399" 
d="M672 -27q-127 5 -225 46.5t-165 116t-102 180.5t-35 239v989h160v-956q0 -243 100.5 -357t305.5 -114q101 0 173.5 28t119.5 86t69.5 147t22.5 210v956h157v-989q0 -258 -117 -405.5t-348 -172.5q-66 -51 -97.5 -97t-31.5 -89q0 -57 38.5 -88t95.5 -31q31 0 52 6.5
t46 20.5v-107q-26 -9 -55 -15.5t-64 -6.5q-48 0 -88.5 13.5t-70.5 39t-47 62t-17 82.5q0 55 30.5 108t92.5 98z" />
    <glyph glyph-name="uogonek" unicode="&#x173;" horiz-adv-x="1036" 
d="M489 -23q-93 4 -160.5 36t-112 86.5t-66 130t-21.5 167.5v590h150v-569q0 -67 10 -125.5t37.5 -101t75 -67t122.5 -24.5t121 24t71.5 66.5t34.5 101t9 126.5v569h149v-590q0 -182 -75 -285.5t-224 -127.5q-69 -53 -103 -101.5t-34 -91.5q0 -57 38 -88t97 -31
q29 0 51.5 6.5t45.5 20.5v-107q-25 -9 -54 -15.5t-63 -6.5q-48 0 -89 13.5t-71 39t-46.5 62t-16.5 82.5q0 57 31.5 110.5t92.5 99.5z" />
    <glyph glyph-name="Ydieresis" unicode="&#x178;" horiz-adv-x="1208" 
d="M684 649v-649h-160v649l-524 895h182l424 -743h4l418 743h180zM905 1817q0 -19 -8 -36.5t-21 -30.5t-30.5 -20.5t-36.5 -7.5t-36 7.5t-30 20.5t-20.5 30.5t-7.5 36.5q0 20 7.5 37t20.5 30t30 20t36 7t36.5 -7t30.5 -20t21 -30t8 -37zM498 1817q0 -19 -8 -36.5t-21 -30.5
t-30.5 -20.5t-37.5 -7.5t-37 7.5t-30 20.5t-20 30.5t-7 36.5q0 40 27 67t67 27q20 0 37.5 -7t30.5 -20t21 -30t8 -37z" />
    <glyph glyph-name="Zacute" unicode="&#x179;" horiz-adv-x="1221" 
d="M297 141h862v-141h-1134l899 1403h-803v141h1075zM686 1651h-133l219 331h170z" />
    <glyph glyph-name="zacute" unicode="&#x17a;" horiz-adv-x="965" 
d="M279 131h649v-131h-916l662 854h-580v133h846zM537 1153h-134l220 332h170z" />
    <glyph glyph-name="Zdotaccent" unicode="&#x17b;" horiz-adv-x="1221" 
d="M297 141h862v-141h-1134l899 1403h-803v141h1075zM743 1817q0 -19 -8 -36.5t-21 -30.5t-30.5 -20.5t-36.5 -7.5q-20 0 -37 7.5t-30 20.5t-20 30.5t-7 36.5q0 40 27 67t67 27q19 0 36.5 -7t30.5 -20t21 -30t8 -37z" />
    <glyph glyph-name="zdotaccent" unicode="&#x17c;" horiz-adv-x="965" 
d="M279 131h649v-131h-916l662 854h-580v133h846zM598 1317q0 -19 -8 -36t-21 -30t-30.5 -20.5t-36.5 -7.5q-20 0 -37 7.5t-30 20.5t-20 30t-7 36q0 40 27 67t67 27q19 0 36.5 -7t30.5 -20t21 -30t8 -37z" />
    <glyph glyph-name="Zcaron" unicode="&#x17d;" horiz-adv-x="1221" 
d="M297 141h862v-141h-1134l899 1403h-803v141h1075zM727 1651h-158l-262 338h148l194 -256l193 256h147z" />
    <glyph glyph-name="zcaron" unicode="&#x17e;" horiz-adv-x="965" 
d="M279 131h649v-131h-916l662 854h-580v133h846zM596 1153h-158l-262 338h148l194 -256l193 256h147z" />
    <glyph glyph-name="florin" unicode="&#x192;" horiz-adv-x="874" 
d="M807 1413q-19 9 -40 15t-44 6q-37 0 -69 -12t-57 -39t-43.5 -72t-29.5 -111l-37 -242h246l-20 -133h-248l-123 -784q-14 -89 -46 -153.5t-77.5 -106t-102.5 -61t-122 -19.5q-12 0 -26 1.5t-27.5 4t-26 5.5t-20.5 7l22 138q17 -10 38 -15.5t44 -5.5q38 0 70 12.5
t57.5 40.5t43.5 72.5t28 108.5l118 755h-120l20 133h123l41 271q15 89 47 153t78 105.5t103.5 61.5t121.5 20q22 0 51.5 -5.5t46.5 -13.5z" />
    <glyph glyph-name="Scommaaccent" unicode="&#x218;" horiz-adv-x="1108" 
d="M1014 424q0 -89 -33.5 -170.5t-95.5 -143.5t-150 -98.5t-198 -36.5q-86 0 -162.5 22.5t-139 63.5t-109.5 99t-75 129l103 90q26 -61 65.5 -109.5t89 -82.5t108 -52t122.5 -18q73 0 131 24t98.5 65.5t62 95.5t21.5 114q0 51 -13.5 93.5t-43.5 80t-77.5 71t-115.5 64.5
l-117 55q-73 33 -133.5 70.5t-104.5 85t-68.5 106.5t-24.5 134q0 83 31 154t86 123.5t130 82t162 29.5q69 0 130.5 -15t113.5 -42.5t95 -66t75 -85.5l-94 -103q-28 37 -62 68.5t-73.5 54t-84 35t-94.5 12.5q-56 0 -103 -16.5t-81 -46.5t-53 -73t-19 -97q0 -51 15 -90
t47.5 -72t83 -63t121.5 -62l112 -51q85 -38 146 -82t100 -96t57.5 -113.5t18.5 -136.5zM432 -182q0 40 25.5 65t68.5 25q24 0 45 -10t36.5 -27.5t24.5 -40t9 -47.5q0 -37 -13 -78.5t-38 -83t-61.5 -80t-82.5 -69.5l-49 49q56 40 93 97t51 114q-53 -6 -81 19.5t-28 66.5z" />
    <glyph glyph-name="scommaaccent" unicode="&#x219;" horiz-adv-x="815" 
d="M745 293q0 -69 -26 -127t-71.5 -100t-107 -65.5t-132.5 -23.5q-61 0 -115.5 16t-100 46t-82 72t-61.5 94l90 76q19 -38 46.5 -71.5t62 -59t75.5 -40t87 -14.5q44 0 79.5 15t60.5 40.5t38.5 58.5t13.5 69q0 43 -20.5 73.5t-54 53.5t-76.5 41t-87.5 36.5t-87.5 40t-76.5 51
t-54 70t-20.5 96.5q0 60 22.5 109.5t63 85t96 55t121.5 19.5q98 0 163.5 -37t113.5 -99l-82 -86q-36 48 -83.5 76.5t-109.5 28.5q-37 0 -67 -12t-51 -32.5t-32.5 -47.5t-11.5 -58q0 -36 20.5 -61t54 -45t76.5 -37t87.5 -35.5t87.5 -41.5t76.5 -54.5t54 -74t20.5 -101.5z
M315 -176q0 40 25.5 65t69.5 25q24 0 44.5 -10t36 -27t24.5 -40t9 -48q0 -37 -13 -78.5t-38 -83t-61 -80t-82 -69.5l-49 49q55 40 92 97t51 114q-53 -6 -81 20t-28 66z" />
    <glyph glyph-name="circumflex" unicode="&#x2c6;" horiz-adv-x="918" 
d="M655 1153l-194 248l-197 -248h-143l270 338h141l271 -338h-148z" />
    <glyph glyph-name="caron" unicode="&#x2c7;" horiz-adv-x="918" 
d="M543 1153h-158l-262 338h147l195 -256l192 256h148z" />
    <glyph glyph-name="breve" unicode="&#x2d8;" horiz-adv-x="924" 
d="M782 1430q-4 -59 -30.5 -107t-69 -81.5t-99.5 -52t-122 -18.5q-64 0 -120.5 18.5t-99 52t-69 81.5t-31.5 107h123q7 -31 24 -58.5t42.5 -48t58.5 -32t72 -11.5t72.5 11.5t59 32t42.5 48t24 58.5h123v0z" />
    <glyph glyph-name="dotaccent" unicode="&#x2d9;" horiz-adv-x="516" 
d="M354 1319q0 -19 -8 -36t-21 -30t-30.5 -20.5t-36.5 -7.5q-20 0 -37 7.5t-30 20.5t-20 30t-7 36q0 40 27 67t67 27q19 0 36.5 -7t30.5 -20t21 -30t8 -37z" />
    <glyph glyph-name="ring" unicode="&#x2da;" horiz-adv-x="686" 
d="M537 1313q0 -41 -14 -76t-39.5 -61t-61.5 -41t-80 -15q-45 0 -80.5 15t-60 41t-38 61t-13.5 76q0 42 14 77.5t39.5 61.5t61 40.5t79.5 14.5q45 0 80.5 -15t60.5 -41t38.5 -61.5t13.5 -76.5zM444 1313q0 46 -26 76t-74 30t-76 -30t-28 -76q0 -45 26 -75t76 -30t76 30
t26 75z" />
    <glyph glyph-name="ogonek" unicode="&#x2db;" horiz-adv-x="631" 
d="M498 -303q-26 -11 -55 -18t-64 -7q-48 0 -88.5 14t-70.5 39.5t-47 62.5t-17 83q0 65 40.5 124.5t118.5 108.5h105v-4q-76 -54 -115 -105.5t-39 -100.5q0 -56 37.5 -87.5t95.5 -31.5q31 0 52.5 7t46.5 21v-106v0z" />
    <glyph glyph-name="tilde" unicode="&#x2dc;" horiz-adv-x="928" 
d="M795 1430q0 -58 -13 -98t-38.5 -65t-62 -36.5t-83.5 -11.5q-32 0 -68 13t-72.5 29t-71 29t-64.5 13q-41 0 -60.5 -22t-19.5 -64h-115q0 57 14 97t40 65t63 36.5t82 11.5q37 0 72 -13.5t69 -29.5t67 -29.5t66 -13.5q42 0 61 23.5t19 65.5h115v0z" />
    <glyph glyph-name="hungarumlaut" unicode="&#x2dd;" horiz-adv-x="934" 
d="M532 1153h-114l227 332h166zM242 1153h-113l219 332h166z" />
    <glyph glyph-name="tonos" unicode="&#x384;" horiz-adv-x="569" 
d="M311 1151h-131l217 334h172z" />
    <glyph glyph-name="dieresistonos" unicode="&#x385;" horiz-adv-x="922" 
d="M829 1319q0 -19 -8 -36t-21 -30t-30.5 -20.5t-36.5 -7.5t-36 7.5t-30 20.5t-20.5 30t-7.5 36q0 20 7.5 37t20.5 30t30 20t36 7t36.5 -7t30.5 -20t21 -30t8 -37zM283 1319q0 -19 -8 -36t-21 -30t-30.5 -20.5t-37.5 -7.5t-37 7.5t-30 20.5t-20 30t-7 36q0 40 27 67t67 27
q20 0 37.5 -7t30.5 -20t21 -30t8 -37zM414 1151h-121l194 334h158z" />
    <glyph glyph-name="Alphatonos" unicode="&#x386;" horiz-adv-x="1495" 
d="M150 1210h-132l218 334h172zM1317 0l-187 461h-651l-184 -461h-164l643 1585h76l639 -1585h-172zM807 1276h-2l-273 -680h547z" />
    <glyph glyph-name="Epsilontonos" unicode="&#x388;" horiz-adv-x="1413" 
d="M518 0v1544h764v-141h-606v-518h590v-137h-590v-607h606v-141h-764zM150 1210h-132l218 334h172z" />
    <glyph glyph-name="Etatonos" unicode="&#x389;" horiz-adv-x="1858" 
d="M150 1210h-132l218 334h172zM1542 0v764h-866v-764h-158v1544h158v-643h866v643h160v-1544h-160z" />
    <glyph glyph-name="Iotatonos" unicode="&#x38a;" horiz-adv-x="840" 
d="M150 1210h-132l218 334h172zM524 0v1544h158v-1544h-158z" />
    <glyph glyph-name="Omicrontonos" unicode="&#x38c;" horiz-adv-x="2003" 
d="M150 1210h-132l218 334h172zM1931 772q0 -109 -28 -211t-79.5 -190.5t-124.5 -161.5t-162.5 -125t-193 -80.5t-217.5 -28.5q-115 0 -220 28.5t-195 80.5t-163 125t-124 161.5t-79 190.5t-28 211t28 211t80 190.5t124.5 161.5t162.5 125t194 80.5t218 28.5t218 -28.5
t193.5 -80.5t162.5 -125t125 -161.5t80 -190t28 -211.5zM1772 772q0 89 -23 172t-65.5 155.5t-101.5 132.5t-131 103t-155 66.5t-172 23.5q-138 0 -256 -50t-204.5 -138t-135.5 -207.5t-49 -257.5q0 -89 23 -172t65 -155.5t101 -132.5t131 -103t155 -66.5t172 -23.5
q138 0 256 49.5t204.5 136.5t136 206.5t49.5 260.5z" />
    <glyph glyph-name="Upsilontonos" unicode="&#x38e;" horiz-adv-x="1661" 
d="M150 1210h-132l218 334h172zM1137 649v-649h-160v649l-524 895h182l424 -743h4l418 743h180z" />
    <glyph glyph-name="Omegatonos" unicode="&#x38f;" horiz-adv-x="2032" 
d="M150 1210h-132l218 334h172zM1298 0q0 17 -1 30q-1 11 -1 21v12q99 65 186 140.5t151.5 163.5t101.5 190t37 219q0 92 -22 175.5t-62.5 155.5t-98 131t-129.5 100.5t-156 64t-178 22.5q-140 0 -258.5 -50t-205 -137.5t-135 -206t-48.5 -255.5q0 -118 37 -220t100.5 -190
t150 -163t185.5 -140v-12t-1 -21q-1 -13 -1 -30h-661v141h368q-65 53 -126 119.5t-108 146.5t-75.5 173.5t-28.5 199.5q0 110 28 211.5t79.5 189t124.5 159.5t162.5 122.5t194 78.5t218.5 28q115 0 219.5 -27.5t194.5 -78.5t162.5 -122.5t123.5 -158.5t79 -188.5t28 -211.5
q0 -107 -28.5 -200.5t-76.5 -174t-109.5 -147t-127.5 -119.5h371v-141h-664z" />
    <glyph glyph-name="iotadieresistonos" unicode="&#x390;" 
d="M160 0v987h149v-987h-149zM602 1319q0 -19 -8 -36t-21 -30t-30.5 -20.5t-36.5 -7.5t-36 7.5t-30 20.5t-20.5 30t-7.5 36q0 20 7.5 37t20.5 30t30 20t36 7t36.5 -7t30.5 -20t21 -30t8 -37zM55 1319q0 -19 -8 -36t-21 -30t-30.5 -20.5t-36.5 -7.5q-20 0 -37 7.5t-30 20.5
t-20 30t-7 36q0 40 27 67t67 27q19 0 36.5 -7t30.5 -20t21 -30t8 -37zM186 1151h-120l194 334h158z" />
    <glyph glyph-name="Alpha" unicode="&#x391;" horiz-adv-x="1370" 
d="M1192 0l-186 461h-652l-184 -461h-164l643 1585h76l639 -1585h-172zM682 1276h-2l-272 -680h546z" />
    <glyph glyph-name="Beta" unicode="&#x392;" horiz-adv-x="1163" 
d="M1077 436q0 -95 -32 -175t-94.5 -138t-154 -90.5t-210.5 -32.5h-426v1544h360q110 0 196 -27t145.5 -77.5t90.5 -123t31 -163.5q0 -109 -55 -196.5t-164 -135.5v-4q78 -18 136.5 -53.5t97.5 -85t59 -111.5t20 -131zM829 1149q0 128 -86 194t-251 66h-175v-547h199
q77 0 135.5 21t98 59t59.5 90.5t20 116.5zM922 442q0 64 -22.5 116.5t-68 90.5t-115 59t-163.5 21h-236v-594h240q95 0 164 23t113.5 64.5t66 97.5t21.5 122z" />
    <glyph glyph-name="Gamma" unicode="&#x393;" horiz-adv-x="918" 
d="M903 1403h-586v-1403h-157v1544h743v-141z" />
    <glyph glyph-name="uni0394" unicode="&#x394;" horiz-adv-x="1370" 
d="M6 0l643 1585h76l639 -1585h-1358zM682 1305h-2l-457 -1164h916z" />
    <glyph glyph-name="Epsilon" unicode="&#x395;" horiz-adv-x="1055" 
d="M160 0v1544h764v-141h-607v-518h590v-137h-590v-607h607v-141h-764z" />
    <glyph glyph-name="Zeta" unicode="&#x396;" horiz-adv-x="1221" 
d="M297 141h862v-141h-1134l899 1403h-803v141h1075z" />
    <glyph glyph-name="Eta" unicode="&#x397;" horiz-adv-x="1499" 
d="M1184 0v764h-867v-764h-157v1544h157v-643h867v643h159v-1544h-159z" />
    <glyph glyph-name="Theta" unicode="&#x398;" horiz-adv-x="1755" 
d="M1683 772q0 -109 -28 -211t-79.5 -190.5t-124 -161.5t-162 -125t-193 -80.5t-217.5 -28.5q-116 0 -221 28.5t-194.5 80.5t-162.5 125t-124 161.5t-79 190.5t-28 211t28 211t79.5 190.5t124.5 161.5t162.5 125t194 80.5t218.5 28.5t217.5 -28.5t193 -80.5t162.5 -125
t125 -161.5t80 -190t28 -211.5zM1524 772q0 90 -23 173t-65 155.5t-101 132.5t-131 102.5t-154.5 66t-172.5 23.5q-92 0 -176 -22.5t-156 -64.5t-130.5 -101t-99.5 -131.5t-63.5 -157t-22.5 -176.5q0 -89 23 -172.5t65 -156t101.5 -132.5t131.5 -102.5t155.5 -66
t173.5 -23.5q137 0 255 49.5t204.5 136.5t136 206.5t49.5 260.5zM500 707v133h755v-133h-755z" />
    <glyph glyph-name="Iota" unicode="&#x399;" horiz-adv-x="475" 
d="M160 0v1544h157v-1544h-157z" />
    <glyph glyph-name="Kappa" unicode="&#x39a;" horiz-adv-x="1229" 
d="M1032 0l-680 723l-35 -33v-690h-157v1544h157v-708h2l680 708h197l-719 -741l760 -803h-205z" />
    <glyph glyph-name="Lambda" unicode="&#x39b;" horiz-adv-x="1331" 
d="M631 1585h76l616 -1585h-170l-487 1278h-4l-488 -1278h-166z" />
    <glyph glyph-name="Mu" unicode="&#x39c;" horiz-adv-x="1872" 
d="M1686 0l-230 1196h-4l-502 -1237h-37l-495 1237h-4l-234 -1196h-157l317 1585h82l514 -1288l520 1288h84l309 -1585h-163z" />
    <glyph glyph-name="Nu" unicode="&#x39d;" horiz-adv-x="1669" 
d="M1434 -39l-1115 1272h-2v-1233h-157v1561h76l1116 -1268h2v1251h157v-1583h-77z" />
    <glyph glyph-name="Xi" unicode="&#x39e;" horiz-adv-x="1137" 
d="M135 1544h871v-145h-871v145zM154 887h835v-142h-835v142zM1006 145v-145h-871v145h871z" />
    <glyph glyph-name="Omicron" unicode="&#x39f;" horiz-adv-x="1755" 
d="M1683 772q0 -109 -28 -211t-79.5 -190.5t-124 -161.5t-162 -125t-193 -80.5t-217.5 -28.5q-116 0 -221 28.5t-194.5 80.5t-162.5 125t-124 161.5t-79 190.5t-28 211t28 211t79.5 190.5t124.5 161.5t162.5 125t194 80.5t218.5 28.5t217.5 -28.5t193 -80.5t162.5 -125
t125 -161.5t80 -190t28 -211.5zM1524 772q0 134 -51 252.5t-139 207.5t-205.5 141t-251.5 52q-138 0 -256.5 -50t-205 -138t-135.5 -207.5t-49 -257.5q0 -89 23 -172t65 -155.5t101 -132.5t131 -103t155 -66.5t173 -23.5q137 0 255 49.5t204.5 136.5t136 206.5t49.5 260.5z
" />
    <glyph glyph-name="Pi" unicode="&#x3a0;" horiz-adv-x="1499" 
d="M1184 0v1407h-867v-1407h-157v1544h1183v-1544h-159z" />
    <glyph glyph-name="Rho" unicode="&#x3a1;" horiz-adv-x="1044" 
d="M985 1116q0 -94 -30 -173t-88.5 -135.5t-145.5 -88t-201 -31.5h-203v-688h-157v1544h358q114 0 201.5 -31.5t146.5 -88t89 -135t30 -173.5zM827 1116q0 67 -19.5 120.5t-60 91t-104 57.5t-151.5 20h-175v-580h175q88 0 151.5 20.5t104 58.5t60 91.5t19.5 120.5z" />
    <glyph glyph-name="Sigma" unicode="&#x3a3;" horiz-adv-x="1200" 
d="M53 0l565 774l-565 770h1034v-141h-751l461 -627l-461 -635h751v-141h-1034z" />
    <glyph glyph-name="Tau" unicode="&#x3a4;" horiz-adv-x="969" 
d="M561 1403v-1403h-160v1403h-385v141h930v-141h-385z" />
    <glyph glyph-name="Upsilon" unicode="&#x3a5;" horiz-adv-x="1208" 
d="M684 649v-649h-160v649l-524 895h182l424 -743h4l418 743h180z" />
    <glyph glyph-name="Phi" unicode="&#x3a6;" horiz-adv-x="1581" 
d="M713 1235h-8q-102 0 -189 -34.5t-150.5 -95.5t-99 -144t-35.5 -181q0 -97 36.5 -180t100.5 -144t150.5 -95.5t186.5 -34.5h8v909zM868 326h9q102 0 188.5 34.5t150 95.5t99 144t35.5 180q0 98 -37 181t-100.5 144t-150 95.5t-185.5 34.5h-9v-909zM879 1372q133 0 248 -45
t200.5 -124.5t134.5 -188t49 -234.5q0 -125 -49.5 -233.5t-135.5 -188t-201.5 -125t-247.5 -45.5h-9v-188h-155v188h-4q-91 0 -173.5 20.5t-153.5 58.5t-128.5 91.5t-98.5 119.5t-63 142.5t-22 159.5q0 126 49.5 234.5t135 188t201 124.5t246.5 45h11v172h155v-172h11z" />
    <glyph glyph-name="Chi" unicode="&#x3a7;" horiz-adv-x="1165" 
d="M944 0l-360 655h-4l-365 -655h-174l457 788l-437 756h185l338 -622h4l346 622h180l-444 -756l452 -788h-178z" />
    <glyph glyph-name="Psi" unicode="&#x3a8;" horiz-adv-x="1573" 
d="M872 444q215 0 323 122.5t108 359.5v618h159v-651q0 -137 -40 -246.5t-116 -186.5t-187 -118t-253 -41v-301h-159v301h-9q-143 0 -252.5 42t-184 119.5t-112.5 187t-38 243.5v651h157v-618q0 -238 110 -360t327 -122h2v1100h159v-1100h6z" />
    <glyph glyph-name="uni03A9" unicode="&#x3a9;" horiz-adv-x="1812" 
d="M1079 0q0 17 -1 30q-1 11 -1 21v12q99 65 185.5 140.5t151 163.5t101.5 190t37 219q0 138 -48 256.5t-134 205.5t-204 137t-259 50t-259.5 -50t-204.5 -137.5t-134.5 -206t-48.5 -255.5q0 -118 37 -220t100.5 -190t150 -163t185.5 -140v-12t-1 -21q-1 -13 -1 -30h-661
v141h368q-65 53 -126 119.5t-108 146.5t-75.5 173.5t-28.5 199.5q0 110 28 211.5t79.5 189t124.5 159.5t162.5 122.5t194 78.5t218.5 28q115 0 219.5 -27.5t194.5 -78.5t162.5 -122.5t123.5 -158.5t79 -188.5t28 -211.5q0 -107 -28.5 -200.5t-76.5 -174t-109.5 -147
t-127.5 -119.5h371v-141h-664z" />
    <glyph glyph-name="Iotadieresis" unicode="&#x3aa;" horiz-adv-x="475" 
d="M537 1817q0 -19 -8 -36.5t-21 -30.5t-30.5 -20.5t-37.5 -7.5t-37 7.5t-30 20.5t-20 30.5t-7 36.5q0 40 27 68t67 28q20 0 37.5 -7.5t30.5 -20.5t21 -30.5t8 -37.5zM129 1817q0 -19 -8 -36.5t-21 -30.5t-30.5 -20.5t-36.5 -7.5q-20 0 -37.5 7.5t-30.5 20.5t-20.5 30.5
t-7.5 36.5q0 40 28 68t68 28q19 0 36.5 -7.5t30.5 -20.5t21 -30.5t8 -37.5zM160 0v1544h157v-1544h-157z" />
    <glyph glyph-name="Upsilondieresis" unicode="&#x3ab;" horiz-adv-x="1208" 
d="M903 1817q0 -19 -8 -36.5t-21 -30.5t-30.5 -20.5t-36.5 -7.5t-36 7.5t-30 20.5t-20.5 30.5t-7.5 36.5q0 20 7.5 37.5t20.5 30.5t30 20.5t36 7.5t36.5 -7.5t30.5 -20.5t21 -30.5t8 -37.5zM496 1817q0 -19 -8 -36.5t-21 -30.5t-30.5 -20.5t-37.5 -7.5t-37 7.5t-30 20.5
t-20 30.5t-7 36.5q0 40 27 68t67 28q20 0 37.5 -7.5t30.5 -20.5t21 -30.5t8 -37.5zM684 649v-649h-160v649l-524 895h182l424 -743h4l418 743h180z" />
    <glyph glyph-name="alphatonos" unicode="&#x3ac;" horiz-adv-x="1196" 
d="M924 0v172h-4q-23 -46 -62.5 -82.5t-88 -61.5t-102.5 -38t-108 -13q-108 0 -197 39.5t-153 109.5t-99.5 165.5t-35.5 206.5q0 107 35 200.5t98.5 162.5t153 109t198.5 40q55 0 107.5 -12.5t100 -36.5t86.5 -58.5t67 -79.5h4v164h149v-987h-149zM930 506q0 78 -25.5 146.5
t-72.5 120.5t-113.5 82t-147.5 30q-83 0 -148.5 -30.5t-111.5 -83t-70 -123.5t-24 -152q0 -78 25.5 -149t72.5 -125.5t114 -87t149 -32.5q85 0 150.5 33t110.5 89t68 129t23 153zM625 1151h-131l217 334h172z" />
    <glyph glyph-name="epsilontonos" unicode="&#x3ad;" horiz-adv-x="918" 
d="M838 86q-70 -56 -158.5 -82.5t-194.5 -26.5q-87 0 -160 21t-125.5 58t-82 88t-29.5 110q0 47 14.5 85.5t41 69t62.5 52.5t79 35q-88 21 -141.5 79t-53.5 152q0 60 29.5 111.5t82 90t125.5 60t160 21.5q99 0 185.5 -24t154.5 -77v-147q-27 28 -63 51.5t-79 41t-91.5 27
t-101.5 9.5q-55 0 -102 -11.5t-82 -34t-55 -54t-20 -72.5q0 -45 16.5 -77t45 -52.5t67.5 -29.5t84 -9h117v-111h-119q-46 0 -85 -9t-67.5 -29.5t-44.5 -52.5t-16 -77q0 -41 21 -74t58 -55.5t86 -34.5t104 -12q110 0 192.5 38t145.5 99v-147v0zM514 1151h-131l217 334h172z
" />
    <glyph glyph-name="etatonos" unicode="&#x3ae;" horiz-adv-x="1051" 
d="M774 -559v1163q0 63 -10 115t-34.5 89.5t-67.5 58t-109 20.5q-64 0 -113 -27t-82.5 -75t-51 -113t-17.5 -140v-532h-150v987h150v-141h4q46 78 122.5 121t182.5 43q156 0 241 -95t85 -278v-1196h-150zM555 1151h-131l217 334h172z" />
    <glyph glyph-name="iotatonos" unicode="&#x3af;" 
d="M160 0v987h149v-987h-149zM297 1151h-131l217 334h172z" />
    <glyph glyph-name="upsilondieresistonos" unicode="&#x3b0;" horiz-adv-x="1036" 
d="M909 397q0 -210 -98 -315t-291 -105q-100 0 -174 29.5t-122 84.5t-71.5 132.5t-23.5 173.5v590h150v-569q0 -67 10 -125.5t37.5 -101t75 -67t122.5 -24.5t121 24t71.5 66.5t34.5 101t9 126.5v569h149v-590v0zM887 1319q0 -19 -8 -36t-21 -30t-30.5 -20.5t-36.5 -7.5
t-36.5 7.5t-30.5 20.5t-20.5 30t-7.5 36q0 20 7.5 37t20.5 30t30.5 20t36.5 7t36.5 -7t30.5 -20t21 -30t8 -37zM340 1319q0 -19 -8 -36t-21 -30t-30.5 -20.5t-36.5 -7.5q-20 0 -37.5 7.5t-30 20.5t-19.5 30t-7 36q0 40 26.5 67t67.5 27q19 0 36.5 -7t30.5 -20t21 -30t8 -37z
M471 1151h-121l195 334h157z" />
    <glyph glyph-name="alpha" unicode="&#x3b1;" horiz-adv-x="1196" 
d="M924 0v172h-4q-23 -46 -62.5 -82.5t-88 -61.5t-102.5 -38t-108 -13q-108 0 -197 39.5t-153 109.5t-99.5 165.5t-35.5 206.5q0 107 35 200.5t98.5 162.5t153 109t198.5 40q55 0 107.5 -12.5t100 -36.5t86.5 -58.5t67 -79.5h4v164h149v-987h-149zM930 506q0 78 -25.5 146.5
t-72.5 120.5t-113.5 82t-147.5 30q-83 0 -148.5 -30.5t-111.5 -83t-70 -123.5t-24 -152q0 -78 25.5 -149t72.5 -125.5t114 -87t149 -32.5q85 0 150.5 33t110.5 89t68 129t23 153z" />
    <glyph glyph-name="beta" unicode="&#x3b2;" horiz-adv-x="1206" 
d="M762 944q81 -15 149 -53.5t118 -98.5t78 -139t28 -174q0 -105 -36 -196.5t-100.5 -159.5t-154 -107t-195.5 -39q-54 0 -107 12.5t-100.5 36t-87 57.5t-65.5 77h-4v-719h-150v1778q0 123 36 216.5t97.5 155.5t144 93.5t175.5 31.5q95 0 175 -30t138 -84t90.5 -128.5
t32.5 -162.5q0 -58 -17.5 -113t-50.5 -103t-82 -86.5t-112 -64.5zM516 864v131h51q55 0 110.5 22t100.5 62t73 96t28 123q0 66 -24.5 118.5t-66 89.5t-95 57t-111.5 20q-63 0 -117.5 -22.5t-94.5 -67.5t-63 -113t-24 -159v-711q0 -83 22 -156.5t66 -129t110 -88t154 -32.5
q79 0 145 29t113 80.5t73.5 121.5t26.5 152q0 79 -27.5 148t-81 120t-132.5 80t-183 29h-53z" />
    <glyph glyph-name="gamma" unicode="&#x3b3;" horiz-adv-x="967" 
d="M2 987h162l321 -766h4l320 766h156l-406 -917v-631h-149v622z" />
    <glyph glyph-name="delta" unicode="&#x3b4;" horiz-adv-x="1163" 
d="M958 494q0 77 -25 147.5t-73 124.5t-117 86.5t-157 32.5q-87 0 -157.5 -32t-120 -85.5t-76.5 -124.5t-27 -149t25 -149t73 -125t117.5 -86t157.5 -32q90 0 160.5 31.5t119 85.5t74.5 125t26 150zM162 1688l2 4h846v-138h-586l543 -684q65 -85 100 -179t35 -199
q0 -108 -38 -202t-107 -163.5t-165.5 -109.5t-213.5 -40t-212 40t-162.5 109.5t-104 164t-36.5 203.5q0 107 37 200.5t103.5 162.5t159.5 109t204 40q38 0 74.5 -6t67.5 -17z" />
    <glyph glyph-name="epsilon" unicode="&#x3b5;" horiz-adv-x="918" 
d="M838 86q-70 -56 -158.5 -82.5t-194.5 -26.5q-87 0 -160 21t-125.5 58t-82 88t-29.5 110q0 47 14.5 85.5t41 69t62.5 52.5t79 35q-88 21 -141.5 79t-53.5 152q0 60 29.5 111.5t82 90t125.5 60t160 21.5q99 0 185.5 -24t154.5 -77v-147q-27 28 -63 51.5t-79 41t-91.5 27
t-101.5 9.5q-55 0 -102 -11.5t-82 -34t-55 -54t-20 -72.5q0 -45 16.5 -77t45 -52.5t67.5 -29.5t84 -9h117v-111h-119q-46 0 -85 -9t-67.5 -29.5t-44.5 -52.5t-16 -77q0 -41 21 -74t58 -55.5t86 -34.5t104 -12q110 0 192.5 38t145.5 99v-147v0z" />
    <glyph glyph-name="zeta" unicode="&#x3b6;" horiz-adv-x="985" 
d="M795 -315v292h-193q-122 0 -219.5 33.5t-165.5 94t-104.5 143.5t-36.5 182q0 68 18 132.5t51.5 132t82.5 141.5t110 161l383 555h-551v140h797l2 -4l-523 -764q-50 -73 -90.5 -136t-69.5 -121.5t-45 -114t-16 -114.5q0 -73 24 -134t73.5 -105t125 -68.5t177.5 -24.5h307
v-421h-137z" />
    <glyph glyph-name="eta" unicode="&#x3b7;" horiz-adv-x="1051" 
d="M774 -559v1163q0 63 -10 115t-34.5 89.5t-67.5 58t-109 20.5q-64 0 -113 -27t-82.5 -75t-51 -113t-17.5 -140v-532h-150v987h150v-141h4q46 78 122.5 121t182.5 43q156 0 241 -95t85 -278v-1196h-150z" />
    <glyph glyph-name="theta" unicode="&#x3b8;" horiz-adv-x="1227" 
d="M1145 836q0 -102 -14 -206t-43 -199.5t-72.5 -178.5t-103 -144.5t-134.5 -97t-166 -35.5t-165.5 35.5t-133.5 97t-102.5 144.5t-72 178.5t-42.5 199.5t-14 206t14.5 205t43 198.5t72.5 178.5t103 144t134 96.5t165 35.5q91 0 166 -35.5t134 -96.5t102.5 -144t72 -178.5
t42.5 -198.5t14 -205zM991 936q-9 141 -41.5 257t-83 198t-115 127t-137.5 45t-138.5 -44.5t-116 -126.5t-83 -198t-40.5 -258h755v0zM233 811q3 -158 33.5 -288t81.5 -222.5t119.5 -143.5t146.5 -51t146 50.5t119.5 143t82 222.5t31.5 289h-760z" />
    <glyph glyph-name="iota" unicode="&#x3b9;" 
d="M160 0v987h149v-987h-149z" />
    <glyph glyph-name="kappa" unicode="&#x3ba;" horiz-adv-x="893" 
d="M307 453l-18 -19v-434h-150v987h150v-422h2l393 422h184l-448 -461l469 -526h-187z" />
    <glyph glyph-name="lambda" unicode="&#x3bb;" horiz-adv-x="973" 
d="M805 0l-309 801h-4l-334 -801h-160l420 950l-295 717h164l682 -1667h-164z" />
    <glyph glyph-name="uni03BC" unicode="&#x3bc;" horiz-adv-x="1051" 
d="M289 983v-604q0 -62 9.5 -114t34 -89.5t67 -58.5t108.5 -21q64 0 113.5 27t83.5 75t51.5 113.5t17.5 141.5v530h150v-987h-150v141h-4q-45 -77 -115 -120.5t-172 -43.5q-62 0 -114.5 21.5t-83.5 64.5v-589h-146v1513h150z" />
    <glyph glyph-name="nu" unicode="&#x3bd;" horiz-adv-x="967" 
d="M508 -43h-49l-457 1030h162l321 -764h4l320 764h156z" />
    <glyph glyph-name="xi" unicode="&#x3be;" horiz-adv-x="956" 
d="M422 887q-61 26 -113 63.5t-89 86.5t-58 108t-21 127q0 89 34 167.5t94 137.5t142 93t179 34q45 0 89.5 -7.5t85 -21t77 -32.5t65.5 -41v-154q-25 24 -60 46t-76.5 39t-87 27.5t-91.5 10.5q-64 0 -119 -21.5t-95.5 -61.5t-63.5 -96t-23 -124q0 -76 32 -136.5t84.5 -102.5
t120 -64.5t138.5 -22.5h131v-135h-148q-106 0 -188 -25.5t-137.5 -72t-84 -112t-28.5 -144.5q0 -70 25 -132.5t76 -109t129.5 -73.5t185.5 -27h276v-426h-145v297h-154q-125 0 -225.5 34.5t-170.5 96t-107.5 146.5t-37.5 185q0 81 22.5 151.5t67.5 127.5t112.5 99t156.5 65z
" />
    <glyph glyph-name="omicron" unicode="&#x3bf;" horiz-adv-x="1163" 
d="M1102 494q0 -109 -38 -203.5t-107 -164t-165.5 -109.5t-213.5 -40t-212 40t-162.5 109.5t-104 164t-36.5 203.5q0 110 38 204t106.5 163.5t165 109t213.5 39.5q118 0 213.5 -40t162.5 -110t103.5 -164t36.5 -202zM958 494q0 77 -25 147.5t-73 124.5t-117 86.5t-157 32.5
q-87 0 -157.5 -32t-120 -85.5t-76.5 -124.5t-27 -149t25 -149t73 -125t117.5 -86t157.5 -32q90 0 160.5 31.5t119 85.5t74.5 125t26 150z" />
    <glyph glyph-name="pi" unicode="&#x3c0;" horiz-adv-x="1067" 
d="M778 852h-489v-852h-150v987h789v-987h-150v852z" />
    <glyph glyph-name="rho" unicode="&#x3c1;" horiz-adv-x="1180" 
d="M1118 498q0 -111 -35 -206t-99 -165t-153.5 -110t-197.5 -40q-54 0 -106.5 12t-100 35.5t-86.5 57.5t-66 78h-4v-719h-151v1026q0 125 38.5 225t107 171t162 109t204.5 38q108 0 197.5 -39.5t154 -108.5t100 -162.5t35.5 -201.5zM977 496q0 78 -25.5 148t-72 122
t-112 82.5t-146.5 30.5q-82 0 -148 -29.5t-113 -80.5t-72.5 -119t-25.5 -146q0 -80 23 -152.5t68 -127.5t111 -87.5t152 -32.5q83 0 149.5 32.5t113.5 86.5t72.5 125t25.5 148z" />
    <glyph glyph-name="sigma1" unicode="&#x3c2;" horiz-adv-x="991" 
d="M897 -315h-147v292h-136q-123 3 -224 41t-174 106t-113 162.5t-40 209.5q0 111 40 205.5t110.5 163t166.5 107t208 38.5q90 0 168.5 -23.5t146.5 -79.5v-153q-26 27 -60 51t-74.5 42t-86.5 28t-94 10q-81 0 -150.5 -29.5t-121.5 -81.5t-81.5 -123t-29.5 -155
q0 -83 30.5 -154.5t88 -124t141.5 -82t190 -29.5h242v-421z" />
    <glyph glyph-name="sigma" unicode="&#x3c3;" horiz-adv-x="1182" 
d="M954 481q0 76 -25 145.5t-72.5 122t-116.5 84t-156 31.5t-157 -30.5t-119.5 -83t-76 -122t-26.5 -147.5q0 -76 25 -145t72 -121.5t116 -83.5t157 -31q90 0 160.5 30.5t119 82.5t74 121t25.5 147zM905 850q43 -29 78.5 -69t60.5 -88.5t38.5 -105t13.5 -118.5
q0 -100 -37.5 -189.5t-106 -157t-164.5 -106.5t-213 -39t-211.5 39t-161 107t-103 160.5t-36.5 199.5q0 108 36 200.5t105.5 160t170 105.5t229.5 38h557v-135h-256v-2v0z" />
    <glyph glyph-name="tau" unicode="&#x3c4;" horiz-adv-x="784" 
d="M467 0h-150v852h-299v135h746v-135h-297v-852z" />
    <glyph glyph-name="upsilon" unicode="&#x3c5;" horiz-adv-x="1036" 
d="M909 397q0 -210 -98 -315t-291 -105q-100 0 -174 29.5t-122 84.5t-71.5 132.5t-23.5 173.5v590h150v-569q0 -67 10 -125.5t37.5 -101t75 -67t122.5 -24.5t121 24t71.5 66.5t34.5 101t9 126.5v569h149v-590v0z" />
    <glyph glyph-name="phi" unicode="&#x3c6;" horiz-adv-x="1309" 
d="M582 883q-81 -1 -150.5 -30.5t-119.5 -81.5t-78.5 -122.5t-28.5 -152.5q0 -83 29 -154t79.5 -123t119.5 -82t149 -31v777zM725 106q81 1 150.5 31t119.5 82.5t78.5 123.5t28.5 153t-29 152.5t-80 122.5t-120 81.5t-148 30.5v-777zM580 -23q-113 1 -208 41.5t-163.5 110.5
t-107 164.5t-38.5 202.5q0 109 39 202.5t108 162.5t164 108.5t206 40.5v682h147v-682q111 -1 206 -41t164.5 -109.5t108.5 -163t39 -200.5q0 -108 -39 -202t-108.5 -164t-164.5 -110.5t-206 -42.5v-536h-147v536v0z" />
    <glyph glyph-name="chi" unicode="&#x3c7;" horiz-adv-x="924" 
d="M748 0l-289 403h-4l-281 -403h-170l373 508l-350 479h174l262 -371h4l258 371h170l-350 -473l375 -514h-172z" />
    <glyph glyph-name="psi" unicode="&#x3c8;" horiz-adv-x="1430" 
d="M791 100q98 1 166 29.5t111.5 79.5t63 121t19.5 153v504h149v-516q0 -110 -32 -201t-96 -157t-159.5 -103.5t-221.5 -38.5v-532h-148v532q-128 1 -225 38t-161.5 103t-97 157.5t-32.5 201.5v516h149v-504q0 -83 21.5 -152.5t66.5 -120.5t114.5 -79.5t164.5 -30.5v1592
h148v-1592v0z" />
    <glyph glyph-name="omega" unicode="&#x3c9;" horiz-adv-x="1438" 
d="M715 270q-15 -78 -43.5 -133.5t-67.5 -90t-87 -50.5t-101 -16q-75 0 -137.5 32t-108 92t-71 147t-25.5 198q0 65 9 136t24.5 142t36 138t42.5 122h150q-25 -61 -46.5 -130t-37.5 -139t-24.5 -137t-8.5 -124q0 -167 57.5 -254.5t157.5 -87.5q46 0 85 23.5t67.5 71
t44.5 120.5t16 172v149h144v-149q0 -99 16 -172t44.5 -120.5t67.5 -71t85 -23.5q99 0 156 87.5t57 254.5q0 57 -8.5 124t-24 137t-36.5 139t-46 130h147q23 -55 43.5 -122t36 -138t24.5 -142t9 -136q0 -111 -25.5 -198t-71 -147t-108 -92t-137.5 -32q-53 0 -101 16.5
t-87.5 52t-68.5 90.5t-44 131h-4z" />
    <glyph glyph-name="iotadieresis" unicode="&#x3ca;" 
d="M160 0v987h149v-987h-149zM532 1319q0 -19 -8 -36t-21 -30t-30.5 -20.5t-36.5 -7.5t-36 7.5t-30 20.5t-20.5 30t-7.5 36q0 20 7.5 37t20.5 30t30 20t36 7t36.5 -7t30.5 -20t21 -30t8 -37zM125 1319q0 -19 -8 -36t-21 -30t-30.5 -20.5t-36.5 -7.5q-20 0 -37.5 7.5
t-30.5 20.5t-20 30t-7 36q0 40 27 67t68 27q19 0 36.5 -7t30.5 -20t21 -30t8 -37z" />
    <glyph glyph-name="upsilondieresis" unicode="&#x3cb;" horiz-adv-x="1036" 
d="M909 397q0 -210 -98 -315t-291 -105q-100 0 -174 29.5t-122 84.5t-71.5 132.5t-23.5 173.5v590h150v-569q0 -67 10 -125.5t37.5 -101t75 -67t122.5 -24.5t121 24t71.5 66.5t34.5 101t9 126.5v569h149v-590v0zM817 1319q0 -19 -8 -36t-21 -30t-30.5 -20.5t-36.5 -7.5
t-36 7.5t-30 20.5t-20.5 30t-7.5 36q0 20 7.5 37t20.5 30t30 20t36 7t36.5 -7t30.5 -20t21 -30t8 -37zM410 1319q0 -19 -8 -36t-21 -30t-30.5 -20.5t-37.5 -7.5t-37 7.5t-30 20.5t-20 30t-7 36q0 40 27 67t67 27q20 0 37.5 -7t30.5 -20t21 -30t8 -37z" />
    <glyph glyph-name="omicrontonos" unicode="&#x3cc;" horiz-adv-x="1163" 
d="M1102 494q0 -109 -38 -203.5t-107 -164t-165.5 -109.5t-213.5 -40t-212 40t-162.5 109.5t-104 164t-36.5 203.5q0 110 38 204t106.5 163.5t165 109t213.5 39.5q118 0 213.5 -40t162.5 -110t103.5 -164t36.5 -202zM958 494q0 77 -25 147.5t-73 124.5t-117 86.5t-157 32.5
q-87 0 -157.5 -32t-120 -85.5t-76.5 -124.5t-27 -149t25 -149t73 -125t117.5 -86t157.5 -32q90 0 160.5 31.5t119 85.5t74.5 125t26 150zM631 1151h-131l217 334h172z" />
    <glyph glyph-name="upsilontonos" unicode="&#x3cd;" horiz-adv-x="1036" 
d="M909 397q0 -210 -98 -315t-291 -105q-100 0 -174 29.5t-122 84.5t-71.5 132.5t-23.5 173.5v590h150v-569q0 -67 10 -125.5t37.5 -101t75 -67t122.5 -24.5t121 24t71.5 66.5t34.5 101t9 126.5v569h149v-590v0zM578 1151h-132l218 334h172z" />
    <glyph glyph-name="omegatonos" unicode="&#x3ce;" horiz-adv-x="1425" 
d="M715 270q-15 -78 -43.5 -133.5t-67.5 -90t-87 -50.5t-101 -16q-75 0 -137.5 32t-108 92t-71 147t-25.5 198q0 65 9 136t24.5 142t36 138t42.5 122h150q-25 -61 -46.5 -130t-37.5 -139t-24.5 -137t-8.5 -124q0 -167 57.5 -254.5t157.5 -87.5q46 0 85 23.5t67.5 71
t44.5 120.5t16 172v149h144v-149q0 -99 16 -172t44.5 -120.5t67.5 -71t85 -23.5q99 0 156 87.5t57 254.5q0 57 -8.5 124t-24 137t-36.5 139t-46 130h147q23 -55 43.5 -122t36 -138t24.5 -142t9 -136q0 -111 -25.5 -198t-71 -147t-108 -92t-137.5 -32q-53 0 -101 16.5
t-87.5 52t-68.5 90.5t-44 131h-4zM750 1151h-132l218 334h172z" />
    <glyph glyph-name="afii10023" unicode="&#x401;" horiz-adv-x="1059" 
d="M156 0v1544h774v-155h-598v-498h579v-152h-579v-583h598v-156h-774zM850 1819q0 -20 -8 -38.5t-22 -32.5t-32.5 -22t-39.5 -8t-39.5 8t-32 22t-21.5 32.5t-8 38.5q0 21 8 40t21.5 32.5t32 21.5t39.5 8t39.5 -8t32.5 -21.5t22 -32.5t8 -40zM436 1819q0 -20 -8 -38.5
t-22 -32.5t-32.5 -22t-39.5 -8q-22 0 -41 8t-33 22t-22.5 32.5t-8.5 38.5q0 21 8.5 40t22.5 32.5t33 21.5t41 8q21 0 39.5 -8t32.5 -21.5t22 -32.5t8 -40z" />
    <glyph glyph-name="afii10051" unicode="&#x402;" horiz-adv-x="1573" 
d="M969 147q188 0 279 78.5t91 233.5q0 78 -27 135t-76 94.5t-118 55.5t-153 18h-392v-762h-174v1395h-383v149h938v-149h-381v-482h416q116 0 211.5 -28.5t164 -85t106.5 -141t38 -195.5q0 -112 -35.5 -198.5t-103 -145t-166 -89t-225.5 -30.5h-10v147z" />
    <glyph glyph-name="afii10052" unicode="&#x403;" horiz-adv-x="928" 
d="M911 1389h-581v-1389h-174v1544h755v-155zM541 1653h-144l217 334h189z" />
    <glyph glyph-name="afii10053" unicode="&#x404;" horiz-adv-x="1479" 
d="M250 711q12 -121 66.5 -226t140 -183t196.5 -122.5t236 -44.5q62 0 128.5 14.5t130.5 41.5t120 65t96 84h4v-203q-105 -77 -225 -119.5t-256 -42.5q-120 0 -227 28.5t-197.5 80.5t-163 125t-123 161.5t-77.5 190.5t-27 211t27.5 211t79 190.5t124 161.5t163 125
t196.5 80.5t223 28.5q139 0 263 -43.5t220 -124.5v-205l-4 -2q-41 48 -96 87t-118 67t-130.5 43.5t-134.5 15.5q-124 0 -232.5 -40.5t-192 -113.5t-137.5 -172.5t-69 -218.5h817v-151h-821v0z" />
    <glyph glyph-name="afii10054" unicode="&#x405;" horiz-adv-x="1114" 
d="M1024 428q0 -91 -33.5 -174t-96.5 -145t-153 -99t-202 -37q-85 0 -160 21t-137 59t-111 93t-84 122l139 99q59 -113 144.5 -175.5t210.5 -62.5q71 0 127 23.5t95 63.5t60 92t21 110q0 49 -13 90.5t-42.5 77.5t-76 69t-114.5 64l-115 53q-74 33 -135.5 71t-105.5 85.5
t-68 106.5t-24 134q0 85 31.5 157.5t87.5 126t133 84t167 30.5q69 0 130.5 -14.5t114 -41.5t95.5 -65t76 -84l-113 -123q-30 36 -61.5 67.5t-67 54.5t-76.5 36.5t-89 13.5q-55 0 -101.5 -16t-80 -45t-52 -71t-18.5 -93q0 -50 14.5 -88t46 -70t81.5 -60.5t120 -60.5l112 -51
q86 -38 147 -81.5t100.5 -95.5t58 -114t18.5 -137z" />
    <glyph glyph-name="afii10055" unicode="&#x406;" horiz-adv-x="485" 
d="M156 0v1544h176v-1544h-176z" />
    <glyph glyph-name="afii10056" unicode="&#x407;" horiz-adv-x="485" 
d="M156 0v1544h176v-1544h-176zM555 1819q0 -20 -8 -38.5t-22 -32.5t-32.5 -22t-39.5 -8t-39.5 8t-32 22t-21.5 32.5t-8 38.5q0 21 8 40t21.5 32.5t32 21.5t39.5 8t39.5 -8t32.5 -21.5t22 -32.5t8 -40zM141 1819q0 -20 -8 -38.5t-22 -32.5t-32.5 -22t-39.5 -8t-40.5 8
t-33.5 22t-22.5 32.5t-8.5 38.5q0 21 8.5 40t22.5 32.5t33.5 21.5t40.5 8t39.5 -8t32.5 -21.5t22 -32.5t8 -40z" />
    <glyph glyph-name="afii10057" unicode="&#x408;" horiz-adv-x="743" 
d="M604 358q0 -101 -20.5 -174t-60.5 -120t-99 -69t-135 -22q-82 0 -147 29t-117 92l90 137q40 -51 85.5 -75.5t92.5 -24.5q33 0 58 13t42.5 41.5t26 74.5t8.5 113v1171h176v-1186v0z" />
    <glyph glyph-name="afii10058" unicode="&#x409;" horiz-adv-x="2122" 
d="M1507 150q96 0 167 21.5t117.5 62t69.5 98.5t23 131t-22 130.5t-67.5 97t-115.5 60.5t-166 21h-213v-622h207v0zM1126 1239h-2l-919 -1239h-203l1186 1581h112v-661h244q120 0 215.5 -31.5t161.5 -90.5t101.5 -144t35.5 -193t-36.5 -193.5t-104.5 -145t-164.5 -91
t-216.5 -31.5h-410v1239z" />
    <glyph glyph-name="afii10059" unicode="&#x40a;" horiz-adv-x="2097" 
d="M1483 150q96 0 167 21.5t117.5 62t69.5 98.5t23 131t-22 130.5t-67.5 97t-115.5 60.5t-166 21h-213v-622h207v0zM330 756v-756h-174v1544h174v-641h772v641h174v-624h244q120 0 215 -31.5t161.5 -90.5t102 -144t35.5 -193t-36.5 -193.5t-105 -145t-165 -91t-216.5 -31.5
h-409v756h-772z" />
    <glyph glyph-name="afii10060" unicode="&#x40b;" horiz-adv-x="1626" 
d="M16 1395v149h938v-149h-381v-482h471q117 0 203.5 -29.5t144 -83.5t85.5 -130.5t28 -171.5v-498h-174v487q0 63 -17.5 114t-55.5 86.5t-98 55t-144 19.5h-443v-762h-174v1395h-383z" />
    <glyph glyph-name="afii10061" unicode="&#x40c;" horiz-adv-x="1243" 
d="M1028 0l-663 719l-33 -31v-688h-176v1544h176v-704h2l663 704h215l-708 -739l749 -805h-225zM657 1653h-143l217 334h189z" />
    <glyph glyph-name="afii10062" unicode="&#x40e;" horiz-adv-x="1225" 
d="M-2 1544h190l451 -776l401 776h185l-807 -1544h-189l320 602zM958 1917q-4 -61 -30.5 -111t-70.5 -84.5t-102 -53.5t-124 -19q-67 0 -126 19t-103 53.5t-71 84.5t-32 111h135q7 -32 24 -60t42.5 -48.5t58.5 -32t72 -11.5q38 0 71 11.5t58.5 32t42.5 48.5t24 60h131v0z
" />
    <glyph glyph-name="afii10145" unicode="&#x40f;" horiz-adv-x="1507" 
d="M156 0v1544h174v-1397h850v1397h174v-1544h-516v-328h-166v328h-516z" />
    <glyph glyph-name="afii10017" unicode="&#x410;" horiz-adv-x="1384" 
d="M1190 0l-178 446h-645l-181 -446h-182l643 1581h94l637 -1581h-188zM690 1260h-2l-266 -666h534z" />
    <glyph glyph-name="afii10018" unicode="&#x411;" horiz-adv-x="1151" 
d="M860 1544v-151h-530v-473h243q120 0 215.5 -31.5t161.5 -90.5t101.5 -144t35.5 -193t-36 -193.5t-103.5 -145t-164 -91t-216.5 -31.5h-411v1544h704zM537 150q96 0 167 21.5t117.5 62t69 98.5t22.5 131t-21.5 130.5t-66.5 97t-114.5 60.5t-165.5 21h-215v-622h207v0z" />
    <glyph glyph-name="afii10019" unicode="&#x412;" horiz-adv-x="1174" 
d="M1092 438q0 -96 -32.5 -176.5t-95.5 -138.5t-155 -90.5t-211 -32.5h-442v1544h376q111 0 197 -27t145 -78t90 -123.5t31 -164.5q0 -108 -53.5 -194t-163.5 -136q-1 -1 -1 -2q0 -2 1 -2q76 -17 134.5 -52t98.5 -84.5t60.5 -111t20.5 -131.5zM829 1143q0 125 -83 189.5
t-244 64.5h-170v-529h192q75 0 132.5 20t95.5 56.5t57.5 87t19.5 111.5zM920 444q0 62 -22 113t-66 88t-111.5 57.5t-159.5 20.5h-229v-576h233q92 0 159 22t110.5 62t64.5 94.5t21 118.5z" />
    <glyph glyph-name="afii10020" unicode="&#x413;" horiz-adv-x="928" 
d="M911 1389h-581v-1389h-174v1544h755v-155z" />
    <glyph glyph-name="afii10021" unicode="&#x414;" horiz-adv-x="1464" 
d="M690 1581h90l561 -1434h109v-475h-168v328h-1100v-328h-168v475h109zM731 1266h-4l-424 -1119h850z" />
    <glyph glyph-name="afii10022" unicode="&#x415;" horiz-adv-x="1059" 
d="M156 0v1544h774v-155h-598v-498h579v-152h-579v-583h598v-156h-774z" />
    <glyph glyph-name="afii10024" unicode="&#x416;" horiz-adv-x="1909" 
d="M1040 1544v-706h2l619 706h215l-664 -741l705 -803h-225l-623 723l-29 -31v-692h-174v692l-30 35l-627 -727h-217l704 803l-663 741h213l618 -704h2v704h174z" />
    <glyph glyph-name="afii10025" unicode="&#x417;" horiz-adv-x="1145" 
d="M494 868q81 0 147 21.5t113.5 59.5t73.5 90.5t26 113.5q0 63 -22 111t-63.5 81t-100 49.5t-131.5 16.5q-122 0 -223.5 -42.5t-182.5 -121.5h-4v187q49 34 97.5 59t99.5 41.5t107 24.5t120 8q108 0 195 -27.5t149 -80t95.5 -127t33.5 -169.5q0 -57 -20 -111.5t-56 -101.5
t-86.5 -84t-111.5 -59v-4q75 -17 133 -53.5t97.5 -87.5t60 -112.5t20.5 -129.5q0 -97 -36.5 -179t-104.5 -141t-164 -92t-215 -33q-69 0 -126 6.5t-107.5 22.5t-98 41.5t-98.5 63.5v194h4q85 -90 191 -132t231 -42q83 0 148.5 23t111.5 63t70 95.5t24 119.5q0 62 -23.5 115
t-70.5 91.5t-117 60.5t-162 22h-149v149h125v0z" />
    <glyph glyph-name="afii10026" unicode="&#x418;" horiz-adv-x="1675" 
d="M156 1544h174v-1247h2l1091 1262h95v-1559h-172v1229h-3l-1091 -1266h-96v1581z" />
    <glyph glyph-name="afii10027" unicode="&#x419;" horiz-adv-x="1675" 
d="M1165 1927q-4 -61 -30.5 -111t-70.5 -84.5t-102 -53.5t-124 -19q-68 0 -126.5 19t-103 53.5t-71 84.5t-31.5 111h135q7 -32 23.5 -59.5t42 -48t59 -32t72.5 -11.5q38 0 71 11.5t58.5 32t42.5 48t24 59.5h131v0zM156 1544h174v-1247h2l1091 1262h95v-1559h-172v1229h-3
l-1091 -1266h-96v1581z" />
    <glyph glyph-name="afii10028" unicode="&#x41a;" horiz-adv-x="1245" 
d="M1028 0l-663 719l-33 -31v-688h-176v1544h176v-704h2l663 704h215l-708 -739l749 -805h-225z" />
    <glyph glyph-name="afii10029" unicode="&#x41b;" horiz-adv-x="1337" 
d="M641 1581h61l633 -1581h-188l-479 1235h-4l-480 -1235h-182z" />
    <glyph glyph-name="afii10030" unicode="&#x41c;" horiz-adv-x="1882" 
d="M1677 0l-219 1176h-4l-496 -1213h-43l-487 1215h-4l-227 -1178h-172l313 1581h102l502 -1257l506 1257h104l306 -1581h-181z" />
    <glyph glyph-name="afii10031" unicode="&#x41d;" horiz-adv-x="1507" 
d="M1180 0v756h-848v-756h-176v1544h176v-639h848v639h174v-1544h-174z" />
    <glyph glyph-name="afii10032" unicode="&#x41e;" horiz-adv-x="1757" 
d="M1688 772q0 -110 -28 -212t-80 -190.5t-124.5 -162t-162.5 -125.5t-194 -80.5t-218 -28.5q-117 0 -222.5 28.5t-195.5 81t-162.5 125.5t-124 162t-79 191.5t-27.5 212.5q0 109 28 211t79.5 190.5t124 161.5t162 125t194 80.5t219.5 28.5q114 0 219 -28.5t195 -80.5
t163.5 -125.5t125 -162t80 -190.5t28.5 -212zM1509 772q0 87 -22.5 169t-63.5 153t-98.5 130t-128 101t-151 65t-168.5 23q-135 0 -250.5 -49t-199.5 -135t-131.5 -203t-47.5 -252q0 -88 22.5 -170t63.5 -153.5t98.5 -130t127.5 -101t151.5 -65.5t169.5 -23
q134 0 248.5 48.5t199 134.5t132.5 203.5t48 254.5z" />
    <glyph glyph-name="afii10033" unicode="&#x41f;" horiz-adv-x="1507" 
d="M1180 0v1395h-850v-1395h-174v1544h1198v-1544h-174z" />
    <glyph glyph-name="afii10034" unicode="&#x420;" horiz-adv-x="1065" 
d="M1004 1110q0 -96 -30 -175.5t-89.5 -136.5t-147 -88.5t-202.5 -31.5h-203v-678h-176v1544h376q116 0 204 -32t147.5 -89t90 -137t30.5 -176zM831 1110q0 65 -19 117.5t-59 89.5t-103 56.5t-150 19.5h-168v-566h168q87 0 150 20t103 56.5t59 89t19 117.5z" />
    <glyph glyph-name="afii10035" unicode="&#x421;" horiz-adv-x="1462" 
d="M1356 137q-107 -77 -223.5 -120.5t-249.5 -43.5q-179 0 -328 63t-256.5 172t-167 254.5t-59.5 311.5q0 109 27.5 211t78 190.5t123 161.5t162.5 125t195.5 80.5t222.5 28.5q137 0 257.5 -43.5t217.5 -124.5v-207l-4 -2q-41 48 -95 87.5t-115.5 67.5t-128 43t-132.5 15
q-136 0 -251.5 -48t-200 -133t-132 -201t-47.5 -251q0 -132 49.5 -248t135.5 -202.5t202 -136.5t248 -50q61 0 126.5 14.5t127.5 41t117.5 64.5t95.5 85l4 -2v-203v0z" />
    <glyph glyph-name="afii10036" unicode="&#x422;" horiz-adv-x="981" 
d="M573 1389v-1389h-174v1389h-381v155h938v-155h-383z" />
    <glyph glyph-name="afii10037" unicode="&#x423;" horiz-adv-x="1225" 
d="M-2 1544h190l451 -776l401 776h185l-807 -1544h-189l320 602z" />
    <glyph glyph-name="afii10038" unicode="&#x424;" horiz-adv-x="1604" 
d="M717 1223h-10q-100 0 -184.5 -34t-146 -93.5t-96 -140.5t-34.5 -175t35.5 -175t97.5 -141t146 -94t182 -34h10v887zM887 336h10q100 0 184 34t145 94t95.5 141t34.5 175t-35.5 175t-97.5 140.5t-145.5 93.5t-180.5 34h-10v-887zM897 1372q134 0 250.5 -45.5t202.5 -125
t135 -188t49 -233.5q0 -126 -50 -234.5t-136 -188.5t-202.5 -125.5t-250.5 -45.5h-8v-186h-172v186h-4q-137 0 -254 45.5t-203 125.5t-135 188.5t-49 234.5q0 83 22.5 159.5t63.5 142.5t98.5 119.5t128 91.5t152 58.5t170.5 20.5h10v172h172v-172h10z" />
    <glyph glyph-name="afii10039" unicode="&#x425;" horiz-adv-x="1190" 
d="M952 0l-356 643h-4l-363 -643h-192l465 786l-445 758h203l336 -612h4l344 612h197l-451 -758l459 -786h-197z" />
    <glyph glyph-name="afii10040" unicode="&#x426;" horiz-adv-x="1534" 
d="M156 1544h174v-1397h850v1397h174v-1397h114v-475h-165v328h-1147v1544z" />
    <glyph glyph-name="afii10041" unicode="&#x427;" horiz-adv-x="1366" 
d="M293 1057q0 -63 18 -114t56 -87.5t97 -56t140 -19.5h426v764h174v-1544h-174v629h-455q-114 0 -199.5 29.5t-142.5 84t-85.5 131t-28.5 170.5v500h174v-487v0z" />
    <glyph glyph-name="afii10042" unicode="&#x428;" horiz-adv-x="1982" 
d="M1651 147v1397h174v-1544h-1669v1544h174v-1397h573v1397h174v-1397h574z" />
    <glyph glyph-name="afii10043" unicode="&#x429;" horiz-adv-x="2007" 
d="M903 1544h174v-1397h574v1397h174v-1397h117v-475h-168v328h-1618v1544h174v-1397h573v1397z" />
    <glyph glyph-name="afii10044" unicode="&#x42a;" horiz-adv-x="1348" 
d="M733 150q96 0 167 21.5t117.5 62t69.5 98.5t23 131t-22 130.5t-67.5 97t-115.5 60.5t-166 21h-213v-622h207v0zM770 920q120 0 215.5 -31.5t161.5 -90.5t101.5 -144t35.5 -193t-36.5 -193.5t-104.5 -145t-164.5 -91t-216.5 -31.5h-410v1395h-336v149h510v-624h244z" />
    <glyph glyph-name="afii10045" unicode="&#x42b;" horiz-adv-x="1632" 
d="M1300 0v1544h175v-1544h-175zM330 1544v-624h243q120 0 215.5 -31.5t161.5 -90.5t101.5 -144t35.5 -193t-36 -193.5t-103.5 -145t-164 -91t-216.5 -31.5h-411v1544h174zM537 150q96 0 167 21.5t117.5 62t69 98.5t22.5 131t-21.5 130.5t-66.5 97t-114.5 60.5t-165.5 21
h-215v-622h207v0z" />
    <glyph glyph-name="afii10046" unicode="&#x42c;" horiz-adv-x="1151" 
d="M330 1544v-624h243q120 0 215.5 -31.5t161.5 -90.5t101.5 -144t35.5 -193t-36 -193.5t-103.5 -145t-164 -91t-216.5 -31.5h-411v1544h174zM537 150q96 0 167 21.5t117.5 62t69 98.5t22.5 131t-21.5 130.5t-66.5 97t-114.5 60.5t-165.5 21h-215v-622h207v0z" />
    <glyph glyph-name="afii10047" unicode="&#x42d;" horiz-adv-x="1479" 
d="M1227 862q-15 119 -66 219t-132 173t-189 114t-236 41q-64 0 -134 -14.5t-135.5 -41.5t-122.5 -65t-97 -84h-4v201q105 81 231 122.5t266 41.5q184 0 331.5 -62.5t251.5 -170t160 -252t56 -308.5t-56 -310t-160.5 -255t-252.5 -172.5t-332 -63.5q-68 0 -136 10.5
t-132 31.5t-121.5 51t-105.5 69v205h4q41 -46 96.5 -84t120 -65t134.5 -41.5t138 -14.5q132 0 242.5 44t192 121.5t131.5 182.5t61 226h-823v151h819v0z" />
    <glyph glyph-name="afii10048" unicode="&#x42e;" horiz-adv-x="2335" 
d="M2089 772q0 87 -22.5 169t-63.5 153t-98 130t-127 101t-150.5 65t-167.5 23q-134 0 -248.5 -49.5t-198.5 -135.5t-131.5 -203.5t-47.5 -252.5q0 -131 49 -247.5t134 -204t199.5 -138.5t245.5 -51q135 0 249.5 48.5t198.5 134.5t131.5 203.5t47.5 254.5zM330 756v-756
h-174v1544h174v-641h338q23 141 92 263t173.5 211.5t239 140.5t287.5 51q114 0 217.5 -28.5t193 -80.5t162.5 -125t124.5 -161.5t79.5 -190t28 -211.5q0 -109 -28 -211t-79 -190.5t-123.5 -161.5t-162 -125t-193 -80.5t-217.5 -28.5t-217.5 28t-192 79t-160.5 122.5
t-123.5 158t-80.5 186.5t-31 207h-327z" />
    <glyph glyph-name="afii10049" unicode="&#x42f;" horiz-adv-x="1092" 
d="M537 705q-206 18 -312 125.5t-106 285.5q0 98 33 177t98.5 134.5t163 86t227.5 30.5h293v-1544h-174v696h-39l-479 -696h-203zM297 1112q0 -65 21.5 -117.5t64 -89t106.5 -56.5t148 -20h123v568h-84q-101 0 -173 -18.5t-117.5 -54.5t-67 -89t-21.5 -123z" />
    <glyph glyph-name="afii10065" unicode="&#x430;" horiz-adv-x="1208" 
d="M922 0v168h-4q-23 -45 -61.5 -81t-86.5 -61t-102 -38t-109 -13q-106 0 -195 39.5t-153.5 110t-100.5 167t-36 210.5q0 107 35 201t99 163.5t154 109.5t199 40q55 0 107 -12t98.5 -35.5t85 -57t66.5 -77.5h4v157h163v-991h-163zM928 508q0 75 -24.5 142.5t-70.5 117.5
t-110.5 79.5t-144.5 29.5q-82 0 -146.5 -29.5t-109.5 -81t-69 -120.5t-24 -148q0 -75 25 -144.5t71.5 -122.5t112 -84.5t146.5 -31.5q84 0 148 32t107.5 86t66 125.5t22.5 149.5z" />
    <glyph glyph-name="afii10066" unicode="&#x431;" horiz-adv-x="1210" 
d="M981 500q0 78 -23 145.5t-68 118t-111.5 79.5t-153.5 29q-81 0 -148.5 -30t-116.5 -81.5t-76.5 -119.5t-27.5 -145q0 -79 25.5 -148.5t72.5 -121t114 -81.5t150 -30q81 0 148 31t114.5 84t74 122.5t26.5 147.5zM1016 1546q-156 -7 -287.5 -55.5t-230.5 -142
t-162.5 -233.5t-83.5 -329l2 -4q28 48 69 89.5t93 72t113 47.5t128 17q109 0 198 -37.5t152 -105t97.5 -160t34.5 -203.5q0 -109 -40 -204.5t-110.5 -167t-166.5 -112.5t-208 -41q-120 0 -220.5 46.5t-168.5 128.5q-71 83 -104 202.5t-33 272.5q0 243 65.5 437t186 331
t292 213t384.5 84v-146v0z" />
    <glyph glyph-name="afii10067" unicode="&#x432;" horiz-adv-x="948" 
d="M135 0v989h381q74 0 131 -18t96 -51.5t59.5 -80.5t20.5 -106q0 -34 -11.5 -66.5t-31.5 -59.5t-48 -48t-60 -33v-2q45 -8 83 -29t65.5 -52.5t43 -72t15.5 -87.5q0 -61 -21 -113t-62.5 -90t-102 -59t-138.5 -21h-420zM297 864v-297h201q41 0 73 12t54 33t33.5 49.5
t11.5 61.5q0 68 -47.5 104.5t-137.5 36.5h-188zM297 451v-326h223q51 0 89 12.5t63 34.5t37 52.5t12 66.5q0 34 -13 63t-38.5 50.5t-64 34t-89.5 12.5h-219z" />
    <glyph glyph-name="afii10068" unicode="&#x433;" horiz-adv-x="750" 
d="M299 844v-844h-164v989h586v-145h-422z" />
    <glyph glyph-name="afii10069" unicode="&#x434;" horiz-adv-x="1110" 
d="M506 1030h98l389 -891h99v-422h-152v283h-770v-283h-152v422h99zM553 797h-4l-264 -658h534z" />
    <glyph glyph-name="afii10070" unicode="&#x435;" horiz-adv-x="1116" 
d="M223 469q2 -84 30.5 -151t76.5 -114t112.5 -72.5t137.5 -25.5q109 0 187.5 52.5t131.5 140.5l141 -31q-31 -70 -79 -124.5t-109.5 -92t-133 -57t-149.5 -19.5q-115 0 -209 39.5t-160.5 109.5t-102.5 165.5t-36 206.5q0 109 36.5 203.5t103 165t159 111t203.5 40.5
q119 0 211.5 -39.5t155.5 -111t96 -172.5t31 -224h-834zM895 582q-11 66 -35.5 122t-64.5 97.5t-97.5 64.5t-134.5 23q-70 0 -129 -24t-102.5 -65t-71 -97t-35.5 -121h670v0z" />
    <glyph glyph-name="afii10072" unicode="&#x436;" horiz-adv-x="1376" 
d="M768 561l389 428h197l-441 -467l459 -522h-196l-388 451l-22 -23v-428h-158v428l-22 23l-387 -451h-197l461 520l-440 469h194l389 -426h2v426h158v-428h2z" />
    <glyph glyph-name="afii10073" unicode="&#x437;" horiz-adv-x="831" 
d="M389 104q54 0 97 14.5t73.5 38.5t47 55t16.5 64q0 35 -15.5 66t-46.5 54t-77.5 36.5t-108.5 13.5h-152v129h142q52 0 94.5 11.5t73 32.5t47 50t16.5 64q0 33 -14.5 61t-42.5 48t-69 31.5t-93 11.5q-43 0 -86.5 -9t-84 -26t-75.5 -40t-61 -52v160q68 49 148 72.5t165 23.5
t152.5 -18.5t114 -53.5t71 -85t24.5 -112q0 -42 -16.5 -78.5t-43.5 -65.5t-62.5 -49.5t-73.5 -31.5v-4q50 -7 92 -29.5t72.5 -56t47.5 -76t17 -88.5q0 -61 -27 -114t-77.5 -92t-121.5 -61t-159 -22q-103 0 -182.5 23.5t-149.5 73.5v155q27 -26 64 -48.5t79.5 -39.5t89.5 -27
t95 -10z" />
    <glyph glyph-name="afii10074" unicode="&#x438;" horiz-adv-x="1153" 
d="M135 -23v1012h162v-719h2l633 729h86v-999h-162v707h-2l-635 -730h-84z" />
    <glyph glyph-name="afii10075" unicode="&#x439;" horiz-adv-x="1153" 
d="M905 1423q-4 -61 -30.5 -110.5t-70.5 -84.5t-102 -54t-124 -19q-68 0 -126.5 19t-103 54t-71 84.5t-31.5 110.5h135q7 -32 23.5 -59.5t42 -48t59 -32t72.5 -11.5q38 0 71 11.5t58.5 32t42.5 48t24 59.5h131v0zM135 -23v1012h162v-719h2l633 729h86v-999h-162v707h-2
l-635 -730h-84z" />
    <glyph glyph-name="afii10076" unicode="&#x43a;" horiz-adv-x="907" 
d="M317 451l-18 -19v-432h-164v989h164v-418h2l387 418h201l-449 -463l469 -526h-204z" />
    <glyph glyph-name="afii10077" unicode="&#x43b;" horiz-adv-x="979" 
d="M442 1030h93l446 -1030h-178l-316 770h-4l-313 -770h-170z" />
    <glyph glyph-name="afii10078" unicode="&#x43c;" horiz-adv-x="1247" 
d="M936 659h-4l-281 -686h-63l-281 686h-4l-135 -659h-158l207 1014h90l314 -756h4l311 756h86l213 -1014h-166z" />
    <glyph glyph-name="afii10079" unicode="&#x43d;" horiz-adv-x="1116" 
d="M817 457h-518v-457h-164v989h164v-387h518v387h164v-989h-164v457z" />
    <glyph glyph-name="afii10080" unicode="&#x43e;" horiz-adv-x="1171" 
d="M1110 496q0 -110 -38 -205t-107.5 -165.5t-166.5 -110.5t-214 -40q-118 0 -215 40t-165 110.5t-105.5 165.5t-37.5 205q0 111 38 206.5t108 165t167.5 109t215.5 39.5q120 0 216 -40.5t163.5 -111t104 -165t36.5 -203.5zM954 496q0 75 -24.5 144t-71.5 121.5t-114.5 84
t-153.5 31.5q-85 0 -154 -31t-118 -83t-75 -121t-26 -146q0 -76 24.5 -145t72 -121.5t115.5 -83.5t155 -31t155.5 30.5t116 82.5t73 121t25.5 147z" />
    <glyph glyph-name="afii10081" unicode="&#x43f;" horiz-adv-x="1079" 
d="M780 844h-481v-844h-164v989h809v-989h-164v844z" />
    <glyph glyph-name="afii10082" unicode="&#x440;" horiz-adv-x="1219" 
d="M1149 506q0 -114 -36 -211t-100 -168t-153 -111.5t-196 -40.5q-55 0 -108 12.5t-100 35.5t-86 57t-65 76h-4v-711h-166v1546h166v-149h4q30 41 70 73.5t87 55t99 34t107 11.5q109 0 197.5 -39.5t151.5 -108t97.5 -161.5t34.5 -201zM993 500q0 76 -25 143.5t-70.5 118.5
t-110 80.5t-142.5 29.5q-80 0 -145 -28.5t-111 -78t-71 -116t-25 -141.5q0 -78 22.5 -149t67 -125t109.5 -85.5t149 -31.5q80 0 145 31.5t111 84.5t71 122.5t25 144.5z" />
    <glyph glyph-name="afii10083" unicode="&#x441;" horiz-adv-x="991" 
d="M911 82q-71 -56 -150 -81.5t-173 -25.5q-108 0 -204 38t-168 106.5t-113.5 165t-41.5 213.5q0 112 40.5 207t111.5 164t168 108t211 39q90 0 167.5 -23.5t143.5 -77.5v-165q-25 27 -58.5 50t-73.5 40t-84.5 27t-92.5 10q-79 0 -148 -28.5t-120 -78.5t-80 -119.5
t-29 -150.5t29.5 -151t81 -121.5t121.5 -81t151 -29.5q100 0 177 35.5t134 95.5v-166v0z" />
    <glyph glyph-name="afii10084" unicode="&#x442;" horiz-adv-x="782" 
d="M473 0h-164v844h-297v145h758v-145h-297v-844z" />
    <glyph glyph-name="afii10085" unicode="&#x443;" horiz-adv-x="1047" 
d="M367 -555h-172l258 578l-473 968h184l373 -794h4l340 794h174z" />
    <glyph glyph-name="afii10086" unicode="&#x444;" horiz-adv-x="1327" 
d="M739 117q80 1 148 30t117.5 79.5t77.5 119.5t28 150t-29 150t-79 119.5t-117.5 79.5t-145.5 29v-757zM586 874q-80 -1 -147.5 -30t-117 -79.5t-77 -119t-27.5 -149.5t28.5 -150t78 -120t117 -80t145.5 -29v757zM584 -23q-115 1 -211.5 41.5t-165.5 110t-107.5 164
t-38.5 203.5q0 110 39.5 204t109 163.5t165.5 109.5t209 41v678h159v-678q113 -1 209 -41.5t165.5 -110.5t109 -164t39.5 -202t-40 -202.5t-110 -164.5t-166 -110.5t-207 -41.5v-532h-159v532v0z" />
    <glyph glyph-name="afii10087" unicode="&#x445;" horiz-adv-x="944" 
d="M752 0l-283 395h-4l-277 -395h-186l377 510l-354 481h192l256 -364h4l254 364h187l-355 -477l377 -514h-188z" />
    <glyph glyph-name="afii10088" unicode="&#x446;" horiz-adv-x="1112" 
d="M135 989h164v-844h481v844h164v-844h107v-428h-156v283h-760v989z" />
    <glyph glyph-name="afii10089" unicode="&#x447;" horiz-adv-x="1006" 
d="M705 526v463h163v-989h-163v381h-328q-76 0 -133 20.5t-94.5 58t-56.5 90t-19 116.5v323h164v-319q0 -66 36.5 -105t120.5 -39h310z" />
    <glyph glyph-name="afii10090" unicode="&#x448;" horiz-adv-x="1542" 
d="M1243 145v844h164v-989h-1272v989h164v-844h389v844h164v-844h391z" />
    <glyph glyph-name="afii10091" unicode="&#x449;" horiz-adv-x="1575" 
d="M688 989h164v-844h391v844h164v-844h106v-428h-155v283h-1223v989h164v-844h389v844z" />
    <glyph glyph-name="afii10092" unicode="&#x44a;" horiz-adv-x="1083" 
d="M854 309q0 84 -51.5 130t-153.5 46h-209v-352h207q103 0 155 47.5t52 128.5zM12 850v139h428v-368h232q79 0 142.5 -21.5t107.5 -62t68 -98.5t24 -130q0 -71 -24 -128.5t-68 -97.5t-107.5 -61.5t-142.5 -21.5h-396v850h-264z" />
    <glyph glyph-name="afii10093" unicode="&#x44b;" horiz-adv-x="1386" 
d="M299 621h231q79 0 142.5 -21.5t107.5 -62t68 -98.5t24 -130q0 -71 -24 -128.5t-69 -97.5t-108.5 -61.5t-142.5 -21.5h-393v989h164v-368zM713 309q0 84 -51.5 130t-153.5 46h-209v-352h207q103 0 155 47.5t52 128.5zM1071 0v989h164v-989h-164z" />
    <glyph glyph-name="afii10094" unicode="&#x44c;" horiz-adv-x="942" 
d="M299 621h231q79 0 142.5 -21.5t107.5 -62t68 -98.5t24 -130q0 -71 -24 -128.5t-69 -97.5t-108.5 -61.5t-142.5 -21.5h-393v989h164v-368zM713 309q0 84 -51.5 130t-153.5 46h-209v-352h207q103 0 155 47.5t52 128.5z" />
    <glyph glyph-name="afii10095" unicode="&#x44d;" horiz-adv-x="995" 
d="M242 438v133h534q-12 69 -46 126t-84 98t-114 63.5t-137 22.5q-99 0 -178.5 -33t-138.5 -90v157q71 54 151 76.5t174 22.5q110 0 206.5 -38.5t168 -107.5t113 -164t41.5 -208q0 -115 -41 -211t-113 -164t-170.5 -106t-214.5 -38q-91 0 -174.5 26t-148.5 79v156
q26 -28 61 -52t76.5 -42t87.5 -28t94 -10q79 0 146.5 24.5t119 68.5t84 105t41.5 134h-538z" />
    <glyph glyph-name="afii10096" unicode="&#x44e;" horiz-adv-x="1616" 
d="M1399 494q0 75 -24.5 144t-70.5 122.5t-113 85t-153 31.5q-84 0 -152 -31t-116 -83.5t-74 -122t-26 -146.5q0 -76 24 -145t70 -121.5t113 -83.5t153 -31q88 0 156.5 30.5t116 82.5t72 121t24.5 147zM299 457v-457h-164v989h164v-387h227q17 90 60.5 165.5t109.5 130.5
t152.5 85.5t189.5 30.5q119 0 214.5 -40.5t162.5 -111t103 -165.5t36 -203q0 -109 -38 -203.5t-107 -164t-165.5 -109.5t-213.5 -40q-113 0 -205 36.5t-158.5 101t-105 152.5t-43.5 190h-219z" />
    <glyph glyph-name="afii10097" unicode="&#x44f;" horiz-adv-x="907" 
d="M365 432q-63 11 -114 34t-87.5 57.5t-56 80.5t-19.5 101q0 65 24 117.5t71 89.5t117 57t161 20h309v-989h-160v422h-80l-323 -422h-180l338 432v0zM610 541v323h-143q-120 0 -171.5 -42t-51.5 -122q0 -77 61 -118t178 -41h127z" />
    <glyph glyph-name="afii10071" unicode="&#x451;" horiz-adv-x="1116" 
d="M223 469q2 -84 30.5 -151t76.5 -114t112.5 -72.5t137.5 -25.5q109 0 187.5 52.5t131.5 140.5l141 -31q-31 -70 -79 -124.5t-109.5 -92t-133 -57t-149.5 -19.5q-115 0 -209 39.5t-160.5 109.5t-102.5 165.5t-36 206.5q0 109 36.5 203.5t103 165t159 111t203.5 40.5
q119 0 211.5 -39.5t155.5 -111t96 -172.5t31 -224h-834zM895 582q-11 66 -35.5 122t-64.5 97.5t-97.5 64.5t-134.5 23q-70 0 -129 -24t-102.5 -65t-71 -97t-35.5 -121h670v0zM889 1323q0 -20 -8 -38t-22.5 -32t-33 -22t-39.5 -8t-39 8t-31.5 22t-21.5 32t-8 38q0 21 8 40
t21.5 32.5t31.5 21.5t39 8t39.5 -8t33 -21.5t22.5 -32.5t8 -40zM475 1323q0 -20 -8 -38t-22 -32t-32.5 -22t-39.5 -8q-22 0 -41 8t-33 22t-22.5 32t-8.5 38q0 21 8.5 40t22.5 32.5t33 21.5t41 8q21 0 39.5 -8t32.5 -21.5t22 -32.5t8 -40z" />
    <glyph glyph-name="afii10099" unicode="&#x452;" horiz-adv-x="1087" 
d="M6 1245v127h135v322h164v-322h248v-127h-248v-393h4q51 80 126 122t181 42q81 0 143.5 -25t106 -73.5t66 -119t22.5 -161.5v-784q0 -84 -25.5 -152.5t-74.5 -117t-121.5 -75t-167.5 -26.5h-8v141q123 0 178.5 59.5t55.5 163.5v758q0 63 -11 114t-37 87.5t-69 56
t-107 19.5q-63 0 -112 -27.5t-82 -74.5t-50.5 -111t-17.5 -136v-532h-164v1245h-135z" />
    <glyph glyph-name="afii10100" unicode="&#x453;" horiz-adv-x="750" 
d="M299 844v-844h-164v989h586v-145h-422zM455 1159h-144l217 334h189z" />
    <glyph glyph-name="afii10101" unicode="&#x454;" horiz-adv-x="995" 
d="M213 440q10 -72 43.5 -132.5t84.5 -105t118 -69t145 -24.5q102 0 181.5 34.5t138.5 94.5v-156q-72 -56 -155 -80.5t-177 -24.5q-110 0 -206.5 37.5t-168.5 106t-114 164t-42 211.5q0 112 40.5 207t112 164t168.5 108t210 39q91 0 174 -24t149 -77v-155q-26 27 -61 49.5
t-76 39.5t-86.5 26.5t-93.5 9.5q-74 0 -138.5 -22.5t-114.5 -64t-84 -99t-46 -126.5h537v-131h-539v0z" />
    <glyph glyph-name="afii10102" unicode="&#x455;" horiz-adv-x="825" 
d="M758 297q0 -70 -26.5 -129.5t-73 -102t-109.5 -66.5t-135 -24q-124 0 -218.5 59t-150.5 163l107 82q21 -36 48.5 -68t60 -55t71 -36.5t82.5 -13.5t78.5 14.5t58.5 39t36.5 56t12.5 65.5q0 42 -20.5 71.5t-54 52t-76.5 40t-87.5 36t-87.5 40t-76.5 51.5t-54 70.5
t-20.5 96.5q0 62 23.5 113t64.5 87.5t98.5 56.5t124.5 20q50 0 91 -9.5t75.5 -27t63 -42t53.5 -54.5l-86 -101q-37 44 -85.5 74.5t-105.5 30.5q-37 0 -66.5 -11t-50 -30.5t-31.5 -46t-11 -56.5q0 -34 20.5 -58t54 -43.5t76.5 -36t87.5 -35t87.5 -41.5t76.5 -55t54 -75
t20.5 -102z" />
    <glyph glyph-name="afii10103" unicode="&#x456;" horiz-adv-x="477" 
d="M342 1325q0 -20 -8 -38t-22 -32t-32 -22t-38 -8q-22 0 -41 8t-33 22t-22.5 32t-8.5 38q0 21 8.5 40t22.5 32.5t33 21.5t41 8q20 0 38 -8t32 -21.5t22 -32.5t8 -40zM156 0v991h166v-991h-166z" />
    <glyph glyph-name="afii10104" unicode="&#x457;" horiz-adv-x="477" 
d="M156 0v991h166v-991h-166zM553 1325q0 -20 -8 -38t-22 -32t-32.5 -22t-39.5 -8t-39.5 8t-32 22t-21.5 32t-8 38q0 21 8 40t21.5 32.5t32 21.5t39.5 8t39.5 -8t32.5 -21.5t22 -32.5t8 -40zM139 1325q0 -20 -8 -38t-22 -32t-32.5 -22t-39.5 -8t-40.5 8t-33.5 22t-22.5 32
t-8.5 38q0 21 8.5 40t22.5 32.5t33.5 21.5t40.5 8t39.5 -8t32.5 -21.5t22 -32.5t8 -40z" />
    <glyph glyph-name="afii10105" unicode="&#x458;" horiz-adv-x="477" 
d="M342 1325q0 -20 -8 -38t-22 -32t-32 -22t-38 -8q-22 0 -41 8t-33 22t-22.5 32t-8.5 38q0 21 8.5 40t22.5 32.5t33 21.5t41 8q20 0 38 -8t32 -21.5t22 -32.5t8 -40zM322 -168q0 -88 -22.5 -154t-63 -110t-97 -66t-123.5 -22q-24 0 -55 5.5t-53 14.5v148q22 -8 44.5 -13.5
t47.5 -5.5q38 0 67.5 11.5t49 38.5t29.5 71t10 109v1132h166v-1159v0z" />
    <glyph glyph-name="afii10106" unicode="&#x459;" horiz-adv-x="1589" 
d="M1360 309q0 84 -50.5 130t-152.5 46h-209v-352h205q103 0 155 47.5t52 128.5zM1180 621q79 0 142 -21.5t107 -62t67.5 -98.5t23.5 -130q0 -71 -24 -128.5t-68 -97.5t-107.5 -61.5t-142.5 -21.5h-394v735h-4l-602 -735h-178l848 1030h100v-409h232z" />
    <glyph glyph-name="afii10107" unicode="&#x45a;" horiz-adv-x="1542" 
d="M1313 309q0 84 -50.5 130t-152.5 46h-209v-352h205q103 0 155 47.5t52 128.5zM1133 621q79 0 142 -21.5t107 -62t67.5 -98.5t23.5 -130q0 -71 -24 -128.5t-68.5 -97.5t-108 -61.5t-142.5 -21.5h-393v457h-438v-457h-164v989h164v-387h438v387h164v-368h232z" />
    <glyph glyph-name="afii10108" unicode="&#x45b;" horiz-adv-x="1087" 
d="M6 1245v127h135v322h164v-322h248v-127h-248v-393h4q51 80 126 122t181 42q81 0 143.5 -25t106 -73.5t66 -119t22.5 -161.5v-637h-163v604q0 63 -11 114t-37 87.5t-69 56t-107 19.5q-63 0 -112 -27.5t-82 -74.5t-50.5 -111t-17.5 -136v-532h-164v1245h-135z" />
    <glyph glyph-name="afii10109" unicode="&#x45c;" horiz-adv-x="907" 
d="M514 1159h-143l217 334h188zM317 451l-18 -19v-432h-164v989h164v-418h2l387 418h201l-449 -463l469 -526h-204z" />
    <glyph glyph-name="afii10110" unicode="&#x45e;" horiz-adv-x="1047" 
d="M367 -555h-172l258 578l-473 968h184l373 -794h4l340 794h174zM856 1423q-4 -61 -30.5 -110.5t-70.5 -84.5t-102.5 -54t-124.5 -19q-67 0 -125.5 19t-103 54t-71 84.5t-31.5 110.5h135q7 -32 23.5 -59.5t42 -48t58.5 -32t72 -11.5t72 11.5t58.5 32t42.5 48t24 59.5h131v0
z" />
    <glyph glyph-name="afii10193" unicode="&#x45f;" horiz-adv-x="1079" 
d="M135 0v989h164v-844h481v844h164v-989h-328v-283h-155v283h-326z" />
    <glyph glyph-name="afii10050" unicode="&#x490;" horiz-adv-x="930" 
d="M330 0h-174v1544h589v322h166v-477h-581v-1389z" />
    <glyph glyph-name="afii10098" unicode="&#x491;" horiz-adv-x="750" 
d="M565 1274h156v-430h-422v-844h-164v989h430v285z" />
    <glyph glyph-name="endash" unicode="&#x2013;" horiz-adv-x="1024" 
d="M102 588v135h820v-135h-820z" />
    <glyph glyph-name="emdash" unicode="&#x2014;" horiz-adv-x="1536" 
d="M102 588v135h1332v-135h-1332z" />
    <glyph glyph-name="quoteleft" unicode="&#x2018;" horiz-adv-x="635" 
d="M420 1130q0 -42 -28 -70t-75 -28q-29 0 -51.5 13t-38.5 36t-24 54t-8 67q0 44 13.5 95t40 101.5t66.5 97.5t93 83l49 -49q-39 -29 -70 -67t-51 -79.5t-29.5 -83t-5.5 -77.5q29 4 51 -1.5t37 -18.5t23 -31.5t8 -41.5z" />
    <glyph glyph-name="quoteright" unicode="&#x2019;" horiz-adv-x="635" 
d="M217 1470q0 42 27.5 70.5t72.5 28.5q30 0 53.5 -13t39 -36t24 -54t8.5 -67q0 -44 -13.5 -95t-40 -101.5t-67 -97.5t-94.5 -83l-47 49q39 29 70 67.5t51 79.5t29 82.5t4 77.5q-57 -6 -87 21.5t-30 70.5z" />
    <glyph glyph-name="quotesinglbase" unicode="&#x201a;" horiz-adv-x="635" 
d="M217 82q0 42 27.5 69t72.5 27q30 0 53.5 -12.5t39 -35t24 -53.5t8.5 -67q0 -45 -13.5 -95.5t-40 -101t-67 -97.5t-94.5 -83l-47 48q39 29 70 67t51 79t29 83t4 78q-57 -6 -87 21.5t-30 72.5z" />
    <glyph glyph-name="quotedblleft" unicode="&#x201c;" horiz-adv-x="977" 
d="M762 1130q0 -42 -28 -70t-75 -28q-29 0 -51.5 13t-38.5 36t-24 54t-8 67q0 44 13.5 95t40 101.5t66.5 97.5t93 83l49 -49q-39 -29 -70 -67t-51 -79.5t-29.5 -83t-5.5 -77.5q29 4 51 -1.5t37 -18.5t23 -31.5t8 -41.5zM420 1130q0 -42 -28 -70t-75 -28q-29 0 -51.5 13
t-38.5 36t-24 54t-8 67q0 44 13.5 95t40 101.5t66.5 97.5t93 83l49 -49q-39 -29 -70 -67t-51 -79.5t-29.5 -83t-5.5 -77.5q29 4 51 -1.5t37 -18.5t23 -31.5t8 -41.5z" />
    <glyph glyph-name="quotedblright" unicode="&#x201d;" horiz-adv-x="977" 
d="M217 1470q0 42 27.5 70.5t72.5 28.5q30 0 53.5 -13t39 -36t24 -54t8.5 -67q0 -44 -13.5 -95t-40 -101.5t-67 -97.5t-94.5 -83l-47 49q39 29 70 67.5t51 79.5t29 82.5t4 77.5q-57 -6 -87 21.5t-30 70.5zM559 1470q0 42 27.5 70.5t72.5 28.5q30 0 53.5 -13t39 -36t24 -54
t8.5 -67q0 -44 -13.5 -95t-40 -101.5t-67 -97.5t-94.5 -83l-47 49q39 29 70 67.5t51 79.5t29 82.5t4 77.5q-57 -6 -87 21.5t-30 70.5z" />
    <glyph glyph-name="quotedblbase" unicode="&#x201e;" horiz-adv-x="977" 
d="M217 82q0 42 27.5 69t72.5 27q30 0 53.5 -12.5t39 -35t24 -53.5t8.5 -67q0 -45 -13.5 -95.5t-40 -101t-67 -97.5t-94.5 -83l-47 48q39 29 70 67t51 79t29 83t4 78q-57 -6 -87 21.5t-30 72.5zM559 82q0 42 27.5 69t72.5 27q30 0 53.5 -12.5t39 -35t24 -53.5t8.5 -67
q0 -45 -13.5 -95.5t-40 -101t-67 -97.5t-94.5 -83l-47 48q39 29 70 67t51 79t29 83t4 78q-57 -6 -87 21.5t-30 72.5z" />
    <glyph glyph-name="dagger" unicode="&#x2020;" horiz-adv-x="1067" 
d="M606 989v-1354h-145v1354h-369v133h369v422h145v-422h371v-133h-371z" />
    <glyph glyph-name="daggerdbl" unicode="&#x2021;" horiz-adv-x="1067" 
d="M606 84v-449h-145v449h-369v131h369v774h-369v133h369v422h145v-422h371v-133h-371v-774h369v-131h-369z" />
    <glyph glyph-name="bullet" unicode="&#x2022;" horiz-adv-x="596" 
d="M530 772q0 -48 -17.5 -90.5t-48 -73.5t-73 -49t-92.5 -18t-92.5 18t-74 49t-49 73.5t-17.5 90.5t17.5 89.5t49 72.5t74 49t92.5 18t92.5 -18t73 -49t48 -72.5t17.5 -89.5z" />
    <glyph glyph-name="ellipsis" unicode="&#x2026;" horiz-adv-x="1589" 
d="M1366 72q0 -41 -28 -69t-68 -28t-68 28t-28 69q0 20 7.5 37.5t20.5 31t30.5 21.5t37.5 8t37.5 -8t30.5 -21.5t20.5 -31t7.5 -37.5zM891 72q0 -41 -28 -69t-68 -28q-41 0 -69 28t-28 69q0 20 7.5 37.5t20.5 31t31 21.5t38 8t37.5 -8t30.5 -21.5t20.5 -31t7.5 -37.5z
M416 72q0 -41 -28 -69t-69 -28q-40 0 -68 28t-28 69q0 20 7.5 37.5t20.5 31t30.5 21.5t37.5 8t38 -8t31 -21.5t20.5 -31t7.5 -37.5z" />
    <glyph glyph-name="perthousand" unicode="&#x2030;" horiz-adv-x="2423" 
d="M719 1176q0 -81 -25 -151t-69 -122t-105.5 -82t-134.5 -30t-134.5 30t-105.5 82t-69 122t-25 151t25 151t69 122t105.5 82t134.5 30q74 0 135.5 -30t105.5 -82t68.5 -122t24.5 -151zM395 -29l-94 29l909 1573l97 -29zM2372 369q0 -81 -25 -151t-70 -122t-106.5 -82
t-134.5 -30t-134.5 30t-105.5 82t-69 122t-25 151t25 151t70 122t106.5 82t134.5 30t134 -30t105.5 -82t69.5 -122t25 -151zM1563 369q0 -81 -25 -151t-69.5 -122t-105.5 -82t-134 -30q-74 0 -135.5 30t-105.5 82t-68.5 122t-24.5 151t25 151t69 122t105.5 82t134.5 30
t134 -30t105.5 -82t69.5 -122t25 -151zM604 1176q0 60 -15.5 110.5t-44 88t-69 58.5t-90.5 21q-51 0 -91.5 -21t-69 -58t-43.5 -88t-15 -111q0 -61 15 -112t43.5 -88t69 -58t91.5 -21q50 0 90.5 21t69 58t44 88t15.5 112zM2255 369q0 60 -15 111t-43 88t-68 58t-91 21
t-91 -21t-68 -58t-43 -88t-15 -111t15 -111t42.5 -88.5t67.5 -58.5t90 -21q51 0 92 21t69 58t43 88t15 112zM1446 369q0 60 -15 111t-43.5 88t-68.5 58t-90 21q-51 0 -91.5 -21t-69 -58t-43.5 -88t-15 -111t15 -111t43.5 -88.5t69 -58.5t91.5 -21q50 0 90 21t68.5 58
t43.5 88t15 112z" />
    <glyph glyph-name="guilsinglleft" unicode="&#x2039;" horiz-adv-x="594" 
d="M377 125l-309 379l309 377l90 -72l-250 -305l250 -305z" />
    <glyph glyph-name="guilsinglright" unicode="&#x203a;" horiz-adv-x="594" 
d="M217 125l-90 74l252 305l-250 305l88 72l309 -377z" />
    <glyph glyph-name="fraction" unicode="&#x2044;" horiz-adv-x="940" 
d="M27 -29l-97 29l910 1573l98 -29z" />
    <glyph glyph-name="Euro" unicode="&#x20ac;" horiz-adv-x="1294" 
d="M354 889q-2 -28 -3 -56t-1 -59q0 -62 6 -121h672v-114h-651q23 -102 68.5 -180t108.5 -131t141.5 -80t168.5 -27q51 0 104.5 11t102.5 30.5t91.5 46t72.5 57.5h2v-172q-31 -24 -74 -45t-92.5 -37t-102.5 -25.5t-104 -9.5q-124 0 -231.5 36t-192.5 107t-143.5 176
t-85.5 243h-180v114h166q-2 28 -3 58t-1 61t1 60t3 57h-166v115h180q27 139 85.5 244.5t143 177t191.5 107.5t231 36q52 0 105.5 -9.5t103 -25t92.5 -37t74 -45.5v-174h-2q-31 32 -73.5 59t-91.5 46t-102.5 29.5t-105.5 10.5q-90 0 -169 -27t-142 -80t-108.5 -131
t-69.5 -181h655v-115h-674v0z" />
    <glyph glyph-name="afii61352" unicode="&#x2116;" horiz-adv-x="2478" 
d="M2066 883q-79 0 -143.5 26.5t-110 73t-70 109.5t-24.5 137q0 75 26 138.5t72.5 109t111.5 71t143 25.5q80 0 144.5 -26t109.5 -72.5t69.5 -109t24.5 -136.5t-25.5 -137t-72 -109.5t-111.5 -73t-144 -26.5zM2394 772v-141h-649v141h649zM2071 1444q-48 0 -87 -17.5
t-66 -47t-41.5 -68.5t-14.5 -82q0 -45 14 -84t40.5 -68t64 -46t85.5 -17q50 0 89 17t66 46t41.5 68t14.5 84q0 43 -14.5 82t-41 68.5t-64.5 47t-86 17.5zM1423 -37l-1089 1251h-4v-1214h-174v1559h98l1089 -1244h3v1229h174v-1581h-97z" />
    <glyph glyph-name="trademark" unicode="&#x2122;" horiz-adv-x="1071" 
d="M274 1462v-418h-88v418h-114v82h317v-82h-115zM909 1044l-57 310h-6l-119 -320h-53l-119 322h-6l-57 -312h-86l100 502h63l131 -348l136 348h65l98 -502h-90z" />
    <glyph glyph-name="Omega" unicode="&#x2126;" horiz-adv-x="1110" 
d="M862 854v-854h-151v854h-400v-854h-149v854h-113v133h113v375q0 85 27 151t75.5 111t115.5 68.5t146 23.5q84 0 149 -24t111 -70q39 48 94.5 71t125.5 23q23 0 53 -4.5t49 -13.5v-135q-37 18 -88 18q-37 0 -66.5 -11.5t-50 -38.5t-31 -71.5t-10.5 -111.5v-361h246v-133
h-246zM719 1458q-9 26 -27.5 49t-44 40t-57 26.5t-66.5 9.5q-41 0 -79.5 -11.5t-68 -38t-47.5 -71t-18 -110.5v-365h400v379q0 25 2.5 48.5t5.5 43.5z" />
    <glyph glyph-name="partialdiff" unicode="&#x2202;" horiz-adv-x="598" 
d="M78 -215v133h246v1694h-246v133h393v-1960h-393z" />
    <glyph glyph-name="Delta" unicode="&#x2206;" horiz-adv-x="635" 
d="M553 -221q-84 0 -146 18.5t-102.5 59t-60 104.5t-19.5 154v391q0 39 -9.5 72.5t-28 57.5t-45 38t-60.5 14v158q34 0 60.5 14t45 38t28 57t9.5 71v391q0 90 19.5 154t60 104.5t102.5 59t146 18.5v-133q-53 0 -87.5 -10.5t-55 -37t-29 -70t-8.5 -109.5v-357
q0 -59 -8 -102.5t-25.5 -75t-45.5 -52.5t-69 -36v-6q41 -15 69 -36t45.5 -52.5t25.5 -75t8 -102.5v-359q0 -66 8.5 -109.5t29 -70t55 -37t87.5 -10.5v-133v0z" />
    <glyph glyph-name="product" unicode="&#x220f;" horiz-adv-x="1051" 
d="M741 1358q0 108 -58.5 166.5t-158.5 58.5q-42 0 -80.5 -11.5t-68 -38t-47 -71t-17.5 -110.5v-365h248v-133h-248v-854h-149v854h-113v133h113v375q0 85 27 151t75.5 111t115.5 68.5t146 23.5q85 0 152.5 -25t115 -71.5t72.5 -113t25 -148.5h-150zM891 -174
q0 -88 -21.5 -152.5t-60.5 -107t-93.5 -63.5t-119.5 -21q-22 0 -51 5t-49 13v135q20 -8 42.5 -13t45.5 -5q38 0 67.5 11.5t49.5 39t30 72t10 110.5v1137h150v-1161v0z" />
    <glyph glyph-name="summation" unicode="&#x2211;" horiz-adv-x="598" 
d="M127 -215v1960h393v-133h-246v-1694h246v-133h-393z" />
    <glyph glyph-name="minus" unicode="&#x2212;" horiz-adv-x="1272" 
d="M125 715v135h999v-135h-999z" />
    <glyph glyph-name="radical" unicode="&#x221a;" horiz-adv-x="1604" 
d="M1292 0v1352q0 108 -56.5 169.5t-158.5 61.5q-100 0 -157.5 -58t-57.5 -173v-365h246v-133h-246v-854h-149v854h-402v-854h-149v854h-113v133h113v375q0 84 27 150t75.5 111.5t115.5 69t146 23.5q93 0 160.5 -29t114.5 -83q48 54 117 82t159 28q86 0 153.5 -24.5
t114.5 -70t72 -111t25 -146.5v-1362h-150zM725 1448q-19 57 -71 96t-128 39q-42 0 -81 -11.5t-68.5 -38t-47.5 -71t-18 -110.5v-365h400v373q0 23 4 46t10 42z" />
    <glyph glyph-name="infinity" unicode="&#x221e;" horiz-adv-x="1106" 
d="M399 1194q0 -33 -12 -61.5t-34 -49.5t-54 -33t-72 -12q-100 0 -166 78l45 68q54 -66 119 -66q38 0 61 20.5t23 49.5q0 23 -16.5 41.5t-54.5 34.5l-35 16q-63 28 -87 57t-24 70q0 30 11.5 56t31.5 45.5t48 30.5t61 11q45 0 81.5 -15.5t61.5 -41.5l-41 -66q-49 46 -96 46
q-31 0 -50.5 -17.5t-19.5 -42.5q0 -23 18 -39t60 -33l37 -16q54 -22 79 -53.5t25 -77.5zM952 1044l-55 310h-6l-119 -320h-55l-117 322h-6l-57 -312h-88l100 502h63l133 -348l136 348h63l98 -502h-90z" />
    <glyph glyph-name="integral" unicode="&#x222b;" horiz-adv-x="1655" 
d="M725 1448q-19 57 -71 96t-128 39q-42 0 -81 -11.5t-68.5 -38t-47.5 -71t-18 -110.5v-365h400v373q0 23 4 46t10 42zM1292 1354q0 108 -56.5 168.5t-158.5 60.5q-100 0 -157.5 -58t-57.5 -173v-365h430v367zM1620 987v-133h-178v-854h-150v854h-430v-854h-149v854h-402
v-854h-149v854h-113v133h113v375q0 84 27 150t75.5 111.5t115.5 69t146 23.5q93 0 160.5 -29t114.5 -83q48 54 117 82t159 28q86 0 153.5 -25t114.5 -71t72 -111.5t25 -146.5v-373h178z" />
    <glyph glyph-name="approxequal" unicode="&#x2248;" horiz-adv-x="1604" 
d="M1294 1358q0 54 -15.5 95.5t-44 70.5t-68.5 44t-89 15q-42 0 -81 -11.5t-68.5 -38t-47.5 -71t-18 -110.5v-365h246v-133h-246v-854h-149v854h-402v-854h-149v854h-113v133h113v375q0 85 27 151t75.5 111t115.5 68.5t146 23.5q93 0 160.5 -28t114.5 -82q48 54 119.5 82
t156.5 28q86 0 153.5 -25t114.5 -71.5t72 -113t25 -148.5h-148zM1294 0v987h150v-987h-150zM723 1450q-8 29 -26.5 53.5t-44.5 42t-58 27.5t-68 10q-42 0 -81 -11.5t-68.5 -38t-47.5 -71t-18 -110.5v-365h400v373q0 25 3.5 47.5t8.5 42.5z" />
    <glyph glyph-name="notequal" unicode="&#x2260;" horiz-adv-x="889" 
d="M102 707v133h684v-133h-684z" />
    <glyph glyph-name="lessequal" unicode="&#x2264;" horiz-adv-x="545" 
d="M459 -229q-88 92 -161.5 204t-126 239.5t-81.5 266.5t-29 285t29 285t81.5 265.5t126 239t161.5 205.5l104 -90q-84 -92 -150.5 -197.5t-112.5 -220t-70.5 -237t-24.5 -248.5q0 -127 24.5 -250t70.5 -238.5t112.5 -221.5t150.5 -199z" />
    <glyph glyph-name="greaterequal" unicode="&#x2265;" horiz-adv-x="545" 
d="M473 766q0 -146 -28.5 -285t-81 -266.5t-125.5 -239.5t-162 -204l-103 88q84 93 150.5 199t112 221.5t70 238.5t24.5 250q0 126 -24 248.5t-69.5 237t-112 220t-151.5 197.5l103 90q89 -93 162 -205.5t125.5 -239t81 -265.5t28.5 -285z" />
    <glyph glyph-name="lozenge" unicode="&#x25ca;" horiz-adv-x="1843" 
d="M702 707v-428h-147v428h-426v147h426v428h147v-428h428v-145h41v-220h3q25 43 79 43q42 0 64 -26t22 -74v-164h-41v156q0 34 -12.5 53t-46.5 19q-32 0 -50 -26t-18 -64v-138h-43v439h-426zM1673 399q0 -30 -9 -55t-25.5 -43.5t-39.5 -28.5t-51 -10q-29 0 -53.5 12
t-38.5 33h-2v-184h-45v401h45v-39h2q16 23 40 35t52 12q29 0 52 -10.5t39 -28.5t25 -42t9 -52zM1632 397q0 41 -24 69t-66 28t-66 -27t-24 -68q0 -20 6 -38.5t17 -32.5t28 -22.5t39 -8.5q21 0 37.5 8.5t28 22.5t18 32t6.5 37z" />
    <glyph glyph-name="apple" unicode="&#xf8ff;" horiz-adv-x="1421" 
d="M893 -410l-16 29h-334l-17 -29h-424v621q28 0 47 19t19 46q0 26 -19 46t-47 20v1135h205l62 161h684l59 -161h207v-1887h-426zM819 801h31v160h78v28h-78v135h88v29h-119v-352zM377 801h31v162h96v-162h31v352h-31v-162h-96v162h-31v-352zM942 807q6 -3 20 -5.5t23 -2.5
q31 0 47.5 17.5t16.5 55.5v281h-33v-281q0 -24 -8 -34.5t-25 -10.5q-8 0 -20.5 4t-20.5 9v-33v0zM1071 567h16v27l15 14l33 -41h18l-39 54l37 41h-21l-43 -50v50h-16v-95zM1020 567h18l-24 35q20 7 20 31q0 9 -8.5 19t-24.5 10h-43v-95h17v31h24zM872 565q23 0 36.5 14.5
t13.5 34.5q0 19 -14 34.5t-36 15.5q-21 0 -34 -15.5t-13 -34.5q0 -20 13 -34.5t34 -14.5zM731 662h-18l37 -60v-35h16v35l37 60h-19l-26 -46zM395 567h68v15h-51v26h45v15h-45v24h51v15h-68v-95zM270 567h17v66l51 -66h14v95h-16v-66l-51 66h-15v-95zM524 565h17l20 70h2
l23 -70h16l29 97h-17l-20 -72h-2l-21 72h-16l-23 -72h-2l-20 72h-16zM670 981q-11 20 -18 35t-7 31q0 15 8 26.5t21 11.5q12 0 19 -11.5t7 -26.5q0 -19 -7.5 -34t-22.5 -32zM700 866q-5 -15 -15 -29t-21 -14q-16 0 -25.5 16.5t-9.5 39.5q0 17 8 35t22 32l41 -80v0zM975 612
v35h22q21 0 21 -16q0 -8 -5.5 -13.5t-13.5 -5.5h-24zM872 580q-14 0 -22 10t-8 24q0 13 8 24t22 11t23.5 -11t9.5 -24q0 -14 -9.5 -24t-23.5 -10zM682 961q20 18 33.5 39.5t13.5 46.5q0 23 -13.5 43t-41.5 20q-26 0 -42 -20t-16 -43t8.5 -40t20.5 -40q-47 -38 -47 -93
q0 -34 18 -56.5t46 -22.5q20 0 33.5 15t21.5 34h2l24 -49l23 16l-33 61q8 19 15 39t12 41l-27 6q-3 -14 -8 -30.5t-10 -30.5z" />
    <glyph glyph-name="fi" unicode="&#xfb01;" horiz-adv-x="1051" 
d="M741 1358q0 108 -58.5 166.5t-158.5 58.5q-42 0 -80.5 -11.5t-68 -38t-47 -71t-17.5 -110.5v-365h248v-133h-248v-854h-149v854h-113v133h113v375q0 85 27 151t75.5 111t115.5 68.5t146 23.5q85 0 152.5 -25t115 -71.5t72.5 -113t25 -148.5h-150zM741 0v987h150v-987
h-150z" />
    <glyph glyph-name="fl" unicode="&#xfb02;" horiz-adv-x="1051" 
d="M741 0v1352q0 108 -55.5 169.5t-159.5 61.5q-100 0 -157.5 -58t-57.5 -173v-365h248v-133h-248v-854h-149v854h-113v133h113v377q0 80 25.5 145t72.5 111t115 71t153 25t152 -25t114 -70.5t72 -110.5t25 -146v-1364h-150z" />
    <glyph glyph-name="NUL" horiz-adv-x="0" 
 />
    <glyph glyph-name="MR_pi" horiz-adv-x="1665" 
d="M1647 772q0 -109 -28 -211t-80 -190.5t-125 -161.5t-163 -125t-193.5 -80.5t-217.5 -28.5q-116 0 -220.5 28.5t-194.5 80.5t-162.5 125t-123.5 161.5t-78.5 190.5t-27.5 211t28 211t79.5 190.5t124.5 161.5t162.5 125t193 80.5t217.5 28.5t218 -28.5t193.5 -80.5
t163 -125t125.5 -161.5t80.5 -190t28.5 -211.5zM1561 774q0 98 -25.5 189.5t-72.5 170.5t-112.5 144.5t-145.5 112.5t-172.5 72.5t-192.5 25.5q-103 0 -196.5 -25t-174 -71.5t-145.5 -111.5t-111 -145t-71 -172.5t-25 -193.5q0 -98 25.5 -189.5t72 -170.5t111.5 -144.5
t145.5 -112.5t173 -72.5t193.5 -25.5q103 0 196.5 25t173.5 70.5t145.5 110.5t111.5 145t71 173t25 195zM1124 979q0 -55 -18.5 -101.5t-54 -80t-86 -52t-115.5 -18.5h-107v-408h-104v910h211q64 0 114.5 -18.5t86 -51.5t54.5 -79t19 -101zM1020 979q0 78 -47 118t-146 40
h-84v-316h84q99 0 146 39.5t47 118.5z" />
    </font>
</defs>
</svg>
